<?xml version="1.0" encoding="UTF-8" standalone="no"?>
<!-- Created with Inkscape (http://www.inkscape.org/) -->

<svg
   xmlns:dc="http://purl.org/dc/elements/1.1/"
   xmlns:cc="http://creativecommons.org/ns#"
   xmlns:rdf="http://www.w3.org/1999/02/22-rdf-syntax-ns#"
   xmlns:svg="http://www.w3.org/2000/svg"
   xmlns="http://www.w3.org/2000/svg"
   xmlns:sodipodi="http://sodipodi.sourceforge.net/DTD/sodipodi-0.dtd"
   xmlns:inkscape="http://www.inkscape.org/namespaces/inkscape"
   version="1.1"
   id="svg2"
   xml:space="preserve"
   width="492.53201"
   height="474.64001"
   viewBox="0 0 492.53202 474.64002"
   sodipodi:docname="landing.ai.svg"
   inkscape:version="0.92.4 (f8dce91, 2019-08-02)"><metadata
     id="metadata8"><rdf:RDF><cc:Work
         rdf:about=""><dc:format>image/svg+xml</dc:format><dc:type
           rdf:resource="http://purl.org/dc/dcmitype/StillImage" /><dc:title></dc:title></cc:Work></rdf:RDF></metadata><defs
     id="defs6"><clipPath
       clipPathUnits="userSpaceOnUse"
       id="clipPath26"><path
         d="M 0,500 H 750 V 0 H 0 Z"
         id="path24"
         inkscape:connector-curvature="0" /></clipPath><clipPath
       clipPathUnits="userSpaceOnUse"
       id="clipPath60"><path
         d="M 0,500 H 750 V 0 H 0 Z"
         id="path58"
         inkscape:connector-curvature="0" /></clipPath><clipPath
       clipPathUnits="userSpaceOnUse"
       id="clipPath848"><path
         d="m 565.507,280.763 h 30.421 v -39.834 h -30.421 z"
         id="path846"
         inkscape:connector-curvature="0" /></clipPath><clipPath
       clipPathUnits="userSpaceOnUse"
       id="clipPath864"><path
         d="M 0,500 H 750 V 0 H 0 Z"
         id="path862"
         inkscape:connector-curvature="0" /></clipPath></defs><sodipodi:namedview
     pagecolor="#ffffff"
     bordercolor="#666666"
     borderopacity="1"
     objecttolerance="10"
     gridtolerance="10"
     guidetolerance="10"
     inkscape:pageopacity="0"
     inkscape:pageshadow="2"
     inkscape:window-width="1542"
     inkscape:window-height="836"
     id="namedview4"
     showgrid="false"
     inkscape:zoom="0.125"
     inkscape:cx="-4198.1273"
     inkscape:cy="-1506.8665"
     inkscape:window-x="1418"
     inkscape:window-y="27"
     inkscape:window-maximized="1"
     inkscape:current-layer="g10" /><g
     id="g10"
     inkscape:groupmode="layer"
     inkscape:label="2471268"
     transform="matrix(1.3333333,0,0,-1.3333333,0,474.63999)"><g
       id="g54"
       transform="translate(-332.31647,-52.147808)"><g
         id="g56"
         clip-path="url(#clipPath60)"><g
           id="g62"
           transform="translate(450.1484,259.457)"><path
             d="m 0,0 h -13.854 v -60.692 h 0.038 c 0.006,-0.638 0.684,-1.276 2.035,-1.763 2.699,-0.974 7.061,-0.974 9.74,-0.001 1.342,0.487 2.009,1.126 2.003,1.764 H 0 Z"
             style="fill:#ffd08a;fill-opacity:1;fill-rule:nonzero;stroke:none"
             id="path64"
             inkscape:connector-curvature="0" /></g><g
           id="g66"
           transform="translate(450.1484,259.457)"><path
             d="M 0,0 -0.112,0.203 C -0.15,0.303 -0.205,0.402 -0.277,0.5 L -6.928,12.496 -13.525,0.592 C -13.646,0.447 -13.726,0.299 -13.771,0.149 L -13.854,0 h 0.053 c -0.093,-0.682 0.575,-1.375 2.02,-1.896 2.699,-0.974 7.061,-0.974 9.74,-0.001 1.436,0.521 2.091,1.215 1.983,1.897 z"
             style="fill:#ffffff;fill-opacity:1;fill-rule:nonzero;stroke:none"
             id="path68"
             inkscape:connector-curvature="0" /></g><g
           id="g70"
           transform="translate(445.8418,267.2266)"><path
             d="m 0,0 -0.057,0.102 c -0.008,0.019 -0.018,0.037 -0.03,0.056 L -2.62,4.726 -5.142,0.177 C -5.161,0.148 -5.178,0.119 -5.19,0.089 L -5.239,0 h 0.026 c -0.035,-0.258 0.211,-0.52 0.757,-0.717 1.021,-0.368 2.671,-0.368 3.684,0 0.543,0.196 0.784,0.459 0.744,0.717 z"
             style="fill:#f2a14b;fill-opacity:1;fill-rule:nonzero;stroke:none"
             id="path72"
             inkscape:connector-curvature="0" /></g><g
           id="g74"
           transform="translate(477.1699,276.7349)"><path
             d="m 0,0 h -13.854 v -60.692 h 0.037 c 0.006,-0.638 0.685,-1.275 2.035,-1.763 2.699,-0.973 7.061,-0.973 9.74,-0.001 1.342,0.487 2.009,1.125 2.003,1.764 H 0 Z"
             style="fill:#fe7386;fill-opacity:1;fill-rule:nonzero;stroke:none"
             id="path76"
             inkscape:connector-curvature="0" /></g><g
           id="g78"
           transform="translate(477.1699,276.7349)"><path
             d="M 0,0 -0.113,0.203 C -0.151,0.303 -0.206,0.402 -0.277,0.5 L -6.929,12.496 -13.526,0.592 c -0.12,-0.145 -0.2,-0.293 -0.245,-0.443 L -13.854,0 h 0.053 c -0.094,-0.682 0.574,-1.375 2.019,-1.896 2.699,-0.974 7.061,-0.974 9.74,-0.001 1.436,0.521 2.091,1.215 1.983,1.897 z"
             style="fill:#ffffff;fill-opacity:1;fill-rule:nonzero;stroke:none"
             id="path80"
             inkscape:connector-curvature="0" /></g><g
           id="g82"
           transform="translate(472.8623,284.5044)"><path
             d="m 0,0 -0.057,0.102 c -0.008,0.019 -0.018,0.037 -0.03,0.056 L -2.62,4.726 -5.142,0.177 C -5.161,0.148 -5.178,0.119 -5.189,0.089 L -5.239,0 h 0.026 c -0.035,-0.258 0.211,-0.52 0.757,-0.717 1.021,-0.368 2.671,-0.368 3.685,0 0.542,0.196 0.783,0.459 0.743,0.717 z"
             style="fill:#fe3551;fill-opacity:1;fill-rule:nonzero;stroke:none"
             id="path84"
             inkscape:connector-curvature="0" /></g><g
           id="g86"
           transform="translate(392.3877,270.6128)"><path
             d="m 0,0 -0.315,-111.424 c -0.006,-1.933 -1.277,-3.863 -3.813,-5.337 -5.102,-2.965 -13.4,-2.965 -18.536,0 -2.585,1.492 -3.876,3.451 -3.87,5.406 l 0.315,111.424 c -0.005,-1.955 1.286,-3.914 3.87,-5.405 5.136,-2.966 13.435,-2.966 18.536,0 C -1.275,-3.862 -0.005,-1.933 0,0"
             style="fill:#ffffff;fill-opacity:1;fill-rule:nonzero;stroke:none"
             id="path88"
             inkscape:connector-curvature="0" /></g><g
           id="g90"
           transform="translate(388.5215,276.0171)"><path
             d="m 0,0 c 5.136,-2.965 5.156,-7.775 0.054,-10.741 -5.102,-2.965 -13.401,-2.965 -18.536,0 -5.136,2.965 -5.164,7.772 -0.061,10.737 C -13.44,2.961 -5.136,2.965 0,0"
             style="fill:#87b2c9;fill-opacity:1;fill-rule:nonzero;stroke:none"
             id="path92"
             inkscape:connector-curvature="0" /></g><g
           id="g94"
           transform="translate(379.3203,265.144)"><path
             d="m 0,0 c -3.094,0 -6.095,0.709 -8.235,1.944 -1.792,1.035 -2.823,2.339 -2.825,3.578 -10e-4,1.226 1.008,2.516 2.77,3.539 2.124,1.234 5.118,1.942 8.214,1.942 3.094,0 6.095,-0.708 8.231,-1.941 C 9.945,8.027 10.974,6.724 10.976,5.485 10.978,4.257 9.967,2.966 8.204,1.941 6.082,0.708 3.092,0 0,0"
             style="fill:#ffffff;fill-opacity:1;fill-rule:nonzero;stroke:none"
             id="path96"
             inkscape:connector-curvature="0" /></g><g
           id="g98"
           transform="translate(379.3203,267.2358)"><path
             d="m 0,0 c -2.736,0 -5.357,0.606 -7.189,1.664 -1.342,0.775 -1.779,1.527 -1.779,1.771 0,0.233 0.422,0.966 1.729,1.725 1.815,1.055 4.426,1.659 7.163,1.659 2.738,0 5.357,-0.605 7.185,-1.661 C 8.448,4.384 8.884,3.632 8.884,3.39 8.884,3.153 8.462,2.418 7.153,1.658 5.34,0.604 2.733,0 0,0"
             style="fill:#87b2c9;fill-opacity:1;fill-rule:nonzero;stroke:none"
             id="path100"
             inkscape:connector-curvature="0" /></g><g
           id="g102"
           transform="translate(379.3203,269.3281)"><path
             d="m 0,0 c -2.302,0 -4.554,0.498 -6.056,1.334 1.486,0.816 3.705,1.301 5.98,1.301 2.302,0 4.554,-0.497 6.053,-1.332 C 4.494,0.485 2.274,0 0,0"
             style="fill:#ffffff;fill-opacity:1;fill-rule:nonzero;stroke:none"
             id="path104"
             inkscape:connector-curvature="0" /></g><g
           id="g106"
           transform="translate(388.4189,217.8525)"><path
             d="m 0,0 c -5.099,-2.957 -13.396,-2.957 -18.536,0 -2.374,1.378 -3.651,3.128 -3.843,4.918 l -0.03,-9.133 c 0,-1.951 1.288,-3.912 3.873,-5.401 5.14,-2.967 13.437,-2.967 18.536,0 2.535,1.469 3.813,3.4 3.813,5.331 V 5.341 C 3.813,3.409 2.535,1.479 0,0"
             style="fill:#0875f6;fill-opacity:1;fill-rule:nonzero;stroke:none"
             id="path108"
             inkscape:connector-curvature="0" /></g><g
           id="g110"
           transform="translate(376.2744,213.9043)"><path
             d="M 0,0 C 0,0 -9.844,-7.402 -14.703,-20.035 -19.562,-32.667 -35.802,-43.02 -35.802,-43.02 h 9.268 v -7.476 c 0,0 13.819,8.748 18.589,23.574 4.77,14.825 13.109,23.708 13.109,23.708 z"
             style="fill:#0875f6;fill-opacity:1;fill-rule:nonzero;stroke:none"
             id="path112"
             inkscape:connector-curvature="0" /></g><g
           id="g114"
           transform="translate(376.2012,213.9043)"><path
             d="m 0,0 c 0,0 9.844,-7.402 14.703,-20.035 4.859,-12.632 21.1,-22.985 21.1,-22.985 h -9.268 v -7.476 c 0,0 -13.82,8.748 -18.59,23.574 -4.77,14.825 -13.109,23.708 -13.109,23.708 z"
             style="fill:#0875f6;fill-opacity:1;fill-rule:nonzero;stroke:none"
             id="path116"
             inkscape:connector-curvature="0" /></g><g
           id="g118"
           transform="translate(425.8232,113.3955)"><path
             d="m 0,0 -0.031,-11.142 -27.991,-16.266 0.031,11.141 z"
             style="fill:#cf2b42;fill-opacity:1;fill-rule:nonzero;stroke:none"
             id="path120"
             inkscape:connector-curvature="0" /></g><g
           id="g122"
           transform="translate(393.3984,132.123)"><path
             d="m 0,0 -28.09,-16.216 -1.513,0.874 -31.418,18.13 27.993,16.272 31.432,-18.13 z"
             style="fill:#0875f6;fill-opacity:1;fill-rule:nonzero;stroke:none"
             id="path124"
             inkscape:connector-curvature="0" /></g><g
           id="g126"
           transform="translate(425.8291,113.3965)"><path
             d="m 0,0 -27.992,-16.271 -30.795,17.784 -1.734,0.998 28.09,16.216 1.622,-0.944 z"
             style="fill:#fe7386;fill-opacity:1;fill-rule:nonzero;stroke:none"
             id="path128"
             inkscape:connector-curvature="0" /></g><g
           id="g130"
           transform="translate(365.3086,115.9072)"><path
             d="m 0,0 v -11.166 l -1.513,0.874 -31.446,18.157 0.028,11.139 31.418,-18.13 z"
             style="fill:#0051b0;fill-opacity:1;fill-rule:nonzero;stroke:none"
             id="path132"
             inkscape:connector-curvature="0" /></g><g
           id="g134"
           transform="translate(397.8369,97.126)"><path
             d="m 0,0 -0.042,-11.139 -30.794,17.783 -1.692,0.971 v 11.166 l 1.692,-0.97 z"
             style="fill:#fe3551;fill-opacity:1;fill-rule:nonzero;stroke:none"
             id="path136"
             inkscape:connector-curvature="0" /></g><g
           id="g138"
           transform="translate(367.001,114.9365)"><path
             d="m 0,0 v -11.167 l -1.692,0.972 -1.513,0.874 V 1.845 l 1.513,-0.874 z"
             style="fill:#ffa754;fill-opacity:1;fill-rule:nonzero;stroke:none"
             id="path140"
             inkscape:connector-curvature="0" /></g><g
           id="g142"
           transform="translate(395.0205,131.1797)"><path
             d="m 0,0 -27.979,-16.271 -1.733,0.999 -1.513,0.874 28.007,16.271 1.596,-0.93 z"
             style="fill:#ffd08a;fill-opacity:1;fill-rule:nonzero;stroke:none"
             id="path144"
             inkscape:connector-curvature="0" /></g><g
           id="g146"
           transform="translate(624.6924,357.6406)"><path
             d="m 0,0 -0.403,-142.125 -87.451,50.489 0.403,142.126 z"
             style="fill:#ffffff;fill-opacity:1;fill-rule:nonzero;stroke:none"
             id="path148"
             inkscape:connector-curvature="0" /></g><g
           id="g150"
           transform="translate(578.0537,338.7788)"><path
             d="m 0,0 -0.007,-2.448 -33.204,19.17 0.007,2.448 z"
             style="fill:#87b2c9;fill-opacity:1;fill-rule:nonzero;stroke:none"
             id="path152"
             inkscape:connector-curvature="0" /></g><g
           id="g154"
           transform="translate(578.0391,333.3994)"><path
             d="m 0,0 -0.007,-2.456 -33.204,19.171 0.007,2.455 z"
             style="fill:#87b2c9;fill-opacity:1;fill-rule:nonzero;stroke:none"
             id="path156"
             inkscape:connector-curvature="0" /></g><g
           id="g158"
           transform="translate(602.8516,353.1782)"><path
             d="m 0,0 -0.012,-3.898 -44.216,25.528 0.011,3.898 z"
             style="fill:#87b2c9;fill-opacity:1;fill-rule:nonzero;stroke:none"
             id="path160"
             inkscape:connector-curvature="0" /></g><g
           id="g162"
           transform="translate(577.9473,301.1006)"><path
             d="m 0,0 -0.007,-2.448 -33.204,19.17 0.007,2.448 z"
             style="fill:#87b2c9;fill-opacity:1;fill-rule:nonzero;stroke:none"
             id="path164"
             inkscape:connector-curvature="0" /></g><g
           id="g166"
           transform="translate(577.8555,268.8096)"><path
             d="m 0,0 -0.007,-2.448 -33.204,19.17 0.007,2.448 z"
             style="fill:#87b2c9;fill-opacity:1;fill-rule:nonzero;stroke:none"
             id="path168"
             inkscape:connector-curvature="0" /></g><g
           id="g170"
           transform="translate(577.8711,274.189)"><path
             d="m 0,0 -0.007,-2.448 -33.204,19.17 0.007,2.448 z"
             style="fill:#87b2c9;fill-opacity:1;fill-rule:nonzero;stroke:none"
             id="path172"
             inkscape:connector-curvature="0" /></g><g
           id="g174"
           transform="translate(577.8857,279.5757)"><path
             d="m 0,0 -0.007,-2.456 -33.204,19.171 0.008,2.455 z"
             style="fill:#87b2c9;fill-opacity:1;fill-rule:nonzero;stroke:none"
             id="path176"
             inkscape:connector-curvature="0" /></g><g
           id="g178"
           transform="translate(577.9014,284.9551)"><path
             d="m 0,0 -0.007,-2.448 -33.204,19.17 0.007,2.448 z"
             style="fill:#87b2c9;fill-opacity:1;fill-rule:nonzero;stroke:none"
             id="path180"
             inkscape:connector-curvature="0" /></g><g
           id="g182"
           transform="translate(577.917,290.3418)"><path
             d="m 0,0 -0.007,-2.456 -33.204,19.171 0.007,2.455 z"
             style="fill:#87b2c9;fill-opacity:1;fill-rule:nonzero;stroke:none"
             id="path184"
             inkscape:connector-curvature="0" /></g><g
           id="g186"
           transform="translate(577.9316,295.7212)"><path
             d="m 0,0 -0.007,-2.448 -33.204,19.171 0.007,2.447 z"
             style="fill:#87b2c9;fill-opacity:1;fill-rule:nonzero;stroke:none"
             id="path188"
             inkscape:connector-curvature="0" /></g><g
           id="g190"
           transform="translate(577.9629,306.4873)"><path
             d="m 0,0 -0.008,-2.456 -33.203,19.171 0.007,2.455 z"
             style="fill:#87b2c9;fill-opacity:1;fill-rule:nonzero;stroke:none"
             id="path192"
             inkscape:connector-curvature="0" /></g><g
           id="g194"
           transform="translate(577.9775,311.8667)"><path
             d="m 0,0 -0.007,-2.448 -33.204,19.171 0.007,2.447 z"
             style="fill:#87b2c9;fill-opacity:1;fill-rule:nonzero;stroke:none"
             id="path196"
             inkscape:connector-curvature="0" /></g><g
           id="g198"
           transform="translate(577.9932,317.2539)"><path
             d="m 0,0 -0.007,-2.456 -33.204,19.171 0.007,2.455 z"
             style="fill:#87b2c9;fill-opacity:1;fill-rule:nonzero;stroke:none"
             id="path200"
             inkscape:connector-curvature="0" /></g><g
           id="g202"
           transform="translate(578.0078,322.6333)"><path
             d="m 0,0 -0.007,-2.456 -33.204,19.17 0.008,2.456 z"
             style="fill:#87b2c9;fill-opacity:1;fill-rule:nonzero;stroke:none"
             id="path204"
             inkscape:connector-curvature="0" /></g><g
           id="g206"
           transform="translate(578.0234,328.0122)"><path
             d="m 0,0 -0.007,-2.448 -33.204,19.171 0.007,2.447 z"
             style="fill:#87b2c9;fill-opacity:1;fill-rule:nonzero;stroke:none"
             id="path208"
             inkscape:connector-curvature="0" /></g><g
           id="g210"
           transform="translate(578.0693,344.1582)"><path
             d="m 0,0 -0.007,-2.448 -33.204,19.17 0.007,2.448 z"
             style="fill:#87b2c9;fill-opacity:1;fill-rule:nonzero;stroke:none"
             id="path212"
             inkscape:connector-curvature="0" /></g><g
           id="g214"
           transform="translate(578.085,349.5449)"><path
             d="m 0,0 -0.008,-2.456 -33.203,19.171 0.007,2.455 z"
             style="fill:#87b2c9;fill-opacity:1;fill-rule:nonzero;stroke:none"
             id="path216"
             inkscape:connector-curvature="0" /></g><g
           id="g218"
           transform="translate(615.1885,328.123)"><path
             d="m 0,0 -0.007,-2.456 -33.211,19.174 0.007,2.456 z"
             style="fill:#87b2c9;fill-opacity:1;fill-rule:nonzero;stroke:none"
             id="path220"
             inkscape:connector-curvature="0" /></g><g
           id="g222"
           transform="translate(615.0967,295.832)"><path
             d="m 0,0 -0.007,-2.456 -33.21,19.174 0.007,2.456 z"
             style="fill:#87b2c9;fill-opacity:1;fill-rule:nonzero;stroke:none"
             id="path224"
             inkscape:connector-curvature="0" /></g><g
           id="g226"
           transform="translate(615.1123,301.2109)"><path
             d="m 0,0 -0.007,-2.456 -33.211,19.175 0.007,2.455 z"
             style="fill:#87b2c9;fill-opacity:1;fill-rule:nonzero;stroke:none"
             id="path228"
             inkscape:connector-curvature="0" /></g><g
           id="g230"
           transform="translate(615.0508,279.6787)"><path
             d="m 0,0 -0.007,-2.448 -33.21,19.174 0.007,2.448 z"
             style="fill:#87b2c9;fill-opacity:1;fill-rule:nonzero;stroke:none"
             id="path232"
             inkscape:connector-curvature="0" /></g><g
           id="g234"
           transform="translate(615.0361,274.2993)"><path
             d="m 0,0 -0.007,-2.448 -33.211,19.174 0.007,2.448 z"
             style="fill:#87b2c9;fill-opacity:1;fill-rule:nonzero;stroke:none"
             id="path236"
             inkscape:connector-curvature="0" /></g><g
           id="g238"
           transform="translate(615.0059,263.5332)"><path
             d="m 0,0 -0.008,-2.448 -33.21,19.174 0.007,2.448 z"
             style="fill:#87b2c9;fill-opacity:1;fill-rule:nonzero;stroke:none"
             id="path240"
             inkscape:connector-curvature="0" /></g><g
           id="g242"
           transform="translate(615.0205,268.9199)"><path
             d="m 0,0 -0.007,-2.456 -33.211,19.175 0.008,2.455 z"
             style="fill:#87b2c9;fill-opacity:1;fill-rule:nonzero;stroke:none"
             id="path244"
             inkscape:connector-curvature="0" /></g><g
           id="g246"
           transform="translate(615.0664,285.0654)"><path
             d="m 0,0 -0.007,-2.456 -33.211,19.175 0.007,2.455 z"
             style="fill:#87b2c9;fill-opacity:1;fill-rule:nonzero;stroke:none"
             id="path248"
             inkscape:connector-curvature="0" /></g><g
           id="g250"
           transform="translate(615.082,290.4448)"><path
             d="m 0,0 -0.007,-2.448 -33.211,19.174 0.007,2.448 z"
             style="fill:#87b2c9;fill-opacity:1;fill-rule:nonzero;stroke:none"
             id="path252"
             inkscape:connector-curvature="0" /></g><g
           id="g254"
           transform="translate(615.1279,306.5903)"><path
             d="m 0,0 -0.008,-2.448 -33.21,19.175 0.007,2.447 z"
             style="fill:#87b2c9;fill-opacity:1;fill-rule:nonzero;stroke:none"
             id="path256"
             inkscape:connector-curvature="0" /></g><g
           id="g258"
           transform="translate(615.1582,317.3564)"><path
             d="m 0,0 -0.007,-2.448 -33.211,19.175 0.007,2.447 z"
             style="fill:#87b2c9;fill-opacity:1;fill-rule:nonzero;stroke:none"
             id="path260"
             inkscape:connector-curvature="0" /></g><g
           id="g262"
           transform="translate(615.1426,311.9775)"><path
             d="m 0,0 -0.007,-2.456 -33.211,19.174 0.008,2.456 z"
             style="fill:#87b2c9;fill-opacity:1;fill-rule:nonzero;stroke:none"
             id="path264"
             inkscape:connector-curvature="0" /></g><g
           id="g266"
           transform="translate(615.1729,322.7358)"><path
             d="m 0,0 -0.007,-2.448 -33.21,19.175 0.007,2.447 z"
             style="fill:#87b2c9;fill-opacity:1;fill-rule:nonzero;stroke:none"
             id="path268"
             inkscape:connector-curvature="0" /></g><g
           id="g270"
           transform="translate(614.96,247.3877)"><path
             d="m 0,0 -0.007,-2.448 -33.211,19.174 0.007,2.448 z"
             style="fill:#87b2c9;fill-opacity:1;fill-rule:nonzero;stroke:none"
             id="path272"
             inkscape:connector-curvature="0" /></g><g
           id="g274"
           transform="translate(614.9746,252.7666)"><path
             d="m 0,0 -0.007,-2.448 -33.21,19.175 0.007,2.447 z"
             style="fill:#87b2c9;fill-opacity:1;fill-rule:nonzero;stroke:none"
             id="path276"
             inkscape:connector-curvature="0" /></g><g
           id="g278"
           transform="translate(614.9902,258.1538)"><path
             d="m 0,0 -0.007,-2.456 -33.211,19.174 0.007,2.456 z"
             style="fill:#87b2c9;fill-opacity:1;fill-rule:nonzero;stroke:none"
             id="path280"
             inkscape:connector-curvature="0" /></g><g
           id="g282"
           transform="translate(614.3408,357.979)"><path
             d="m 0,0 c -1.267,0.731 -2.414,0.8 -3.242,0.318 l -0.767,-0.445 c 0.828,0.481 1.976,0.413 3.242,-0.318 2.518,-1.454 4.553,-4.975 4.545,-7.868 -0.004,-1.437 -0.511,-2.449 -1.33,-2.924 l 0.767,0.445 c 0.818,0.476 1.326,1.487 1.33,2.924 C 4.554,-4.975 2.518,-1.454 0,0"
             style="fill:#fe3551;fill-opacity:1;fill-rule:nonzero;stroke:none"
             id="path284"
             inkscape:connector-curvature="0" /></g><g
           id="g286"
           transform="translate(613.5742,357.5337)"><path
             d="m 0,0 c 2.518,-1.454 4.553,-4.975 4.545,-7.868 -0.008,-2.893 -2.057,-4.06 -4.574,-2.607 -2.518,1.454 -4.55,4.977 -4.542,7.87 C -4.562,0.288 -2.518,1.454 0,0"
             style="fill:#fe7386;fill-opacity:1;fill-rule:nonzero;stroke:none"
             id="path288"
             inkscape:connector-curvature="0" /></g><g
           id="g290"
           transform="translate(684.4316,267.3701)"><path
             d="m 0,0 -0.403,-142.125 -87.451,50.489 0.403,142.126 z"
             style="fill:#ffffff;fill-opacity:1;fill-rule:nonzero;stroke:none"
             id="path292"
             inkscape:connector-curvature="0" /></g><g
           id="g294"
           transform="translate(638.2803,259.1118)"><path
             d="m 0,0 -0.007,-2.456 -33.204,19.171 0.007,2.455 z"
             style="fill:#87b2c9;fill-opacity:1;fill-rule:nonzero;stroke:none"
             id="path296"
             inkscape:connector-curvature="0" /></g><g
           id="g298"
           transform="translate(638.2041,232.2002)"><path
             d="m 0,0 -0.007,-2.456 -33.204,19.171 0.007,2.455 z"
             style="fill:#87b2c9;fill-opacity:1;fill-rule:nonzero;stroke:none"
             id="path300"
             inkscape:connector-curvature="0" /></g><g
           id="g302"
           transform="translate(638.1885,226.8125)"><path
             d="m 0,0 -0.007,-2.447 -33.204,19.17 0.007,2.448 z"
             style="fill:#87b2c9;fill-opacity:1;fill-rule:nonzero;stroke:none"
             id="path304"
             inkscape:connector-curvature="0" /></g><g
           id="g306"
           transform="translate(676.0771,156.4219)"><path
             d="m 0,0 -0.007,-2.447 -71.229,41.124 0.007,2.448 z"
             style="fill:#87b2c9;fill-opacity:1;fill-rule:nonzero;stroke:none"
             id="path308"
             inkscape:connector-curvature="0" /></g><g
           id="g310"
           transform="translate(676.0918,161.8018)"><path
             d="m 0,0 -0.007,-2.448 -71.229,41.124 0.007,2.448 z"
             style="fill:#87b2c9;fill-opacity:1;fill-rule:nonzero;stroke:none"
             id="path312"
             inkscape:connector-curvature="0" /></g><g
           id="g314"
           transform="translate(676.1074,167.1885)"><path
             d="m 0,0 -0.007,-2.456 -71.229,41.125 0.007,2.455 z"
             style="fill:#87b2c9;fill-opacity:1;fill-rule:nonzero;stroke:none"
             id="path316"
             inkscape:connector-curvature="0" /></g><g
           id="g318"
           transform="translate(676.123,172.5674)"><path
             d="m 0,0 -0.008,-2.447 -71.229,41.124 0.008,2.448 z"
             style="fill:#87b2c9;fill-opacity:1;fill-rule:nonzero;stroke:none"
             id="path320"
             inkscape:connector-curvature="0" /></g><g
           id="g322"
           transform="translate(676.1377,177.9551)"><path
             d="m 0,0 -0.007,-2.456 -71.229,41.124 0.007,2.456 z"
             style="fill:#87b2c9;fill-opacity:1;fill-rule:nonzero;stroke:none"
             id="path324"
             inkscape:connector-curvature="0" /></g><g
           id="g326"
           transform="translate(676.1533,183.334)"><path
             d="m 0,0 -0.007,-2.456 -71.229,41.125 0.007,2.455 z"
             style="fill:#87b2c9;fill-opacity:1;fill-rule:nonzero;stroke:none"
             id="path328"
             inkscape:connector-curvature="0" /></g><g
           id="g330"
           transform="translate(676.168,188.7129)"><path
             d="m 0,0 -0.007,-2.447 -71.229,41.124 0.007,2.448 z"
             style="fill:#87b2c9;fill-opacity:1;fill-rule:nonzero;stroke:none"
             id="path332"
             inkscape:connector-curvature="0" /></g><g
           id="g334"
           transform="translate(675.1973,237.7979)"><path
             d="m 0,0 -0.129,-45.514 -33.023,19.067 0.129,45.513 z"
             style="fill:#87b2c9;fill-opacity:1;fill-rule:nonzero;stroke:none"
             id="path336"
             inkscape:connector-curvature="0" /></g><g
           id="g338"
           transform="translate(638.1582,216.0547)"><path
             d="m 0,0 -0.007,-2.456 -33.204,19.17 0.007,2.456 z"
             style="fill:#87b2c9;fill-opacity:1;fill-rule:nonzero;stroke:none"
             id="path340"
             inkscape:connector-curvature="0" /></g><g
           id="g342"
           transform="translate(638.1729,221.4336)"><path
             d="m 0,0 -0.007,-2.448 -33.203,19.171 0.007,2.447 z"
             style="fill:#87b2c9;fill-opacity:1;fill-rule:nonzero;stroke:none"
             id="path344"
             inkscape:connector-curvature="0" /></g><g
           id="g346"
           transform="translate(638.2187,237.5791)"><path
             d="m 0,0 -0.007,-2.448 -33.204,19.171 0.008,2.447 z"
             style="fill:#87b2c9;fill-opacity:1;fill-rule:nonzero;stroke:none"
             id="path348"
             inkscape:connector-curvature="0" /></g><g
           id="g350"
           transform="translate(638.25,248.3457)"><path
             d="m 0,0 -0.008,-2.448 -33.203,19.17 0.007,2.448 z"
             style="fill:#87b2c9;fill-opacity:1;fill-rule:nonzero;stroke:none"
             id="path352"
             inkscape:connector-curvature="0" /></g><g
           id="g354"
           transform="translate(638.2344,242.9658)"><path
             d="m 0,0 -0.007,-2.455 -33.204,19.17 0.007,2.455 z"
             style="fill:#87b2c9;fill-opacity:1;fill-rule:nonzero;stroke:none"
             id="path356"
             inkscape:connector-curvature="0" /></g><g
           id="g358"
           transform="translate(638.2646,253.7246)"><path
             d="m 0,0 -0.007,-2.448 -33.204,19.171 0.007,2.447 z"
             style="fill:#87b2c9;fill-opacity:1;fill-rule:nonzero;stroke:none"
             id="path360"
             inkscape:connector-curvature="0" /></g><g
           id="g362"
           transform="translate(663.0469,262.7446)"><path
             d="m 0,0 -0.011,-3.898 -44.223,25.532 0.011,3.898 z"
             style="fill:#87b2c9;fill-opacity:1;fill-rule:nonzero;stroke:none"
             id="path364"
             inkscape:connector-curvature="0" /></g><g
           id="g366"
           transform="translate(608.1895,305.019)"><path
             d="M 0,0 C -1.268,0.731 -2.415,0.799 -3.243,0.318 L -4.01,-0.127 c 0.828,0.481 1.976,0.413 3.242,-0.319 2.519,-1.453 4.554,-4.974 4.545,-7.867 -0.004,-1.438 -0.511,-2.449 -1.33,-2.925 l 0.767,0.446 c 0.818,0.476 1.326,1.487 1.33,2.924 C 4.553,-4.975 2.518,-1.454 0,0"
             style="fill:#0051b0;fill-opacity:1;fill-rule:nonzero;stroke:none"
             id="path368"
             inkscape:connector-curvature="0" /></g><g
           id="g370"
           transform="translate(607.4219,304.5732)"><path
             d="m 0,0 c 2.519,-1.454 4.554,-4.975 4.545,-7.868 -0.008,-2.893 -2.057,-4.06 -4.574,-2.607 -2.518,1.454 -4.55,4.977 -4.541,7.87 C -4.562,0.288 -2.518,1.454 0,0"
             style="fill:#0875f6;fill-opacity:1;fill-rule:nonzero;stroke:none"
             id="path372"
             inkscape:connector-curvature="0" /></g><g
           id="g374"
           transform="translate(671.624,267.5962)"><path
             d="M 0,0 C -1.268,0.731 -2.415,0.8 -3.243,0.318 L -4.01,-0.127 c 0.828,0.481 1.976,0.413 3.242,-0.318 2.519,-1.454 4.554,-4.975 4.545,-7.868 -0.004,-1.437 -0.511,-2.449 -1.33,-2.924 l 0.767,0.445 c 0.818,0.476 1.326,1.487 1.33,2.924 C 4.553,-4.975 2.518,-1.454 0,0"
             style="fill:#0051b0;fill-opacity:1;fill-rule:nonzero;stroke:none"
             id="path376"
             inkscape:connector-curvature="0" /></g><g
           id="g378"
           transform="translate(670.8564,267.1509)"><path
             d="m 0,0 c 2.519,-1.454 4.554,-4.975 4.545,-7.868 -0.008,-2.893 -2.057,-4.06 -4.574,-2.607 -2.518,1.454 -4.55,4.977 -4.541,7.87 C -4.562,0.288 -2.518,1.454 0,0"
             style="fill:#0875f6;fill-opacity:1;fill-rule:nonzero;stroke:none"
             id="path380"
             inkscape:connector-curvature="0" /></g><g
           id="g382"
           transform="translate(632.1709,85.2598)"><path
             d="m 0,0 c -0.299,-0.174 -0.447,-0.404 -0.448,-0.631 l -0.005,-1.705 c 0.001,0.227 0.149,0.456 0.448,0.63 L 11.878,5.2 11.883,6.905 Z"
             style="fill:#0051b0;fill-opacity:1;fill-rule:nonzero;stroke:none"
             id="path384"
             inkscape:connector-curvature="0" /></g><g
           id="g386"
           transform="translate(605.0547,80.2002)"><path
             d="m 0,0 c -0.306,0.177 -0.458,0.411 -0.457,0.642 l -0.005,-1.705 c -0.001,-0.231 0.151,-0.465 0.457,-0.642 l 9.235,-5.332 0.005,1.705 z"
             style="fill:#0051b0;fill-opacity:1;fill-rule:nonzero;stroke:none"
             id="path388"
             inkscape:connector-curvature="0" /></g><g
           id="g390"
           transform="translate(648.3418,103.9912)"><path
             d="m 0,0 -0.005,-1.705 c -0.004,-1.191 -0.787,-2.38 -2.352,-3.29 -1.678,-0.976 -3.926,-1.431 -6.136,-1.361 -1.531,0.046 -3.028,-0.158 -4.377,-0.547 -0.566,-0.159 -0.878,-0.48 -0.879,-0.806 l 0.005,1.705 c 10e-4,0.326 0.312,0.648 0.879,0.806 1.348,0.389 2.845,0.594 4.377,0.548 2.21,-0.07 4.457,0.384 6.135,1.36 1.566,0.91 2.349,2.1 2.353,3.29"
             style="fill:#0051b0;fill-opacity:1;fill-rule:nonzero;stroke:none"
             id="path392"
             inkscape:connector-curvature="0" /></g><g
           id="g394"
           transform="translate(602.4141,96.4453)"><path
             d="m 0,0 -0.005,-1.706 c 0.001,0.223 -0.14,0.441 -0.419,0.602 -0.073,0.042 -0.157,0.082 -0.251,0.115 -1.581,0.583 -3.413,0.902 -5.297,0.844 -2.21,-0.069 -4.462,0.386 -6.158,1.366 -1.594,0.92 -2.391,2.128 -2.388,3.334 l 0.005,1.706 c -0.003,-1.207 0.794,-2.415 2.388,-3.335 1.696,-0.98 3.948,-1.435 6.158,-1.365 C -4.083,1.619 -2.251,1.299 -0.67,0.717 -0.576,0.683 -0.492,0.645 -0.419,0.602 -0.14,0.44 0.001,0.222 0,0"
             style="fill:#0051b0;fill-opacity:1;fill-rule:nonzero;stroke:none"
             id="path396"
             inkscape:connector-curvature="0" /></g><g
           id="g398"
           transform="translate(617.04,90.5264)"><path
             d="M 0,0 C -0.407,0.234 -0.866,0.451 -1.377,0.644 -3.965,1.615 -7.4,1.623 -9.99,0.667 c -2.519,-0.936 -3.781,-2.444 -3.786,-3.956 v -0.112 c -0.006,-1.245 -0.558,-2.454 -1.71,-3.466 -0.51,-0.451 -1.642,-0.489 -2.31,-0.105 l -9.216,5.322 -0.005,-1.705 9.216,-5.322 c 0.668,-0.386 1.8,-0.346 2.31,0.105 1.154,1.013 1.707,2.225 1.711,3.473 v 0.113 c 0.009,1.508 1.27,3.014 3.785,3.948 2.59,0.956 6.025,0.948 8.613,-0.024 0.511,-0.192 0.97,-0.409 1.377,-0.643 1.596,-0.922 2.393,-2.131 2.389,-3.338 l 0.005,1.705 C 2.393,-2.131 1.596,-0.921 0,0"
             style="fill:#0051b0;fill-opacity:1;fill-rule:nonzero;stroke:none"
             id="path400"
             inkscape:connector-curvature="0" /></g><g
           id="g402"
           transform="translate(628.624,81.5967)"><path
             d="m 0,0 c -0.071,0.068 -0.154,0.129 -0.247,0.183 -0.592,0.34 -1.557,0.371 -2.171,0.013 l -11.916,-6.925 -0.005,-1.705 11.916,6.925 c 0.614,0.357 1.58,0.327 2.171,-0.014 0.093,-0.053 0.176,-0.115 0.247,-0.182 0.842,-0.823 1.332,-1.757 1.329,-2.72 L 1.329,-2.72 C 1.332,-1.757 0.842,-0.823 0,0"
             style="fill:#0051b0;fill-opacity:1;fill-rule:nonzero;stroke:none"
             id="path404"
             inkscape:connector-curvature="0" /></g><g
           id="g406"
           transform="translate(646.1172,78.3965)"><path
             d="m 0,0 -0.005,-1.705 c -0.003,-0.874 -0.424,-1.746 -1.266,-2.495 -2.901,-2.599 -8.957,-2.861 -12.537,-0.794 -1.588,0.917 -2.382,2.123 -2.379,3.327 l 0.004,1.705 c -0.004,-1.204 0.792,-2.41 2.38,-3.327 3.58,-2.066 9.636,-1.805 12.537,0.794 C -0.424,-1.746 -0.003,-0.873 0,0"
             style="fill:#0051b0;fill-opacity:1;fill-rule:nonzero;stroke:none"
             id="path408"
             inkscape:connector-curvature="0" /></g><g
           id="g410"
           transform="translate(645.959,107.3213)"><path
             d="m 0,0 c 3.164,-1.827 3.179,-4.79 0.03,-6.62 -1.678,-0.976 -3.926,-1.43 -6.135,-1.36 -1.532,0.045 -3.029,-0.159 -4.377,-0.548 -0.951,-0.266 -1.187,-0.992 -0.432,-1.427 l 9.009,-5.201 -11.883,-6.906 c -0.591,-0.343 -0.593,-0.907 -0.029,-1.232 0.087,-0.051 0.188,-0.096 0.303,-0.133 1.647,-0.544 3.559,-0.802 5.509,-0.798 2.082,0.006 4.17,-0.452 5.764,-1.372 0.424,-0.245 0.813,-0.523 1.158,-0.834 1.659,-1.503 1.657,-3.493 -0.024,-4.989 -2.902,-2.599 -8.957,-2.86 -12.538,-0.794 -1.689,0.976 -2.482,2.278 -2.369,3.559 0.08,1.037 -0.418,2.048 -1.321,2.93 -0.071,0.069 -0.154,0.129 -0.247,0.182 -0.592,0.342 -1.557,0.372 -2.171,0.015 l -11.916,-6.925 -9.235,5.332 c -0.655,0.378 -0.606,1.018 0.138,1.327 1.674,0.686 3.682,1.071 5.745,1.01 2.211,-0.07 4.459,0.386 6.144,1.365 3.146,1.828 3.127,4.794 -0.042,6.624 -0.407,0.234 -0.866,0.451 -1.377,0.644 -2.588,0.971 -6.023,0.979 -8.613,0.023 -2.545,-0.944 -3.808,-2.476 -3.785,-4.002 0.013,-1.268 -0.539,-2.503 -1.711,-3.532 -0.51,-0.451 -1.642,-0.489 -2.31,-0.105 l -9.216,5.322 11.937,6.936 c 0.592,0.344 0.596,0.908 0.03,1.235 -0.073,0.043 -0.157,0.081 -0.251,0.115 -1.581,0.582 -3.413,0.902 -5.297,0.844 -2.21,-0.07 -4.462,0.385 -6.158,1.365 -3.573,2.062 -3.14,5.571 1.33,7.263 2.584,0.976 6.019,0.984 8.62,0.028 0.537,-0.198 1.019,-0.423 1.444,-0.668 1.592,-0.92 2.39,-2.129 2.386,-3.334 -0.006,-1.157 0.473,-2.286 1.463,-3.258 0.064,-0.062 0.138,-0.118 0.222,-0.166 0.567,-0.327 1.54,-0.327 2.136,0.02 l 11.902,6.917 8.956,-5.171 c 0.754,-0.436 2.038,-0.301 2.468,0.258 0.661,0.84 0.974,1.782 0.963,2.734 -0.022,1.527 1.234,3.054 3.785,4.002 2.591,0.957 6.025,0.949 8.607,-0.027 C -0.872,0.454 -0.41,0.237 0,0"
             style="fill:#0875f6;fill-opacity:1;fill-rule:nonzero;stroke:none"
             id="path412"
             inkscape:connector-curvature="0" /></g><g
           id="g414"
           transform="translate(583.1973,122.7422)"><path
             d="m 0,0 -0.005,-1.705 c 0.001,0.225 -0.141,0.447 -0.422,0.608 -0.085,0.049 -0.181,0.093 -0.292,0.129 -1.66,0.544 -3.565,0.798 -5.515,0.794 -2.077,-0.006 -4.16,0.449 -5.748,1.367 -0.429,0.247 -0.822,0.529 -1.167,0.842 -0.836,0.751 -1.25,1.624 -1.248,2.495 l 0.004,1.705 c -0.002,-0.871 0.413,-1.743 1.247,-2.494 0.347,-0.314 0.74,-0.595 1.168,-0.843 1.589,-0.917 3.672,-1.373 5.749,-1.367 1.95,0.004 3.855,-0.25 5.515,-0.794 0.11,-0.036 0.207,-0.08 0.292,-0.129 C -0.142,0.447 0.001,0.225 0,0"
             style="fill:#fe3551;fill-opacity:1;fill-rule:nonzero;stroke:none"
             id="path416"
             inkscape:connector-curvature="0" /></g><g
           id="g418"
           transform="translate(610.3242,126.5303)"><path
             d="m 0,0 -0.005,-1.705 c -0.001,-0.263 -0.202,-0.521 -0.602,-0.684 -1.674,-0.686 -3.675,-1.075 -5.746,-1.009 -2.204,0.065 -4.451,-0.39 -6.129,-1.366 -1.567,-0.91 -2.352,-2.1 -2.355,-3.292 l 0.005,1.705 c 0.003,1.192 0.788,2.382 2.354,3.292 1.679,0.976 3.926,1.431 6.13,1.366 2.071,-0.066 4.072,0.324 5.745,1.009 C -0.202,-0.521 -0.001,-0.263 0,0"
             style="fill:#fe3551;fill-opacity:1;fill-rule:nonzero;stroke:none"
             id="path420"
             inkscape:connector-curvature="0" /></g><g
           id="g422"
           transform="translate(612.957,111.5576)"><path
             d="m 0,0 c -0.301,-0.175 -0.451,-0.405 -0.451,-0.633 l -0.005,-1.705 c 0.001,0.228 0.15,0.458 0.451,0.633 l 11.937,6.936 0.005,1.706 z"
             style="fill:#fe3551;fill-opacity:1;fill-rule:nonzero;stroke:none"
             id="path424"
             inkscape:connector-curvature="0" /></g><g
           id="g426"
           transform="translate(579.877,110.0039)"><path
             d="M 0,0 -9.009,5.201 -9.014,3.496 -0.005,-1.705 C 0.3,-1.881 0.441,-2.104 0.441,-2.323 l 0.005,1.705 C 0.446,-0.397 0.305,-0.176 0,0"
             style="fill:#fe3551;fill-opacity:1;fill-rule:nonzero;stroke:none"
             id="path428"
             inkscape:connector-curvature="0" /></g><g
           id="g430"
           transform="translate(586.168,106.3721)"><path
             d="m 0,0 c -0.755,0.436 -2.025,0.301 -2.469,-0.259 -0.638,-0.824 -0.947,-1.738 -0.95,-2.668 l -0.005,-1.705 c 0.003,0.93 0.312,1.843 0.95,2.668 0.444,0.56 1.714,0.694 2.469,0.259 l 8.962,-5.175 0.005,1.705 z"
             style="fill:#fe3551;fill-opacity:1;fill-rule:nonzero;stroke:none"
             id="path432"
             inkscape:connector-curvature="0" /></g><g
           id="g434"
           transform="translate(609.3896,107.9688)"><path
             d="m 0,0 c -0.063,0.062 -0.138,0.117 -0.222,0.165 -0.567,0.327 -1.54,0.327 -2.135,-0.019 l -11.903,-6.917 -0.005,-1.706 11.903,6.917 c 0.596,0.347 1.568,0.347 2.136,0.02 0.083,-0.049 0.158,-0.104 0.221,-0.166 0.984,-0.968 1.463,-2.098 1.463,-3.258 l 0.005,1.705 C 1.463,-2.098 0.984,-0.968 0,0"
             style="fill:#fe3551;fill-opacity:1;fill-rule:nonzero;stroke:none"
             id="path436"
             inkscape:connector-curvature="0" /></g><g
           id="g438"
           transform="translate(627.0225,104.6709)"><path
             d="m 0,0 -0.005,-1.706 c -0.004,-1.499 -1.245,-2.995 -3.726,-3.932 -2.571,-0.974 -6.012,-0.986 -8.607,-0.026 -0.546,0.2 -1.032,0.427 -1.461,0.675 -1.591,0.918 -2.38,2.121 -2.376,3.323 l 0.005,1.705 c -0.004,-1.202 0.785,-2.405 2.376,-3.323 0.429,-0.247 0.915,-0.475 1.461,-0.675 2.595,-0.96 6.036,-0.948 8.606,0.027 C -1.245,-2.996 -0.005,-1.5 0,0"
             style="fill:#fe3551;fill-opacity:1;fill-rule:nonzero;stroke:none"
             id="path440"
             inkscape:connector-curvature="0" /></g><g
           id="g442"
           transform="translate(582.75,103.333)"><path
             d="m 0,0 -0.005,-1.705 c -0.004,-1.512 -1.267,-3.021 -3.785,-3.955 -2.598,-0.961 -6.032,-0.953 -8.62,0.026 -0.513,0.194 -0.972,0.409 -1.38,0.646 -1.593,0.919 -2.389,2.125 -2.385,3.33 l 0.005,1.705 c -0.004,-1.205 0.792,-2.411 2.385,-3.33 0.408,-0.236 0.867,-0.452 1.38,-0.646 2.588,-0.979 6.022,-0.986 8.62,-0.026 C -1.268,-3.021 -0.004,-1.511 0,0"
             style="fill:#fe3551;fill-opacity:1;fill-rule:nonzero;stroke:none"
             id="path444"
             inkscape:connector-curvature="0" /></g><g
           id="g446"
           transform="translate(624.8936,118.4941)"><path
             d="m 0,0 -11.937,-6.937 c -0.591,-0.343 -0.6,-0.905 -0.032,-1.233 0.074,-0.043 0.159,-0.082 0.253,-0.116 1.574,-0.578 3.42,-0.898 5.304,-0.84 2.209,0.069 4.462,-0.386 6.151,-1.361 3.579,-2.067 3.14,-5.579 -1.337,-7.268 -2.57,-0.975 -6.011,-0.987 -8.606,-0.027 -0.546,0.2 -1.032,0.428 -1.461,0.675 -1.591,0.918 -2.38,2.121 -2.376,3.323 0,1.161 -0.479,2.29 -1.463,3.258 -0.063,0.062 -0.138,0.118 -0.222,0.166 -0.567,0.327 -1.54,0.327 -2.135,-0.019 l -11.903,-6.918 -8.962,5.175 c -0.754,0.435 -2.025,0.301 -2.468,-0.259 -0.655,-0.844 -0.962,-1.781 -0.95,-2.733 0.022,-1.528 -1.241,-3.058 -3.785,-4.002 -2.597,-0.96 -6.032,-0.953 -8.62,0.026 -0.513,0.194 -0.972,0.41 -1.38,0.646 -3.166,1.828 -3.183,4.788 -0.032,6.619 1.679,0.975 3.926,1.43 6.136,1.368 1.524,-0.05 3.028,0.15 4.377,0.54 0.943,0.271 1.186,0.991 0.431,1.427 l -9.008,5.201 11.882,6.905 c 0.594,0.346 0.588,0.915 0.025,1.24 -0.085,0.049 -0.182,0.093 -0.292,0.129 -1.66,0.544 -3.566,0.798 -5.516,0.794 -2.076,-0.006 -4.159,0.45 -5.748,1.367 -0.429,0.248 -0.821,0.529 -1.168,0.843 -1.672,1.503 -1.656,3.493 0.013,4.99 2.907,2.594 8.97,2.86 12.543,0.797 1.696,-0.979 2.488,-2.282 2.376,-3.562 -0.094,-1.037 0.411,-2.052 1.314,-2.935 0.071,-0.067 0.154,-0.128 0.245,-0.18 0.588,-0.34 1.559,-0.373 2.173,-0.016 l 11.916,6.925 9.236,-5.332 c 0.654,-0.378 0.605,-1.019 -0.146,-1.323 -1.674,-0.686 -3.675,-1.076 -5.745,-1.01 -2.204,0.065 -4.451,-0.39 -6.13,-1.365 -3.148,-1.83 -3.14,-4.791 0.025,-6.617 0.41,-0.236 0.872,-0.454 1.387,-0.647 2.588,-0.98 6.024,-0.987 8.614,-0.031 2.544,0.945 3.807,2.475 3.785,4.003 -0.014,1.267 0.532,2.505 1.711,3.531 0.509,0.451 1.641,0.49 2.302,0.108 z"
             style="fill:#fe7386;fill-opacity:1;fill-rule:nonzero;stroke:none"
             id="path448"
             inkscape:connector-curvature="0" /></g><g
           id="g450"
           transform="translate(533.0312,82.2793)"><path
             d="m 0,0 -0.005,-1.705 c 0.004,1.297 -0.905,2.475 -2.377,3.323 -1.615,0.933 -2.724,2.028 -3.14,3.228 -0.021,0.056 -0.031,0.113 -0.031,0.168 l 0.005,1.705 c 0,-0.055 0.01,-0.111 0.03,-0.167 C -5.102,5.351 -3.992,4.257 -2.377,3.324 -0.905,2.475 0.004,1.298 0,0"
             style="fill:#0051b0;fill-opacity:1;fill-rule:nonzero;stroke:none"
             id="path452"
             inkscape:connector-curvature="0" /></g><g
           id="g454"
           transform="translate(522.3555,88.9922)"><path
             d="m 0,0 -0.005,-1.705 c 0,-0.046 -0.007,-0.092 -0.021,-0.139 -0.339,-1.172 -1.279,-2.266 -2.812,-3.065 -1.639,-0.86 -2.671,-2.101 -2.656,-3.486 l 0.005,1.706 c -0.015,1.384 1.016,2.626 2.656,3.486 1.533,0.798 2.473,1.892 2.812,3.064 C -0.007,-0.092 0,-0.045 0,0"
             style="fill:#0051b0;fill-opacity:1;fill-rule:nonzero;stroke:none"
             id="path456"
             inkscape:connector-curvature="0" /></g><g
           id="g458"
           transform="translate(562.7354,77.5977)"><path
             d="m 0,0 -0.004,-1.705 c -0.001,-0.326 -0.059,-0.659 -0.181,-0.997 -0.623,-1.747 -3.031,-3.162 -6.038,-3.547 -2.942,-0.377 -5.705,0.181 -7.568,1.256 -1.464,0.846 -3.156,1.445 -5.029,1.727 -0.933,0.14 -1.835,-0.3 -1.832,-0.863 l 0.005,1.705 c -0.003,0.564 0.899,1.003 1.832,0.864 1.873,-0.283 3.565,-0.882 5.029,-1.728 1.863,-1.075 4.626,-1.633 7.568,-1.256 3.007,0.386 5.415,1.801 6.038,3.547 C -0.059,-0.659 0,-0.325 0,0"
             style="fill:#0051b0;fill-opacity:1;fill-rule:nonzero;stroke:none"
             id="path460"
             inkscape:connector-curvature="0" /></g><g
           id="g462"
           transform="translate(487.3262,75.9395)"><path
             d="M 0,0 0.005,1.705 C 0.004,1.364 0.066,1.015 0.197,0.661 0.521,-0.221 1.3,-1.019 2.379,-1.642 c 1.059,-0.61 2.405,-1.053 3.895,-1.245 2.958,-0.377 5.724,0.186 7.569,1.273 1.373,0.799 3.027,1.396 4.849,1.689 0.528,0.086 1.048,-0.015 1.405,-0.221 0.28,-0.163 0.459,-0.389 0.457,-0.639 L 20.55,-2.49 c 10e-4,0.25 -0.177,0.476 -0.458,0.638 -0.357,0.206 -0.877,0.308 -1.405,0.222 C 16.865,-1.924 15.211,-2.521 13.838,-3.319 11.993,-4.406 9.228,-4.97 6.27,-4.592 4.779,-4.4 3.433,-3.958 2.374,-3.347 1.295,-2.724 0.517,-1.926 0.192,-1.044 0.062,-0.69 -0.001,-0.341 0,0"
             style="fill:#0051b0;fill-opacity:1;fill-rule:nonzero;stroke:none"
             id="path464"
             inkscape:connector-curvature="0" /></g><g
           id="g466"
           transform="translate(529.5088,65.3887)"><path
             d="m 0,0 c -0.866,0.003 -1.516,-0.412 -1.518,-0.881 l -0.004,-1.705 c 0.001,0.468 0.651,0.884 1.517,0.88 H 12.629 L 12.634,0 Z"
             style="fill:#0051b0;fill-opacity:1;fill-rule:nonzero;stroke:none"
             id="path468"
             inkscape:connector-curvature="0" /></g><g
           id="g470"
           transform="translate(521.7119,65.1357)"><path
             d="M 0,0 C -0.271,0.155 -0.643,0.254 -1.069,0.253 L -13.77,0.252 -13.774,-1.453 h 12.7 c 0.427,0.002 0.799,-0.097 1.069,-0.252 C 0.28,-1.87 0.45,-2.099 0.45,-2.342 l 0.004,1.705 C 0.455,-0.394 0.285,-0.165 0,0"
             style="fill:#0051b0;fill-opacity:1;fill-rule:nonzero;stroke:none"
             id="path472"
             inkscape:connector-curvature="0" /></g><g
           id="g474"
           transform="translate(533.1582,58.5156)"><path
             d="m 0,0 -0.005,-1.706 c -0.001,-0.339 -0.064,-0.687 -0.196,-1.038 -0.643,-1.743 -3.084,-3.139 -6.098,-3.513 -2.911,-0.356 -5.634,0.198 -7.478,1.264 -1.469,0.847 -2.382,2.019 -2.393,3.312 l 0.005,1.705 c 0.011,-1.293 0.924,-2.464 2.393,-3.312 1.844,-1.066 4.567,-1.62 7.478,-1.264 3.013,0.374 5.455,1.77 6.098,3.513 C -0.064,-0.687 -0.001,-0.34 0,0"
             style="fill:#0051b0;fill-opacity:1;fill-rule:nonzero;stroke:none"
             id="path476"
             inkscape:connector-curvature="0" /></g><g
           id="g478"
           transform="translate(560.3506,80.9316)"><path
             d="m 0,0 c 1.846,-1.066 2.811,-2.643 2.205,-4.331 -0.623,-1.746 -3.031,-3.161 -6.038,-3.547 -2.942,-0.377 -5.705,0.181 -7.568,1.256 -1.464,0.846 -3.157,1.445 -5.03,1.728 -0.932,0.139 -1.835,-0.3 -1.832,-0.864 l 0.055,-9.785 h -12.634 c -1.058,0.003 -1.794,-0.617 -1.418,-1.195 0.557,-0.852 1.461,-1.636 2.613,-2.301 1.933,-1.116 2.898,-2.711 2.258,-4.416 -0.642,-1.743 -3.085,-3.139 -6.097,-3.513 -2.911,-0.356 -5.634,0.198 -7.479,1.264 -1.469,0.848 -2.382,2.019 -2.392,3.312 -10e-4,1.385 1.017,2.626 2.663,3.483 1.141,0.594 1.942,1.353 2.423,2.181 0.206,0.346 0.031,0.702 -0.368,0.932 -0.27,0.155 -0.642,0.254 -1.069,0.252 h -12.7 l -0.063,9.767 c 0.002,0.25 -0.176,0.476 -0.457,0.638 -0.356,0.206 -0.877,0.308 -1.404,0.222 -1.822,-0.293 -3.477,-0.891 -4.85,-1.689 -1.844,-1.087 -4.61,-1.65 -7.568,-1.273 -1.49,0.192 -2.837,0.635 -3.896,1.245 -1.079,0.623 -1.857,1.421 -2.181,2.303 -1.122,3.03 2.823,5.702 7.862,5.698 2.239,0.004 4.265,-0.523 5.736,-1.374 0.1,-0.056 0.197,-0.115 0.291,-0.176 0.104,-0.067 0.21,-0.132 0.321,-0.196 1.152,-0.665 2.611,-1.109 4.18,-1.342 0.986,-0.146 1.943,0.262 1.939,0.848 l -0.048,9.79 h 13.02 c 0.426,0 0.817,-0.102 1.096,-0.263 0.323,-0.186 0.497,-0.451 0.413,-0.732 -0.338,-1.172 -1.278,-2.267 -2.811,-3.065 -1.64,-0.86 -2.671,-2.101 -2.656,-3.486 0.005,-1.293 0.915,-2.463 2.381,-3.31 1.845,-1.065 4.571,-1.619 7.483,-1.262 3.014,0.366 5.448,1.765 6.104,3.509 0.638,1.699 -0.324,3.292 -2.18,4.364 -1.616,0.932 -2.725,2.026 -3.141,3.227 -0.189,0.533 0.56,1.022 1.498,1.018 h 12.993 l 0.056,-9.809 c 10e-4,-0.248 0.18,-0.472 0.46,-0.634 0.339,-0.197 0.829,-0.299 1.336,-0.234 1.822,0.239 3.51,0.764 4.764,1.577 1.478,0.954 3.619,1.554 6.001,1.554 C -3.493,1.372 -1.469,0.848 0,0"
             style="fill:#0875f6;fill-opacity:1;fill-rule:nonzero;stroke:none"
             id="path480"
             inkscape:connector-curvature="0" /></g><g
           id="g482"
           transform="translate(645.6113,115.9326)"><path
             d="m 0,0 -0.001,-0.443 c -0.003,-0.947 -0.625,-1.891 -1.867,-2.613 -2.502,-1.454 -6.569,-1.456 -9.086,-0.002 -1.268,0.732 -1.9,1.692 -1.898,2.651 l 10e-4,0.443 c -0.002,-0.959 0.63,-1.919 1.898,-2.65 2.517,-1.454 6.585,-1.452 9.086,0.002 C -0.625,-1.891 -0.003,-0.946 0,0"
             style="fill:#fe3551;fill-opacity:1;fill-rule:nonzero;stroke:none"
             id="path484"
             inkscape:connector-curvature="0" /></g><g
           id="g486"
           transform="translate(643.7148,118.5811)"><path
             d="m 0,0 c 2.518,-1.453 2.53,-3.808 0.029,-5.261 -2.501,-1.454 -6.568,-1.456 -9.086,-0.002 -2.517,1.453 -2.531,3.812 -0.03,5.265 C -6.585,1.456 -2.518,1.454 0,0"
             style="fill:#fe7386;fill-opacity:1;fill-rule:nonzero;stroke:none"
             id="path488"
             inkscape:connector-curvature="0" /></g><g
           id="g490"
           transform="translate(639.2041,113.3164)"><path
             d="m 0,0 c -1.505,0 -2.964,0.345 -4.002,0.943 -0.859,0.496 -1.352,1.117 -1.353,1.702 -10e-4,0.579 0.482,1.191 1.326,1.681 1.03,0.599 2.483,0.943 3.987,0.943 1.507,0 2.968,-0.345 4.009,-0.946 C 4.825,3.827 5.318,3.208 5.319,2.624 5.32,2.047 4.837,1.435 3.993,0.944 2.961,0.345 1.506,0 0,0"
             style="fill:#e6e7e8;fill-opacity:1;fill-rule:nonzero;stroke:none"
             id="path492"
             inkscape:connector-curvature="0" /></g><g
           id="g494"
           transform="translate(640.5039,115.9688)"><path
             d="M 0,0 -1.317,10.826 -2.636,0 h 0.003 c 0,-0.005 -0.003,-0.01 -0.003,-0.016 0,-0.144 0.122,-0.296 0.334,-0.42 0.257,-0.147 0.617,-0.232 0.989,-0.232 0.372,0 0.731,0.085 0.986,0.232 0.208,0.122 0.328,0.273 0.327,0.415 0,0.007 -0.003,0.014 -0.004,0.021 z"
             style="fill:#ffffff;fill-opacity:1;fill-rule:nonzero;stroke:none"
             id="path496"
             inkscape:connector-curvature="0" /></g><g
           id="g498"
           transform="translate(631.1182,143.2393)"><path
             d="m 0,0 -0.001,-0.443 c -0.003,-0.946 -0.625,-1.89 -1.867,-2.613 -2.502,-1.453 -6.569,-1.455 -9.087,-0.002 -1.267,0.732 -1.899,1.693 -1.897,2.652 l 10e-4,0.443 c -0.003,-0.959 0.63,-1.92 1.898,-2.651 2.517,-1.453 6.585,-1.451 9.086,0.003 C -0.625,-1.89 -0.003,-0.945 0,0"
             style="fill:#fe3551;fill-opacity:1;fill-rule:nonzero;stroke:none"
             id="path500"
             inkscape:connector-curvature="0" /></g><g
           id="g502"
           transform="translate(629.2217,145.8887)"><path
             d="m 0,0 c 2.518,-1.454 2.53,-3.808 0.029,-5.261 -2.501,-1.454 -6.568,-1.456 -9.086,-0.003 -2.517,1.454 -2.531,3.812 -0.03,5.266 C -6.585,1.455 -2.519,1.453 0,0"
             style="fill:#fe7386;fill-opacity:1;fill-rule:nonzero;stroke:none"
             id="path504"
             inkscape:connector-curvature="0" /></g><g
           id="g506"
           transform="translate(624.7109,140.624)"><path
             d="m 0,0 c -1.505,0 -2.964,0.344 -4.002,0.943 -0.859,0.496 -1.352,1.117 -1.353,1.702 -10e-4,0.578 0.482,1.191 1.326,1.681 1.03,0.599 2.483,0.942 3.986,0.942 1.508,0 2.969,-0.345 4.01,-0.946 C 4.825,3.826 5.318,3.207 5.319,2.623 5.32,2.046 4.837,1.435 3.993,0.944 2.961,0.344 1.505,0 0,0"
             style="fill:#e6e7e8;fill-opacity:1;fill-rule:nonzero;stroke:none"
             id="path508"
             inkscape:connector-curvature="0" /></g><g
           id="g510"
           transform="translate(626.0107,143.2764)"><path
             d="M 0,0 -1.317,10.826 -2.636,0 h 0.003 c 0,-0.005 -0.003,-0.011 -0.003,-0.016 0,-0.144 0.122,-0.297 0.334,-0.42 0.257,-0.148 0.617,-0.233 0.989,-0.233 0.372,0 0.731,0.085 0.986,0.233 0.208,0.122 0.328,0.273 0.327,0.415 0,0.007 -0.003,0.014 -0.004,0.021 z"
             style="fill:#ffffff;fill-opacity:1;fill-rule:nonzero;stroke:none"
             id="path512"
             inkscape:connector-curvature="0" /></g><g
           id="g514"
           transform="translate(446.4355,96.1348)"><path
             d="m 0,0 -0.001,-0.443 c -0.003,-0.947 -0.625,-1.891 -1.867,-2.613 -2.502,-1.454 -6.569,-1.456 -9.087,-0.002 -1.267,0.732 -1.899,1.692 -1.897,2.651 l 10e-4,0.443 c -0.003,-0.959 0.63,-1.919 1.898,-2.65 2.517,-1.454 6.585,-1.452 9.086,0.002 C -0.625,-1.891 -0.003,-0.946 0,0"
             style="fill:#0051b0;fill-opacity:1;fill-rule:nonzero;stroke:none"
             id="path516"
             inkscape:connector-curvature="0" /></g><g
           id="g518"
           transform="translate(444.5391,98.7832)"><path
             d="m 0,0 c 2.518,-1.453 2.53,-3.808 0.029,-5.261 -2.501,-1.454 -6.568,-1.456 -9.086,-0.002 -2.517,1.453 -2.531,3.812 -0.03,5.265 C -6.585,1.456 -2.519,1.454 0,0"
             style="fill:#0875f6;fill-opacity:1;fill-rule:nonzero;stroke:none"
             id="path520"
             inkscape:connector-curvature="0" /></g><g
           id="g522"
           transform="translate(440.0283,93.5186)"><path
             d="m 0,0 c -1.505,0 -2.964,0.344 -4.002,0.943 -0.859,0.496 -1.352,1.117 -1.353,1.702 -10e-4,0.578 0.482,1.191 1.326,1.681 1.03,0.599 2.483,0.943 3.986,0.943 1.508,0 2.969,-0.345 4.01,-0.947 C 4.825,3.826 5.318,3.207 5.319,2.623 5.32,2.047 4.837,1.435 3.993,0.944 2.961,0.344 1.505,0 0,0"
             style="fill:#e6e7e8;fill-opacity:1;fill-rule:nonzero;stroke:none"
             id="path524"
             inkscape:connector-curvature="0" /></g><g
           id="g526"
           transform="translate(441.3281,96.1709)"><path
             d="M 0,0 -1.317,10.826 -2.636,0 h 0.003 c 0,-0.005 -0.003,-0.011 -0.003,-0.016 0,-0.144 0.122,-0.297 0.334,-0.42 0.257,-0.148 0.617,-0.233 0.989,-0.233 0.372,0 0.731,0.085 0.986,0.233 0.208,0.122 0.328,0.273 0.327,0.415 0,0.007 -0.003,0.014 -0.004,0.021 z"
             style="fill:#ffffff;fill-opacity:1;fill-rule:nonzero;stroke:none"
             id="path528"
             inkscape:connector-curvature="0" /></g><g
           id="g530"
           transform="translate(663.0469,119.1445)"><path
             d="m 0,0 -0.001,-0.443 c -0.003,-0.946 -0.625,-1.89 -1.867,-2.613 -2.502,-1.453 -6.57,-1.455 -9.087,-0.002 -1.267,0.732 -1.899,1.693 -1.897,2.652 l 10e-4,0.443 c -0.003,-0.959 0.63,-1.92 1.898,-2.651 2.517,-1.453 6.584,-1.451 9.086,0.002 C -0.625,-1.89 -0.003,-0.945 0,0"
             style="fill:#0051b0;fill-opacity:1;fill-rule:nonzero;stroke:none"
             id="path532"
             inkscape:connector-curvature="0" /></g><g
           id="g534"
           transform="translate(661.1494,121.7939)"><path
             d="m 0,0 c 2.519,-1.454 2.531,-3.808 0.03,-5.262 -2.502,-1.453 -6.568,-1.455 -9.086,-0.002 -2.517,1.454 -2.531,3.812 -0.03,5.266 C -6.584,1.455 -2.518,1.453 0,0"
             style="fill:#0875f6;fill-opacity:1;fill-rule:nonzero;stroke:none"
             id="path536"
             inkscape:connector-curvature="0" /></g><g
           id="g538"
           transform="translate(656.6396,116.5293)"><path
             d="m 0,0 c -1.505,0 -2.964,0.344 -4.002,0.943 -0.859,0.496 -1.352,1.117 -1.353,1.702 -10e-4,0.578 0.482,1.19 1.326,1.681 1.03,0.598 2.483,0.942 3.986,0.942 1.507,0 2.969,-0.345 4.01,-0.946 C 4.825,3.826 5.318,3.207 5.319,2.623 5.32,2.046 4.837,1.434 3.993,0.944 2.961,0.344 1.505,0 0,0"
             style="fill:#e6e7e8;fill-opacity:1;fill-rule:nonzero;stroke:none"
             id="path540"
             inkscape:connector-curvature="0" /></g><g
           id="g542"
           transform="translate(657.9395,119.1816)"><path
             d="M 0,0 -1.317,10.826 -2.636,0 h 0.003 c 0,-0.006 -0.003,-0.011 -0.003,-0.016 0,-0.144 0.122,-0.297 0.334,-0.421 0.257,-0.147 0.617,-0.232 0.989,-0.232 0.372,0 0.731,0.085 0.986,0.233 0.208,0.122 0.328,0.272 0.327,0.415 0,0.006 -0.004,0.014 -0.004,0.021 z"
             style="fill:#ffffff;fill-opacity:1;fill-rule:nonzero;stroke:none"
             id="path544"
             inkscape:connector-curvature="0" /></g><g
           id="g546"
           transform="translate(556.0195,334.5039)"><path
             d="M 0,0 -21.959,-109.13"
             style="fill:none;stroke:#0875f6;stroke-width:3.13800001;stroke-linecap:round;stroke-linejoin:round;stroke-miterlimit:10;stroke-dasharray:none;stroke-opacity:1"
             id="path548"
             inkscape:connector-curvature="0" /></g><g
           id="g550"
           transform="translate(539.3076,343.8877)"><path
             d="M 0,0 -21.96,-109.13"
             style="fill:none;stroke:#0875f6;stroke-width:3.13800001;stroke-linecap:round;stroke-linejoin:round;stroke-miterlimit:10;stroke-dasharray:none;stroke-opacity:1"
             id="path552"
             inkscape:connector-curvature="0" /></g><g
           id="g554"
           transform="translate(537.4531,333.4995)"><path
             d="M 0,0 15.527,-8.76"
             style="fill:none;stroke:#0875f6;stroke-width:3.13800001;stroke-linecap:round;stroke-linejoin:round;stroke-miterlimit:10;stroke-dasharray:none;stroke-opacity:1"
             id="path556"
             inkscape:connector-curvature="0" /></g><g
           id="g558"
           transform="translate(534.6514,320.8506)"><path
             d="M 0,0 15.527,-8.76"
             style="fill:none;stroke:#0875f6;stroke-width:3.13800001;stroke-linecap:round;stroke-linejoin:round;stroke-miterlimit:10;stroke-dasharray:none;stroke-opacity:1"
             id="path560"
             inkscape:connector-curvature="0" /></g><g
           id="g562"
           transform="translate(532.7334,306.9653)"><path
             d="M 0,0 15.527,-8.76"
             style="fill:none;stroke:#0875f6;stroke-width:3.13800001;stroke-linecap:round;stroke-linejoin:round;stroke-miterlimit:10;stroke-dasharray:none;stroke-opacity:1"
             id="path564"
             inkscape:connector-curvature="0" /></g><g
           id="g566"
           transform="translate(530.1338,294.9419)"><path
             d="M 0,0 15.527,-8.76"
             style="fill:none;stroke:#0875f6;stroke-width:3.13800001;stroke-linecap:round;stroke-linejoin:round;stroke-miterlimit:10;stroke-dasharray:none;stroke-opacity:1"
             id="path568"
             inkscape:connector-curvature="0" /></g><g
           id="g570"
           transform="translate(527.6182,281.855)"><path
             d="M 0,0 15.526,-8.76"
             style="fill:none;stroke:#0875f6;stroke-width:3.13800001;stroke-linecap:round;stroke-linejoin:round;stroke-miterlimit:10;stroke-dasharray:none;stroke-opacity:1"
             id="path572"
             inkscape:connector-curvature="0" /></g><g
           id="g574"
           transform="translate(524.9697,269.6519)"><path
             d="M 0,0 15.527,-8.76"
             style="fill:none;stroke:#0875f6;stroke-width:3.13800001;stroke-linecap:round;stroke-linejoin:round;stroke-miterlimit:10;stroke-dasharray:none;stroke-opacity:1"
             id="path576"
             inkscape:connector-curvature="0" /></g><g
           id="g578"
           transform="translate(522.3701,256.6675)"><path
             d="M 0,0 15.527,-8.76"
             style="fill:none;stroke:#0875f6;stroke-width:3.13800001;stroke-linecap:round;stroke-linejoin:round;stroke-miterlimit:10;stroke-dasharray:none;stroke-opacity:1"
             id="path580"
             inkscape:connector-curvature="0" /></g><g
           id="g582"
           transform="translate(519.7109,243.6826)"><path
             d="M 0,0 15.527,-8.76"
             style="fill:none;stroke:#0875f6;stroke-width:3.13800001;stroke-linecap:round;stroke-linejoin:round;stroke-miterlimit:10;stroke-dasharray:none;stroke-opacity:1"
             id="path584"
             inkscape:connector-curvature="0" /></g><g
           id="g586"
           transform="translate(670.8975,365.5332)"><path
             d="m 0,0 c -8.186,4.726 -15.603,5.165 -20.957,2.053 l -6.368,-3.701 c 5.355,3.112 12.771,2.674 20.957,-2.052 16.261,-9.388 29.404,-32.153 29.351,-50.844 -0.026,-9.287 -3.305,-15.82 -8.592,-18.893 l 6.368,3.7 c 5.286,3.073 8.565,9.607 8.592,18.893 C 29.403,-32.153 16.26,-9.388 0,0"
             style="fill:#fe7386;fill-opacity:1;fill-rule:nonzero;stroke:none"
             id="path588"
             inkscape:connector-curvature="0" /></g><g
           id="g590"
           transform="translate(664.5293,361.833)"><path
             d="M 0,0 C 16.261,-9.388 29.404,-32.153 29.352,-50.844 29.298,-69.536 16.069,-77.075 -0.191,-67.687 -16.458,-58.295 -29.602,-35.53 -29.548,-16.839 -29.495,1.853 -16.267,9.392 0,0"
             style="fill:#fe3551;fill-opacity:1;fill-rule:nonzero;stroke:none"
             id="path592"
             inkscape:connector-curvature="0" /></g><g
           id="g594"
           transform="translate(664.5146,356.4478)"><path
             d="M 0,0 C 13.676,-7.896 24.727,-27.036 24.682,-42.751 24.638,-58.467 13.515,-64.812 -0.162,-56.916 -13.838,-49.02 -24.895,-29.87 -24.85,-14.154 -24.806,1.561 -13.677,7.896 0,0"
             style="fill:#ffffff;fill-opacity:1;fill-rule:nonzero;stroke:none"
             id="path596"
             inkscape:connector-curvature="0" /></g><g
           id="g598"
           transform="translate(664.8574,352.625)"><path
             d="M 0,0 4.203,-7.101 1.037,-23.51 c 0.484,-0.677 0.799,-1.51 0.797,-2.239 -0.004,-1.213 -0.86,-1.701 -1.91,-1.095 -0.225,0.13 -0.439,0.306 -0.64,0.509 l -5.249,-7.26 -3.837,2.023 -0.299,4.574 8.27,2.509 c -0.092,0.318 -0.148,0.636 -0.148,0.941 0.002,0.729 0.321,1.195 0.807,1.314 l -3.063,20.005 z"
             style="fill:#4b6a7a;fill-opacity:1;fill-rule:nonzero;stroke:none"
             id="path600"
             inkscape:connector-curvature="0" /></g><g
           id="g602"
           transform="translate(600,152.1514)"><path
             d="m 0,0 -110.579,64.262 c 1.466,-0.852 2.375,-2.661 2.383,-5.231 0.014,-5.172 -3.634,-11.49 -8.135,-14.089 l -88.065,-50.844 110.58,-64.262 88.065,50.845 c 4.501,2.598 8.148,8.917 8.134,14.089 C 2.376,-2.661 1.466,-0.852 0,0"
             style="fill:#fe566d;fill-opacity:1;fill-rule:nonzero;stroke:none"
             id="path604"
             inkscape:connector-curvature="0" /></g><g
           id="g606"
           transform="translate(506.2031,75.165)"><path
             d="M 0,0 -110.58,64.262 -110.6,71.084 -0.02,6.822 Z"
             style="fill:#fe3551;fill-opacity:1;fill-rule:nonzero;stroke:none"
             id="path608"
             inkscape:connector-curvature="0" /></g><g
           id="g610"
           transform="translate(505.8437,100.5762)"><path
             d="M 0,0 -110.58,64.262 -110.6,71.084 -0.02,6.822 Z"
             style="fill:#fe3551;fill-opacity:1;fill-rule:nonzero;stroke:none"
             id="path612"
             inkscape:connector-curvature="0" /></g><g
           id="g614"
           transform="translate(493.623,223.6445)"><path
             d="m 0,0 c -2.564,1.49 -6.114,1.284 -10.026,-0.975 l -88.353,-51.009 110.58,-64.262 88.353,51.01 c 3.911,2.258 7.461,2.465 10.026,0.974 z"
             style="fill:#fe7386;fill-opacity:1;fill-rule:nonzero;stroke:none"
             id="path616"
             inkscape:connector-curvature="0" /></g><g
           id="g618"
           transform="translate(594.1768,158.4082)"><path
             d="M 0,0 C 7.773,4.488 14.118,0.872 14.144,-8.06 14.169,-16.992 7.865,-27.91 0.092,-32.398 l -88.066,-50.845 -0.019,6.822 88.065,50.845 c 4.501,2.598 8.149,8.917 8.134,14.089 -0.015,5.172 -3.685,7.264 -8.187,4.665 l -88.352,-51.01 -0.02,6.822 z"
             style="fill:#cf2b42;fill-opacity:1;fill-rule:nonzero;stroke:none"
             id="path620"
             inkscape:connector-curvature="0" /></g><g
           id="g622"
           transform="translate(407.6211,147.3936)"><path
             d="m 0,0 v 10.263 l 98.223,-57.08 v -9.773 z"
             style="fill:#ffffff;fill-opacity:1;fill-rule:nonzero;stroke:none"
             id="path624"
             inkscape:connector-curvature="0" /></g><g
           id="g626"
           transform="translate(597.0684,148.1152)"><path
             d="M 0,0 C 0.198,-5.69 -3.441,-7.343 -3.441,-7.343 L -91.23,-57.309 v 9.77 l 86.9,50.164 v 0.011 l 1.453,0.837 c 0.544,0.313 1.078,0.554 1.59,0.732 C -0.638,3.515 -0.073,2.26 0,0"
             style="fill:#d8eaf5;fill-opacity:1;fill-rule:nonzero;stroke:none"
             id="path628"
             inkscape:connector-curvature="0" /></g><g
           id="g630"
           transform="translate(574.7285,183.6719)"><path
             d="m 0,0 -82.127,47.728 c 1.088,-0.633 1.764,-1.977 1.77,-3.885 0.01,-3.842 -2.699,-8.534 -6.041,-10.464 l -65.407,-37.763 82.127,-47.726 65.407,37.761 c 3.342,1.93 6.051,6.623 6.041,10.464 C 1.765,-1.977 1.089,-0.633 0,0"
             style="fill:#076de6;fill-opacity:1;fill-rule:nonzero;stroke:none"
             id="path632"
             inkscape:connector-curvature="0" /></g><g
           id="g634"
           transform="translate(505.0654,126.4941)"><path
             d="M 0,0 -82.127,47.728 -82.142,52.794 -0.015,5.067 Z"
             style="fill:#0051b0;fill-opacity:1;fill-rule:nonzero;stroke:none"
             id="path636"
             inkscape:connector-curvature="0" /></g><g
           id="g638"
           transform="translate(504.7979,145.3672)"><path
             d="M 0,0 -82.127,47.728 -82.142,52.794 -0.014,5.066 Z"
             style="fill:#0051b0;fill-opacity:1;fill-rule:nonzero;stroke:none"
             id="path640"
             inkscape:connector-curvature="0" /></g><g
           id="g642"
           transform="translate(495.7227,236.7695)"><path
             d="M 0,0 C -1.905,1.107 -4.542,0.954 -7.447,-0.724 L -73.066,-38.608 9.062,-86.336 74.681,-48.45 c 2.905,1.677 5.542,1.83 7.446,0.723 z"
             style="fill:#0875f6;fill-opacity:1;fill-rule:nonzero;stroke:none"
             id="path644"
             inkscape:connector-curvature="0" /></g><g
           id="g646"
           transform="translate(570.4033,188.3193)"><path
             d="M 0,0 C 5.773,3.333 10.485,0.647 10.504,-5.986 10.523,-12.62 5.842,-20.729 0.068,-24.062 l -65.406,-37.763 -0.015,5.067 65.407,37.762 c 3.342,1.93 6.051,6.623 6.041,10.464 -0.011,3.842 -2.738,5.395 -6.081,3.465 l -65.619,-37.885 -0.014,5.066 z"
             style="fill:#003f8a;fill-opacity:1;fill-rule:nonzero;stroke:none"
             id="path648"
             inkscape:connector-curvature="0" /></g><g
           id="g650"
           transform="translate(431.8496,180.1387)"><path
             d="m 0,0 v 7.622 l 72.948,-42.393 v -7.258 z"
             style="fill:#ffffff;fill-opacity:1;fill-rule:nonzero;stroke:none"
             id="path652"
             inkscape:connector-curvature="0" /></g><g
           id="g654"
           transform="translate(572.5508,180.6748)"><path
             d="m 0,0 c 0.147,-4.227 -2.556,-5.454 -2.556,-5.454 l -65.2,-37.109 v 7.255 l 64.54,37.257 v 0.008 l 1.08,0.622 c 0.404,0.233 0.8,0.411 1.181,0.543 C -0.474,2.609 -0.055,1.678 0,0"
             style="fill:#d8eaf5;fill-opacity:1;fill-rule:nonzero;stroke:none"
             id="path656"
             inkscape:connector-curvature="0" /></g><g
           id="g658"
           transform="translate(515.1338,214.2246)"><path
             d="m 0,0 c 3.168,-1.83 3.187,-4.797 0.041,-6.624 -1.685,-0.98 -3.933,-1.435 -6.143,-1.365 -1.791,0.057 -3.533,-0.228 -5.054,-0.756 -0.87,-0.297 -1.046,-0.98 -0.332,-1.392 l 11.994,-6.925 -9.183,-5.335 c -0.59,-0.344 -1.555,-0.35 -2.124,-0.022 -0.057,0.033 -0.11,0.069 -0.159,0.109 -1.19,0.972 -1.869,2.133 -1.763,3.332 0.113,1.28 -0.68,2.583 -2.37,3.559 -3.579,2.066 -9.636,1.797 -12.543,-0.799 -1.676,-1.492 -1.684,-3.485 -0.018,-4.985 0.348,-0.313 0.74,-0.593 1.167,-0.839 1.592,-0.919 3.67,-1.376 5.748,-1.37 2.19,0.004 4.329,-0.317 6.11,-0.998 0.077,-0.03 0.148,-0.065 0.211,-0.101 0.569,-0.329 0.567,-0.894 -0.024,-1.238 l -9.162,-5.324 -12.015,6.936 c -0.674,0.39 -1.819,0.343 -2.329,-0.124 -0.987,-0.913 -1.533,-1.973 -1.427,-3.064 0.12,-1.284 -0.651,-2.584 -2.337,-3.564 -3.145,-1.828 -8.267,-1.827 -11.435,0.003 -0.407,0.236 -0.782,0.5 -1.117,0.796 -1.692,1.492 -1.723,3.486 -0.067,4.989 1.622,1.477 4.261,2.213 6.89,2.209 1.997,-0.007 3.953,0.262 5.627,0.833 0.824,0.286 0.919,0.968 0.232,1.365 l -11.981,6.918 8.904,5.173 c 0.615,0.358 0.57,0.92 -0.003,1.251 -0.126,0.073 -0.276,0.134 -0.451,0.18 -1.46,0.382 -3.078,0.563 -4.723,0.559 -2.078,-0.006 -4.16,0.453 -5.751,1.372 -0.427,0.246 -0.817,0.525 -1.164,0.838 -1.673,1.503 -1.657,3.493 0.012,4.989 2.907,2.595 8.969,2.86 12.543,0.798 1.696,-0.98 2.489,-2.282 2.377,-3.563 -0.076,-0.886 0.275,-1.751 0.945,-2.537 0.082,-0.094 0.186,-0.176 0.305,-0.245 0.582,-0.336 1.544,-0.367 2.16,-0.01 l 8.957,5.205 11.961,-6.905 c 0.694,-0.4 1.879,-0.339 2.361,0.15 0.927,0.957 1.36,2.06 1.347,3.189 -0.015,1.523 1.248,3.054 3.792,3.999 C -7.4,1.631 -3.966,1.615 -1.378,0.644 -0.866,0.451 -0.407,0.234 0,0"
             style="fill:#ffd08a;fill-opacity:1;fill-rule:nonzero;stroke:none"
             id="path660"
             inkscape:connector-curvature="0" /></g><g
           id="g662"
           transform="translate(470.9189,206.2422)"><path
             d="m 0,0 -0.005,-1.705 c 0.001,0.231 -0.154,0.462 -0.447,0.631 -0.126,0.072 -0.277,0.134 -0.451,0.179 -1.46,0.382 -3.078,0.563 -4.723,0.559 -2.078,-0.006 -4.16,0.453 -5.751,1.372 -0.426,0.246 -0.817,0.526 -1.164,0.837 -0.835,0.751 -1.25,1.624 -1.247,2.495 l 0.005,1.705 c -0.003,-0.871 0.412,-1.743 1.247,-2.494 0.347,-0.312 0.737,-0.592 1.164,-0.838 1.591,-0.919 3.673,-1.378 5.751,-1.372 1.644,0.004 3.263,-0.177 4.723,-0.558 0.174,-0.046 0.325,-0.108 0.451,-0.18 C -0.154,0.462 0.001,0.232 0,0"
             style="fill:#f2a14b;fill-opacity:1;fill-rule:nonzero;stroke:none"
             id="path664"
             inkscape:connector-curvature="0" /></g><g
           id="g666"
           transform="translate(517.5225,210.8867)"><path
             d="m 0,0 -0.005,-1.705 c -0.004,-1.191 -0.785,-2.379 -2.348,-3.286 -1.684,-0.98 -3.932,-1.435 -6.142,-1.365 -1.791,0.057 -3.533,-0.228 -5.055,-0.756 -0.503,-0.172 -0.774,-0.473 -0.775,-0.776 l 0.005,1.705 c 10e-4,0.303 0.271,0.604 0.775,0.776 1.522,0.528 3.264,0.813 5.055,0.756 2.21,-0.07 4.458,0.385 6.142,1.365 C -0.785,-2.379 -0.004,-1.19 0,0"
             style="fill:#f2a14b;fill-opacity:1;fill-rule:nonzero;stroke:none"
             id="path668"
             inkscape:connector-curvature="0" /></g><g
           id="g670"
           transform="translate(473.5518,193.5303)"><path
             d="m 0,0 -0.005,-1.705 -11.981,6.917 0.005,1.706 z"
             style="fill:#f2a14b;fill-opacity:1;fill-rule:nonzero;stroke:none"
             id="path672"
             inkscape:connector-curvature="0" /></g><g
           id="g674"
           transform="translate(515.6396,197.1631)"><path
             d="m 0,0 -0.005,-1.705 -9.183,-5.337 0.005,1.706 z"
             style="fill:#f2a14b;fill-opacity:1;fill-rule:nonzero;stroke:none"
             id="path676"
             inkscape:connector-curvature="0" /></g><g
           id="g678"
           transform="translate(504.333,191.8057)"><path
             d="m 0,0 c -0.058,0.033 -0.11,0.069 -0.159,0.109 -1.022,0.834 -1.659,1.807 -1.755,2.824 l 0.003,0.74 C -1.908,4.877 -2.704,6.083 -4.292,7 -7.871,9.066 -13.928,8.797 -16.835,6.201 -17.674,5.455 -18.095,4.582 -18.098,3.709 l -0.005,-1.705 c 0.003,0.873 0.424,1.745 1.263,2.492 2.907,2.595 8.964,2.865 12.543,0.799 1.482,-0.856 2.265,-1.964 2.361,-3.087 L -1.937,1.497 c -0.004,-1.113 0.662,-2.185 1.773,-3.093 0.049,-0.04 0.102,-0.076 0.159,-0.109 0.568,-0.328 1.534,-0.322 2.124,0.02 L 2.124,0.021 C 1.534,-0.322 0.568,-0.328 0,0"
             style="fill:#f2a14b;fill-opacity:1;fill-rule:nonzero;stroke:none"
             id="path680"
             inkscape:connector-curvature="0" /></g><g
           id="g682"
           transform="translate(500.6914,188.4756)"><path
             d="m 0,0 -9.162,-5.324 -0.005,-1.705 9.162,5.324 c 0.299,0.174 0.447,0.403 0.447,0.631 L 0.447,0.631 C 0.447,0.403 0.299,0.174 0,0"
             style="fill:#f2a14b;fill-opacity:1;fill-rule:nonzero;stroke:none"
             id="path684"
             inkscape:connector-curvature="0" /></g><g
           id="g686"
           transform="translate(479.5146,190.0879)"><path
             d="m 0,0 c -0.674,0.389 -1.818,0.343 -2.329,-0.124 -0.902,-0.836 -1.438,-1.795 -1.44,-2.788 l -0.004,-1.705 c 0.002,0.993 0.537,1.952 1.439,2.788 0.511,0.467 1.655,0.513 2.329,0.124 l 12.015,-6.937 0.005,1.705 z"
             style="fill:#f2a14b;fill-opacity:1;fill-rule:nonzero;stroke:none"
             id="path688"
             inkscape:connector-curvature="0" /></g><g
           id="g690"
           transform="translate(475.7705,186.6309)"><path
             d="M 0,0 -0.005,-1.705 C -0.008,-2.9 -0.785,-4.089 -2.353,-5 c -3.146,-1.828 -8.267,-1.827 -11.436,0.003 -0.406,0.234 -0.781,0.5 -1.116,0.795 -0.862,0.76 -1.292,1.648 -1.289,2.537 l 0.004,1.705 c -0.002,-0.888 0.428,-1.777 1.29,-2.536 0.335,-0.296 0.71,-0.561 1.116,-0.796 3.169,-1.83 8.29,-1.831 11.435,-0.003 C -0.78,-2.383 -0.003,-1.195 0,0"
             style="fill:#f2a14b;fill-opacity:1;fill-rule:nonzero;stroke:none"
             id="path692"
             inkscape:connector-curvature="0" /></g><g
           id="g694"
           transform="translate(486.002,97.0195)"><path
             d="m 0,0 c 0,0 -3.147,-4.384 -1.321,-7.769 1.827,-3.385 7.795,6.772 7.35,8.202 C 5.585,1.862 3.337,3.824 2.669,3.049 2.001,2.274 0,0 0,0"
             style="fill:#ffd08a;fill-opacity:1;fill-rule:nonzero;stroke:none"
             id="path696"
             inkscape:connector-curvature="0" /></g><g
           id="g698"
           transform="translate(462.2754,102.0879)"><path
             d="m 0,0 c 0,0 -5.388,-0.317 -6.865,-3.869 -1.478,-3.552 10.17,-1.785 11,-0.539 0.83,1.246 0.936,4.227 -0.086,4.258 C 3.026,-0.12 0,0 0,0"
             style="fill:#ffd08a;fill-opacity:1;fill-rule:nonzero;stroke:none"
             id="path700"
             inkscape:connector-curvature="0" /></g><g
           id="g702"
           transform="translate(483.3662,133.7187)"><path
             d="M 0,0 C 0,0 -11.476,-12.004 4.271,-34.702"
             style="fill:none;stroke:#4b6a7a;stroke-width:5.23000002;stroke-linecap:round;stroke-linejoin:round;stroke-miterlimit:10;stroke-dasharray:none;stroke-opacity:1"
             id="path704"
             inkscape:connector-curvature="0" /></g><g
           id="g706"
           transform="translate(479.5156,136.374)"><path
             d="M 0,0 C 0,0 -23.257,0 -15.126,-33.304"
             style="fill:none;stroke:#4b6a7a;stroke-width:5.23000002;stroke-linecap:round;stroke-linejoin:round;stroke-miterlimit:10;stroke-dasharray:none;stroke-opacity:1"
             id="path708"
             inkscape:connector-curvature="0" /></g><g
           id="g710"
           transform="translate(486.8057,151.6426)"><path
             d="m 0,0 -0.051,-17.659 c -0.004,-1.516 -0.811,-2.916 -2.123,-3.678 -1.322,-0.768 -2.954,-0.77 -4.278,-0.006 l -6.329,3.654 c -1.324,0.764 -2.139,2.179 -2.134,3.709 l 0.039,14.082 c 10e-4,0.248 0.049,0.491 0.066,0.738 0.164,2.382 1.005,4.103 2.249,6.068 0.392,0.618 0.937,1.125 1.58,1.474 0.375,0.203 0.727,0.388 1.01,0.533 0.433,0.223 0.901,0.371 1.383,0.434 1.329,0.172 2.56,0.238 3.301,-0.19 C -4.586,8.752 -3.445,7.655 -3.026,7.241 -2.922,7.139 -2.823,7.033 -2.729,6.92 -1.096,4.937 0.006,2.3 0,0"
             style="fill:#ffd08a;fill-opacity:1;fill-rule:nonzero;stroke:none"
             id="path712"
             inkscape:connector-curvature="0" /></g><g
           id="g714"
           transform="translate(481.0654,156.9238)"><path
             d="M 0,0 C 1.331,0.768 1.388,2.715 0.062,3.491 0.053,3.496 0.044,3.501 0.035,3.507 -0.595,3.87 -1.249,4.053 -1.839,4.122 -2.227,4.168 -2.618,4.09 -2.967,3.913 L -4.445,3.166 C -5.544,2.528 -5.749,1.021 -4.854,0.119 c 0.325,-0.328 0.678,-0.608 1.046,-0.82 0.963,-0.557 1.652,-0.451 2.449,-0.078 0.058,0.027 0.115,0.057 0.171,0.09 C -0.825,-0.477 -0.412,-0.237 0,0"
             style="fill:#fcb28d;fill-opacity:1;fill-rule:nonzero;stroke:none"
             id="path716"
             inkscape:connector-curvature="0" /></g><g
           id="g718"
           transform="translate(480.2178,162.1826)"><path
             d="m 0,0 c -0.621,-0.359 -1.637,-0.359 -2.258,0 -0.316,0.183 -0.471,0.442 -0.466,0.696 h -10e-4 v -3.049 l 0.002,-10e-4 c 0.01,-0.242 0.164,-0.483 0.465,-0.657 0.621,-0.359 1.637,-0.359 2.258,0 0.312,0.181 0.467,0.419 0.465,0.657 v 10e-4 3.005 C 0.465,0.416 0.31,0.18 0,0"
             style="fill:#f09365;fill-opacity:1;fill-rule:nonzero;stroke:none"
             id="path720"
             inkscape:connector-curvature="0" /></g><g
           id="g722"
           transform="translate(480.6787,162.8789)"><path
             d="M 0,0 C 0.002,-0.015 0.004,-0.029 0.004,-0.044 V 0 Z"
             style="fill:#fcb28d;fill-opacity:1;fill-rule:nonzero;stroke:none"
             id="path724"
             inkscape:connector-curvature="0" /></g><g
           id="g726"
           transform="translate(459.0156,135.7324)"><path
             d="M 0,0 C 1.459,0.611 3.271,1.249 4.312,1.164"
             style="fill:none;stroke:#fcb28d;stroke-width:3.47399998;stroke-linecap:round;stroke-linejoin:round;stroke-miterlimit:10;stroke-dasharray:none;stroke-opacity:1"
             id="path728"
             inkscape:connector-curvature="0" /></g><g
           id="g730"
           transform="translate(495.375,121.9346)"><path
             d="M 0,0 C -0.696,1.421 -1.642,3.094 -2.481,3.715"
             style="fill:none;stroke:#fcb28d;stroke-width:3.47399998;stroke-linecap:round;stroke-linejoin:round;stroke-miterlimit:10;stroke-dasharray:none;stroke-opacity:1"
             id="path732"
             inkscape:connector-curvature="0" /></g><g
           id="g734"
           transform="translate(474.4785,155.835)"><path
             d="M 0,0 C 0,0 -6.587,-4.479 -10.94,-18.2"
             style="fill:none;stroke:#ffd08a;stroke-width:4.18400002;stroke-linecap:round;stroke-linejoin:round;stroke-miterlimit:10;stroke-dasharray:none;stroke-opacity:1"
             id="path736"
             inkscape:connector-curvature="0" /></g><g
           id="g738"
           transform="translate(484.1641,154.1055)"><path
             d="M 0,0 C 0,0 5.719,-3.849 8.369,-27.321"
             style="fill:none;stroke:#ffd08a;stroke-width:4.18400002;stroke-linecap:round;stroke-linejoin:round;stroke-miterlimit:10;stroke-dasharray:none;stroke-opacity:1"
             id="path740"
             inkscape:connector-curvature="0" /></g><g
           id="g742"
           transform="translate(484.6758,170.0322)"><path
             d="m 0,0 v -3.846 c 0,-3.073 -2.49,-5.56 -5.56,-5.56 -3.069,0 -5.56,2.487 -5.56,5.56 V 0 c 0,0.447 0.055,0.881 0.154,1.296 0.025,0.111 0.054,0.219 0.089,0.326 0.692,2.277 2.814,3.936 5.317,3.936 1.534,0 2.924,-0.623 3.933,-1.628 C -0.622,2.924 0,1.536 0,0"
             style="fill:#fcb28d;fill-opacity:1;fill-rule:nonzero;stroke:none"
             id="path744"
             inkscape:connector-curvature="0" /></g><g
           id="g746"
           transform="translate(490.2275,161.6816)"><path
             d="M 0,0 C -2.484,3.704 0.239,2.743 -2.396,5.525 -3.6,6.795 -4.482,8.048 -5.114,9.051 l -0.129,1.173 c -0.19,1.736 -1.328,3.224 -2.955,3.86 -1.975,0.772 -4.182,0.687 -6.092,-0.235 l -1.395,-0.674 c -1.515,-0.732 -1.369,-3.023 0.263,-3.435 0.022,-0.005 0.042,-0.01 0.065,-0.015 0.371,-0.085 0.699,-0.121 1.001,-0.131 0.034,-0.293 0.149,-0.61 0.401,-0.946 0.831,-1.106 2.624,-2.819 4.35,-2.603 -0.011,-0.227 0.013,-0.425 0.148,-0.592 0.451,-0.56 0.105,-1.172 0.558,-1.473 0.07,-0.52 0.214,-1.007 0.488,-1.322 0.871,-1.003 -0.685,-3.211 0,-4.612 0.683,-1.402 0.068,-3.407 3.39,-3.669 C -1.699,-5.884 2.484,-3.705 0,0"
             style="fill:#2d404a;fill-opacity:1;fill-rule:nonzero;stroke:none"
             id="path748"
             inkscape:connector-curvature="0" /></g><g
           id="g750"
           transform="translate(558.8857,157.6719)"><path
             d="M 0,0 C 0,0 4.906,-2.247 4.996,-6.093 5.087,-9.938 -5.129,-4.072 -5.451,-2.61 -5.773,-1.148 -4.793,1.669 -3.829,1.327 -2.865,0.985 0,0 0,0"
             style="fill:#ffd08a;fill-opacity:1;fill-rule:nonzero;stroke:none"
             id="path752"
             inkscape:connector-curvature="0" /></g><g
           id="g754"
           transform="translate(542.6943,185.5176)"><path
             d="M 0,0 C 0,0 14.666,-12.05 14.131,-27.527"
             style="fill:none;stroke:#4b6a7a;stroke-width:5.23000002;stroke-linecap:round;stroke-linejoin:round;stroke-miterlimit:10;stroke-dasharray:none;stroke-opacity:1"
             id="path756"
             inkscape:connector-curvature="0" /></g><g
           id="g758"
           transform="translate(566.0996,161.5205)"><path
             d="m 0,0 c 0,0 4.906,-2.247 4.997,-6.093 0.09,-3.846 -10.126,2.021 -10.448,3.483 -0.322,1.462 0.659,4.279 1.623,3.937 C -2.864,0.984 0,0 0,0"
             style="fill:#ffd08a;fill-opacity:1;fill-rule:nonzero;stroke:none"
             id="path760"
             inkscape:connector-curvature="0" /></g><g
           id="g762"
           transform="translate(549.9082,189.3652)"><path
             d="M 0,0 C 0,0 14.666,-12.049 14.132,-27.527"
             style="fill:none;stroke:#4b6a7a;stroke-width:5.23000002;stroke-linecap:round;stroke-linejoin:round;stroke-miterlimit:10;stroke-dasharray:none;stroke-opacity:1"
             id="path764"
             inkscape:connector-curvature="0" /></g><g
           id="g766"
           transform="translate(578.209,216.7842)"><path
             d="M 0,0 C -1.232,-0.992 -2.796,-2.107 -3.82,-2.313"
             style="fill:none;stroke:#fcb28d;stroke-width:3.47399998;stroke-linecap:round;stroke-linejoin:round;stroke-miterlimit:10;stroke-dasharray:none;stroke-opacity:1"
             id="path768"
             inkscape:connector-curvature="0" /></g><g
           id="g770"
           transform="translate(549.335,206.8379)"><path
             d="M 0,0 C 0,0 10.246,-2.214 23.568,6.301"
             style="fill:none;stroke:#ffd08a;stroke-width:4.18400002;stroke-linecap:round;stroke-linejoin:round;stroke-miterlimit:10;stroke-dasharray:none;stroke-opacity:1"
             id="path772"
             inkscape:connector-curvature="0" /></g><g
           id="g774"
           transform="translate(538.457,205.2207)"><path
             d="m 0,0 0.05,-17.66 c 0.005,-1.516 0.812,-2.915 2.123,-3.678 1.322,-0.768 2.955,-0.77 4.279,-0.006 l 6.329,3.655 c 1.324,0.764 2.138,2.178 2.134,3.708 l -0.04,14.082 c 0,0.248 -0.049,0.491 -0.065,0.738 C 14.646,3.221 13.805,4.942 12.56,6.908 12.169,7.525 11.624,8.033 10.981,8.381 10.606,8.584 10.254,8.769 9.97,8.914 9.537,9.137 9.07,9.285 8.588,9.348 7.259,9.521 6.028,9.586 5.287,9.158 4.586,8.752 3.445,7.654 3.025,7.241 2.922,7.138 2.823,7.032 2.729,6.92 1.095,4.937 -0.006,2.299 0,0"
             style="fill:#ffd08a;fill-opacity:1;fill-rule:nonzero;stroke:none"
             id="path776"
             inkscape:connector-curvature="0" /></g><g
           id="g778"
           transform="translate(544.1973,210.502)"><path
             d="m 0,0 c -1.331,0.768 -1.388,2.714 -0.062,3.49 0.008,0.005 0.017,0.011 0.026,0.016 C 0.595,3.87 1.249,4.053 1.839,4.122 2.227,4.167 2.618,4.089 2.967,3.913 L 4.445,3.165 C 5.543,2.527 5.749,1.02 4.854,0.119 4.528,-0.209 4.176,-0.489 3.808,-0.702 2.845,-1.258 2.156,-1.152 1.358,-0.78 1.3,-0.753 1.244,-0.723 1.188,-0.689 0.824,-0.478 0.412,-0.238 0,0"
             style="fill:#fcb28d;fill-opacity:1;fill-rule:nonzero;stroke:none"
             id="path780"
             inkscape:connector-curvature="0" /></g><g
           id="g782"
           transform="translate(545.0449,215.7598)"><path
             d="m 0,0 c 0.621,-0.358 1.637,-0.358 2.258,0 0.316,0.184 0.471,0.442 0.466,0.697 h 10e-4 v -3.05 L 2.723,-2.354 C 2.712,-2.595 2.558,-2.837 2.258,-3.011 1.637,-3.37 0.621,-3.37 0,-3.011 c -0.312,0.181 -0.468,0.42 -0.465,0.658 V 0.652 C -0.466,0.416 -0.311,0.18 0,0"
             style="fill:#f09365;fill-opacity:1;fill-rule:nonzero;stroke:none"
             id="path784"
             inkscape:connector-curvature="0" /></g><g
           id="g786"
           transform="translate(544.583,216.4561)"><path
             d="M 0,0 C -0.001,-0.015 -0.003,-0.029 -0.003,-0.044 V 0.001 Z"
             style="fill:#fcb28d;fill-opacity:1;fill-rule:nonzero;stroke:none"
             id="path788"
             inkscape:connector-curvature="0" /></g><g
           id="g790"
           transform="translate(532.3164,179.0312)"><path
             d="M 0,0 C -0.078,1.58 -0.062,3.501 0.373,4.451"
             style="fill:none;stroke:#fcb28d;stroke-width:3.47399998;stroke-linecap:round;stroke-linejoin:round;stroke-miterlimit:10;stroke-dasharray:none;stroke-opacity:1"
             id="path792"
             inkscape:connector-curvature="0" /></g><g
           id="g794"
           transform="translate(541.2373,208.2393)"><path
             d="M 0,0 C 0,0 -7.812,-6.99 -8.752,-22.773"
             style="fill:none;stroke:#ffd08a;stroke-width:4.18400002;stroke-linecap:round;stroke-linejoin:round;stroke-miterlimit:10;stroke-dasharray:none;stroke-opacity:1"
             id="path796"
             inkscape:connector-curvature="0" /></g><g
           id="g798"
           transform="translate(540.5859,223.6094)"><path
             d="m 0,0 v -3.846 c 0,-3.072 2.49,-5.56 5.561,-5.56 3.069,0 5.559,2.488 5.559,5.56 V 0 c 0,0.447 -0.054,0.882 -0.153,1.297 -0.025,0.11 -0.054,0.218 -0.089,0.326 C 10.186,3.9 8.064,5.558 5.561,5.558 4.026,5.558 2.636,4.935 1.628,3.93 0.623,2.925 0,1.536 0,0"
             style="fill:#fcb28d;fill-opacity:1;fill-rule:nonzero;stroke:none"
             id="path800"
             inkscape:connector-curvature="0" /></g><g
           id="g802"
           transform="translate(540.9062,221.5469)"><path
             d="m 0,0 c 0.173,0.1 0.335,0.143 0.475,0.139 l 1.21,-0.703 c -0.14,0.003 -0.302,-0.04 -0.474,-0.139 -0.563,-0.324 -1.022,-1.119 -1.02,-1.765 0.001,-0.323 0.117,-0.55 0.3,-0.657 l -1.21,0.703 c -0.184,0.108 -0.299,0.335 -0.3,0.657 C -1.021,-1.119 -0.562,-0.324 0,0"
             style="fill:#f59d71;fill-opacity:1;fill-rule:nonzero;stroke:none"
             id="path804"
             inkscape:connector-curvature="0" /></g><g
           id="g806"
           transform="translate(542.1172,220.8437)"><path
             d="m 0,0 c -0.562,-0.324 -1.021,-1.119 -1.02,-1.765 0.002,-0.648 0.464,-0.912 1.026,-0.588 0.173,0.1 0.335,0.244 0.473,0.413 L 0.474,0.139 C 0.334,0.143 0.172,0.1 0,0"
             style="fill:#fcb28d;fill-opacity:1;fill-rule:nonzero;stroke:none"
             id="path808"
             inkscape:connector-curvature="0" /></g><g
           id="g810"
           transform="translate(542.1211,220.251)"><path
             d="M 0,0 C 0.19,0.11 0.375,0.104 0.475,-0.04 L 0.476,-0.673 C 0.424,-0.81 0.345,-0.944 0.241,-1.058 0.164,-1.145 0.083,-1.212 0.003,-1.259 -0.2,-1.376 -0.396,-1.358 -0.491,-1.187 c -0.13,0.237 -0.019,0.68 0.255,0.99 C -0.16,-0.112 -0.08,-0.046 0,0"
             style="fill:#e88861;fill-opacity:1;fill-rule:nonzero;stroke:none"
             id="path812"
             inkscape:connector-curvature="0" /></g><g
           id="g814"
           transform="translate(549.4062,230.1104)"><path
             d="M 0,0 C -1.972,0.604 -3.136,0.168 -3.741,-0.258 -4.566,-0.295 -5.389,-0.46 -6.173,-0.768 -7.8,-1.403 -8.939,-2.891 -9.129,-4.628 l -0.209,-1.916 c -0.105,-0.967 0.473,-1.878 1.392,-2.195 l 0.018,-0.006 c 0.607,-0.209 0.991,-0.756 1.101,-1.388 0.096,-0.552 0.387,-1 1.002,-0.878 0.983,0.197 0.372,0.944 0.911,1.614 0.255,0.316 0.116,0.748 0.091,1.276 0.427,0.046 0.864,0.519 1.321,1.502 0.541,0.034 1.011,0.114 1.274,0.272 0.981,0.589 0.981,0.438 1.733,0.546 0.384,0.056 1.029,0.289 1.515,0.685 1.171,0.284 1.53,1.118 1.616,1.806 v 10e-4 C 3.834,-2.074 3.203,-0.98 0,0"
             style="fill:#2d404a;fill-opacity:1;fill-rule:nonzero;stroke:none"
             id="path816"
             inkscape:connector-curvature="0" /></g><g
           id="g818"
           transform="translate(581.2441,221.9014)"><path
             d="M 0,0 V -21.051"
             style="fill:none;stroke:#fe3551;stroke-width:7.32200003;stroke-linecap:round;stroke-linejoin:round;stroke-miterlimit:10;stroke-dasharray:none;stroke-opacity:1"
             id="path820"
             inkscape:connector-curvature="0" /></g><g
           id="g822"
           transform="translate(581.5508,233.5088)"><path
             d="M 0,0 2.414,1.403 2.359,-10.205 -0.056,-11.607 Z"
             style="fill:#769cb0;fill-opacity:1;fill-rule:nonzero;stroke:none"
             id="path824"
             inkscape:connector-curvature="0" /></g><g
           id="g826"
           transform="translate(582.5449,237.5947)"><path
             d="m 0,0 -0.01,-3.527 c -10e-4,-0.309 -0.109,-0.526 -0.285,-0.627 l 2.414,1.403 c 0.176,0.102 0.284,0.318 0.285,0.626 l 0.011,3.528 z"
             style="fill:#769cb0;fill-opacity:1;fill-rule:nonzero;stroke:none"
             id="path828"
             inkscape:connector-curvature="0" /></g><g
           id="g830"
           transform="translate(582.4863,243.6895)"><path
             d="m 0,0 c -3.084,1.78 -5.96,4.457 -8.386,7.617 -3.086,4.015 -5.446,8.815 -6.592,13.538 -0.508,2.078 -0.776,4.143 -0.77,6.125 0.014,4.98 1.771,8.484 4.607,10.132 l -2.414,-1.403 c -2.836,-1.648 -4.593,-5.152 -4.608,-10.132 -0.005,-1.982 0.263,-4.047 0.771,-6.125 1.146,-4.724 3.506,-9.523 6.592,-13.539 2.426,-3.159 5.302,-5.836 8.386,-7.616 4.393,-2.536 8.372,-2.773 11.245,-1.103 l 2.414,1.403 C 8.372,-2.772 4.393,-2.536 0,0"
             style="fill:#769cb0;fill-opacity:1;fill-rule:nonzero;stroke:none"
             id="path832"
             inkscape:connector-curvature="0" /></g><g
           id="g834"
           transform="translate(582.5986,283.4556)"><path
             d="m 0,0 c -5.225,3.017 -9.959,3.296 -13.379,1.309 l -2.414,-1.403 c 3.419,1.987 8.154,1.707 13.379,-1.309 10.387,-5.997 18.78,-20.535 18.746,-32.47 -0.017,-5.925 -2.108,-10.092 -5.482,-12.053 l 2.415,1.403 c 3.373,1.961 5.464,6.128 5.481,12.053 C 18.78,-20.535 10.387,-5.997 0,0"
             style="fill:#769cb0;fill-opacity:1;fill-rule:nonzero;stroke:none"
             id="path836"
             inkscape:connector-curvature="0" /></g><g
           id="g838"
           transform="translate(580.0723,242.2861)"><path
             d="m 0,0 c 8.729,-5.04 15.825,-0.996 15.854,9.035 0.009,3.544 -0.864,7.358 -2.387,11.038 -1.931,4.671 -4.906,9.117 -8.435,12.485 -1.549,1.485 -3.207,2.758 -4.929,3.753 -8.727,5.038 -15.824,0.994 -15.852,-9.031 -0.005,-1.982 0.263,-4.047 0.771,-6.125 1.146,-4.723 3.506,-9.523 6.592,-13.538 C -5.96,4.457 -3.084,1.78 0,0 M 0.112,39.766 C 10.499,33.77 18.893,19.231 18.858,7.297 18.827,-3.671 11.688,-8.614 2.473,-4.691 L 2.463,-8.219 C 2.461,-8.841 2.02,-9.09 1.479,-8.777 l -0.056,-11.608 -1.479,0.854 -1.476,0.852 0.033,11.62 c -0.564,0.326 -1.002,1.082 -1,1.705 l 0.01,3.528 c -9.21,6.714 -16.295,19.87 -16.265,30.838 0.034,11.935 8.483,16.749 18.866,10.754"
             style="fill:#4b6a7a;fill-opacity:1;fill-rule:nonzero;stroke:none"
             id="path840"
             inkscape:connector-curvature="0" /></g><g
           id="g842"><g
             id="g844" /><g
             id="g856"><g
               clip-path="url(#clipPath848)"
               id="g854"
               style="opacity:0.66999799"><g
                 transform="translate(595.9277,251.3228)"
                 id="g852"><path
                   d="m 0,0 c -0.013,-4.346 -1.354,-7.571 -3.58,-9.413 -2.86,-1.575 -6.774,-1.305 -11.091,1.187 -3.083,1.781 -5.961,4.458 -8.384,7.618 -3.088,4.017 -5.447,8.813 -6.594,13.536 -0.506,2.076 -0.776,4.145 -0.771,6.128 0.013,4.341 1.349,7.557 3.571,9.403 2.861,1.576 6.779,1.306 11.095,-1.186 1.722,-0.994 3.383,-2.265 4.929,-3.751 3.528,-3.37 6.505,-7.815 8.435,-12.487 C -0.865,7.356 0.009,3.542 0,0"
                   style="fill:#cbe6ff;fill-opacity:1;fill-rule:nonzero;stroke:none"
                   id="path850"
                   inkscape:connector-curvature="0" /></g></g></g></g></g></g></g></svg>