<?xml version="1.0" encoding="UTF-8" standalone="no"?>
<!-- Created with Inkscape (http://www.inkscape.org/) -->

<svg
   xmlns:dc="http://purl.org/dc/elements/1.1/"
   xmlns:cc="http://creativecommons.org/ns#"
   xmlns:rdf="http://www.w3.org/1999/02/22-rdf-syntax-ns#"
   xmlns:svg="http://www.w3.org/2000/svg"
   xmlns="http://www.w3.org/2000/svg"
   xmlns:sodipodi="http://sodipodi.sourceforge.net/DTD/sodipodi-0.dtd"
   xmlns:inkscape="http://www.inkscape.org/namespaces/inkscape"
   version="1.1"
   id="svg2"
   xml:space="preserve"
   width="100"
   height="100"
   viewBox="0 0 100 100"
   sodipodi:docname="logo.svg"
   inkscape:version="0.92.4 (f8dce91, 2019-08-02)"><metadata
     id="metadata8"><rdf:RDF><cc:Work
         rdf:about=""><dc:format>image/svg+xml</dc:format><dc:type
           rdf:resource="http://purl.org/dc/dcmitype/StillImage" /><dc:title></dc:title></cc:Work></rdf:RDF></metadata><defs
     id="defs6"><clipPath
       clipPathUnits="userSpaceOnUse"
       id="clipPath20"><path
         d="M 0,500 H 500 V 0 H 0 Z"
         id="path18"
         inkscape:connector-curvature="0" /></clipPath><clipPath
       clipPathUnits="userSpaceOnUse"
       id="clipPath158"><path
         d="m 246.922,385.909 h 2.75 V 151.281 h -2.75 z"
         id="path156"
         inkscape:connector-curvature="0" /></clipPath><clipPath
       clipPathUnits="userSpaceOnUse"
       id="clipPath294"><path
         d="M 0,500 H 500 V 0 H 0 Z"
         id="path292"
         inkscape:connector-curvature="0" /></clipPath><clipPath
       clipPathUnits="userSpaceOnUse"
       id="clipPath330"><path
         d="M 0,500 H 500 V 0 H 0 Z"
         id="path328"
         inkscape:connector-curvature="0" /></clipPath></defs><sodipodi:namedview
     pagecolor="#ffffff"
     bordercolor="#666666"
     borderopacity="1"
     objecttolerance="10"
     gridtolerance="10"
     guidetolerance="10"
     inkscape:pageopacity="0"
     inkscape:pageshadow="2"
     inkscape:window-width="1360"
     inkscape:window-height="731"
     id="namedview4"
     showgrid="false"
     inkscape:zoom="0.70710678"
     inkscape:cx="-422.58826"
     inkscape:cy="58.270133"
     inkscape:window-x="0"
     inkscape:window-y="132"
     inkscape:window-maximized="1"
     inkscape:current-layer="g10" /><g
     id="g10"
     inkscape:groupmode="layer"
     inkscape:label="2245067"
     transform="matrix(1.3333333,0,0,-1.3333333,0,99.99998)"><g
   id="g14"
   transform="matrix(0.18895255,0,0,0.17889171,-10.612794,-9.2236155)"><g
     id="g16"
     clip-path="url(#clipPath20)"><g
       id="g22"
       transform="translate(269.9043,58.8611)"><path
         d="m 0,0 c 0,-4.026 -8.459,-7.29 -18.893,-7.29 -10.434,0 -18.892,3.264 -18.892,7.29 0,4.026 8.458,7.291 18.892,7.291 C -8.459,7.291 0,4.026 0,0"
         style="fill:#0055d8;fill-opacity:1;fill-rule:nonzero;stroke:none"
         id="path24"
         inkscape:connector-curvature="0" /></g><g
       id="g26"
       transform="translate(265.2822,63.0017)"><path
         d="m 0,0 c 0,-3.041 -6.39,-5.507 -14.271,-5.507 -7.881,0 -14.27,2.466 -14.27,5.507 0,3.042 6.389,5.507 14.27,5.507 C -6.39,5.507 0,3.042 0,0"
         style="fill:#0065f1;fill-opacity:1;fill-rule:nonzero;stroke:none"
         id="path28"
         inkscape:connector-curvature="0" /></g><g
       id="g30"
       transform="translate(87.1855,289.4373)"><path
         d="m 0,0 c 0,-88.481 71.728,-160.21 160.21,-160.21 88.481,0 160.21,71.729 160.21,160.21 0,88.481 -71.729,160.21 -160.21,160.21 C 71.728,160.21 0,88.481 0,0"
         style="fill:#007fea;fill-opacity:1;fill-rule:nonzero;stroke:none"
         id="path32"
         inkscape:connector-curvature="0" /></g><g
       id="g34"
       transform="translate(121.4844,289.4373)"><path
         d="m 0,0 c 0,-69.538 56.372,-125.91 125.911,-125.91 69.538,0 125.911,56.372 125.911,125.91 0,69.539 -56.373,125.911 -125.911,125.911 C 56.372,125.911 0,69.539 0,0"
         style="fill:#008cfb;fill-opacity:1;fill-rule:nonzero;stroke:none"
         id="path36"
         inkscape:connector-curvature="0" /></g><g
       id="g38"
       transform="translate(233.8198,92.2527)"><path
         d="m 0,0 c 0,-8.87 7.19,-16.061 16.06,-16.061 8.87,0 16.061,7.191 16.061,16.061 0,8.87 -7.191,16.061 -16.061,16.061 C 7.19,16.061 0,8.87 0,0"
         style="fill:#002465;fill-opacity:1;fill-rule:nonzero;stroke:none"
         id="path40"
         inkscape:connector-curvature="0" /></g><path
       d="m 286.851,110.794 h -73.758 v 30.005 h 73.758 z"
       style="fill:#8bb6ff;fill-opacity:1;fill-rule:nonzero;stroke:none"
       id="path42"
       inkscape:connector-curvature="0" /><g
       id="g44"
       transform="translate(216.9585,129.7908)"><path
         d="m 0,0 c -1.292,0 -2.59,0.012 -3.906,0.036 -1.206,0.023 -2.166,1.019 -2.144,2.225 0.022,1.193 0.996,2.144 2.183,2.144 h 0.042 c 42.231,-0.818 72.553,12.021 72.855,12.15 1.107,0.473 2.393,-0.036 2.869,-1.145 0.476,-1.108 -0.035,-2.392 -1.143,-2.869 C 69.531,12.014 41.122,0 0,0"
         style="fill:#c6f9ff;fill-opacity:1;fill-rule:nonzero;stroke:none"
         id="path46"
         inkscape:connector-curvature="0" /></g><g
       id="g48"
       transform="translate(216.9585,117.4304)"><path
         d="m 0,0 c -1.292,0 -2.59,0.012 -3.906,0.036 -1.206,0.023 -2.166,1.019 -2.144,2.225 0.022,1.193 0.996,2.144 2.183,2.144 h 0.042 c 42.231,-0.818 72.553,12.02 72.855,12.15 1.107,0.473 2.393,-0.036 2.869,-1.145 0.476,-1.108 -0.035,-2.392 -1.143,-2.87 C 69.531,12.014 41.122,0 0,0"
         style="fill:#c6f9ff;fill-opacity:1;fill-rule:nonzero;stroke:none"
         id="path50"
         inkscape:connector-curvature="0" /></g><g
       id="g52"
       transform="translate(216.9585,105.0701)"><path
         d="m 0,0 c -1.292,0 -2.59,0.012 -3.906,0.036 -1.206,0.023 -2.166,1.019 -2.144,2.225 0.022,1.193 0.996,2.144 2.183,2.144 h 0.042 c 42.231,-0.818 72.553,12.02 72.855,12.15 1.107,0.473 2.393,-0.036 2.869,-1.145 0.476,-1.108 -0.035,-2.392 -1.143,-2.87 C 69.531,12.014 41.122,0 0,0"
         style="fill:#c6f9ff;fill-opacity:1;fill-rule:nonzero;stroke:none"
         id="path54"
         inkscape:connector-curvature="0" /></g><g
       id="g56"
       transform="translate(214.1631,138.157)"><path
         d="m 0,0 h 71.617 c 3.649,0 6.633,2.984 6.633,6.633 0,3.648 -2.984,6.634 -6.633,6.634 H 0 c -3.648,0 -6.633,-2.986 -6.633,-6.634 C -6.633,2.984 -3.648,0 0,0"
         style="fill:#a4d3ff;fill-opacity:1;fill-rule:nonzero;stroke:none"
         id="path58"
         inkscape:connector-curvature="0" /></g><g
       id="g60"
       transform="translate(267.1396,87.821)"><path
         d="m 0,0 h -34.336 c -8.109,0 -14.682,6.573 -14.682,14.682 v 7.721 h 63.7 V 14.682 C 14.682,6.573 8.108,0 0,0"
         style="fill:#8bb6ff;fill-opacity:1;fill-rule:nonzero;stroke:none"
         id="path62"
         inkscape:connector-curvature="0" /></g><g
       id="g64"
       transform="translate(214.1631,99.0232)"><path
         d="m 0,0 h 71.617 c 3.649,0 6.633,2.984 6.633,6.633 0,3.648 -2.984,6.634 -6.633,6.634 H 0 c -3.648,0 -6.633,-2.986 -6.633,-6.634 C -6.633,2.984 -3.648,0 0,0"
         style="fill:#a4d3ff;fill-opacity:1;fill-rule:nonzero;stroke:none"
         id="path66"
         inkscape:connector-curvature="0" /></g><g
       id="g68"
       transform="translate(248.2729,385.907)"><path
         d="m 0,0 c -52.367,-0.73 -95.282,-43.155 -96.581,-95.511 -0.713,-28.794 10.995,-54.86 30.147,-73.227 15.057,-14.44 23.908,-34.16 23.908,-55.023 v -1.47 c 0,-5.189 4.206,-9.395 9.394,-9.395 H 1.398 V 0.002 C 0.933,0.002 0.468,0.007 0,0"
         style="fill:#ff97eb;fill-opacity:1;fill-rule:nonzero;stroke:none"
         id="path70"
         inkscape:connector-curvature="0" /></g><g
       id="g72"
       transform="translate(249.6714,385.9089)"><path
         d="M 0,0 C 0,0 -10.738,9.642 -23.004,5.896 -35.271,2.148 -45.917,-8.982 -45.917,-8.982 c 0,0 -11.872,1.33 -17.472,-4.481 -5.601,-5.811 -4.453,-11.615 -4.453,-11.615 0,0 -18.607,-3.67 -23.811,-10.26 -5.203,-6.591 0,-28.845 0,-28.845 0,0 -11.034,-10.259 -12.389,-25.552 -1.355,-15.294 6.032,-23.231 6.032,-23.231 0,0 -2.508,-5.813 -1.386,-11.879 1.122,-6.065 6.582,-6.898 6.582,-6.898 0,0 -1.742,-11.886 9.873,-13.88 -0.194,-7.995 3.27,-27.83 24.478,-33.593 0.107,-6.538 1.963,-17.672 13.908,-23.236 -3.782,-6.897 1.686,-3.821 1.686,-3.821 l -5.227,-6.776 c 0,0 -6.012,-16.192 6.634,-21.579 12.645,-5.386 22.103,-0.383 22.103,-0.383 0,0 3.265,-6.132 10.526,-6.108 7.262,0.023 9.133,7.356 9.133,7.356 L -19.639,-70.57"
         style="fill:#ff97eb;fill-opacity:1;fill-rule:nonzero;stroke:none"
         id="path74"
         inkscape:connector-curvature="0" /></g><g
       id="g76"
       transform="translate(252.6211,301.4373)"><path
         d="m 0,0 c 0,-1.207 -0.979,-2.186 -2.185,-2.186 -4.733,0 -8.584,-3.85 -8.584,-8.583 0,-4.733 3.851,-8.584 8.584,-8.584 1.206,0 2.185,-0.978 2.185,-2.185 0,-1.206 -0.979,-2.185 -2.185,-2.185 -7.142,0 -12.953,5.812 -12.953,12.954 0,7.142 5.811,12.954 12.953,12.954 C -0.979,2.185 0,1.206 0,0"
         style="fill:#d754b9;fill-opacity:1;fill-rule:nonzero;stroke:none"
         id="path78"
         inkscape:connector-curvature="0" /></g><g
       id="g80"
       transform="translate(242.2612,298.365)"><path
         d="m 0,0 c -0.641,0.395 -1.243,0.872 -1.779,1.448 -3.225,3.465 -3.031,8.907 0.433,12.132 0.883,0.822 0.933,2.205 0.111,3.088 -0.823,0.884 -2.205,0.933 -3.088,0.11 C -9.551,11.912 -9.845,3.699 -4.978,-1.528 -4.156,-2.411 -3.232,-3.142 -2.25,-3.742 -1.698,-2.394 -0.946,-1.145 0,0"
         style="fill:#d754b9;fill-opacity:1;fill-rule:nonzero;stroke:none"
         id="path82"
         inkscape:connector-curvature="0" /></g><g
       id="g84"
       transform="translate(199.0239,362.9246)"><path
         d="m 0,0 c -1.197,0.157 -2.039,1.254 -1.882,2.451 2.314,17.615 18.527,30.065 36.142,27.751 6.5,-0.853 12.501,-3.616 17.354,-7.988 0.896,-0.808 0.969,-2.19 0.161,-3.085 -0.808,-0.897 -2.19,-0.97 -3.086,-0.161 -4.192,3.777 -9.379,6.164 -14.998,6.901 C 18.465,27.869 4.45,17.107 2.451,1.882 2.293,0.686 1.196,-0.157 0,0"
         style="fill:#d754b9;fill-opacity:1;fill-rule:nonzero;stroke:none"
         id="path86"
         inkscape:connector-curvature="0" /></g><g
       id="g88"
       transform="translate(198.1509,348.8552)"><path
         d="m 0,0 c -7.271,-0.308 -13.437,5.357 -13.744,12.628 -0.308,7.27 5.356,13.436 12.627,13.744 1.996,0.084 3.954,-0.278 5.759,-1.054 0.683,1.03 1.39,2.039 2.175,2.992 0.142,0.204 0.296,0.4 0.448,0.597 -2.647,1.322 -5.574,1.957 -8.567,1.83 C -10.979,30.328 -18.52,22.121 -18.11,12.443 -17.7,2.765 -9.493,-4.775 0.185,-4.365 1.391,-4.314 2.326,-3.296 2.275,-2.09 2.224,-0.884 1.206,0.052 0,0"
         style="fill:#d754b9;fill-opacity:1;fill-rule:nonzero;stroke:none"
         id="path90"
         inkscape:connector-curvature="0" /></g><g
       id="g92"
       transform="translate(158.1675,319.8757)"><path
         d="m 0,0 c -0.681,0 -1.352,0.316 -1.778,0.912 -3.176,4.434 -4.854,9.669 -4.854,15.139 0,14.349 11.674,26.025 26.025,26.025 h 4.652 c 1.207,0 2.185,-0.978 2.185,-2.185 0,-1.206 -0.978,-2.185 -2.185,-2.185 h -4.652 c -11.941,0 -21.656,-9.715 -21.656,-21.655 0,-4.552 1.396,-8.907 4.037,-12.594 C 2.477,2.476 2.251,1.111 1.271,0.408 0.885,0.132 0.44,0 0,0"
         style="fill:#d754b9;fill-opacity:1;fill-rule:nonzero;stroke:none"
         id="path94"
         inkscape:connector-curvature="0" /></g><g
       id="g96"
       transform="translate(175.3887,262.0769)"><path
         d="m 0,0 c -18.136,0 -32.891,14.756 -32.891,32.891 0,18.135 14.755,32.89 32.891,32.89 6.691,0 13.132,-1.998 18.625,-5.778 0.995,-0.685 1.246,-2.044 0.562,-3.038 C 18.503,55.971 17.143,55.72 16.148,56.403 11.386,59.681 5.802,61.412 0,61.412 -15.727,61.412 -28.521,48.617 -28.521,32.891 -28.521,17.165 -15.727,4.37 0,4.37 1.207,4.37 2.185,3.392 2.185,2.186 2.185,0.979 1.207,0 0,0"
         style="fill:#d754b9;fill-opacity:1;fill-rule:nonzero;stroke:none"
         id="path98"
         inkscape:connector-curvature="0" /></g><g
       id="g100"
       transform="translate(158.1714,252.78)"><path
         d="m 0,0 c -6.331,0 -11.482,5.15 -11.482,11.482 0,3.808 1.882,7.36 5.035,9.502 1,0.68 2.357,0.419 3.035,-0.579 0.678,-0.998 0.419,-2.356 -0.579,-3.034 -1.955,-1.329 -3.122,-3.53 -3.122,-5.889 0,-3.921 3.191,-7.113 7.113,-7.113 1.207,0 2.185,-0.977 2.185,-2.184 C 2.185,0.978 1.207,0 0,0"
         style="fill:#d754b9;fill-opacity:1;fill-rule:nonzero;stroke:none"
         id="path102"
         inkscape:connector-curvature="0" /></g><g
       id="g104"
       transform="translate(165.7139,238.1003)"><path
         d="m 0,0 c -6.331,0 -11.481,5.151 -11.481,11.482 0,6.331 5.15,11.482 11.481,11.482 1.207,0 2.185,-0.978 2.185,-2.185 0,-1.207 -0.978,-2.184 -2.185,-2.184 -3.921,0 -7.112,-3.191 -7.112,-7.113 C -7.112,7.562 -3.921,4.37 0,4.37 1.207,4.37 2.185,3.392 2.185,2.186 2.185,0.979 1.207,0 0,0"
         style="fill:#d754b9;fill-opacity:1;fill-rule:nonzero;stroke:none"
         id="path106"
         inkscape:connector-curvature="0" /></g><g
       id="g108"
       transform="translate(194.2593,204.9997)"><path
         d="m 0,0 c -16.058,0 -29.122,13.063 -29.122,29.121 0,5.455 1.519,10.775 4.392,15.385 0.638,1.024 1.987,1.335 3.01,0.698 1.024,-0.638 1.337,-1.985 0.698,-3.01 -2.44,-3.915 -3.73,-8.436 -3.73,-13.073 C -24.752,15.473 -13.648,4.369 0,4.369 1.207,4.369 2.185,3.392 2.185,2.185 2.185,0.978 1.207,0 0,0"
         style="fill:#d754b9;fill-opacity:1;fill-rule:nonzero;stroke:none"
         id="path110"
         inkscape:connector-curvature="0" /></g><g
       id="g112"
       transform="translate(205.8882,178.3288)"><path
         d="m 0,0 c -0.335,0 -0.675,0.077 -0.994,0.24 -9.789,5.011 -15.871,14.95 -15.871,25.939 0,1.207 0.978,2.185 2.185,2.185 1.207,0 2.185,-0.978 2.185,-2.185 0,-9.341 5.17,-17.789 13.492,-22.048 C 2.071,3.581 2.496,2.264 1.947,1.19 1.56,0.435 0.794,0 0,0"
         style="fill:#d754b9;fill-opacity:1;fill-rule:nonzero;stroke:none"
         id="path114"
         inkscape:connector-curvature="0" /></g><g
       id="g116"
       transform="translate(218.145,145.7058)"><path
         d="m 0,0 c -11.035,0 -20.012,8.978 -20.012,20.013 0,11.034 8.977,20.01 20.012,20.01 1.207,0 2.185,-0.977 2.185,-2.184 0,-1.206 -0.978,-2.185 -2.185,-2.185 -8.625,0 -15.643,-7.016 -15.643,-15.641 0,-8.626 7.018,-15.643 15.643,-15.643 5.205,0 10.054,2.579 12.972,6.899 0.675,0.999 2.031,1.263 3.033,0.586 1,-0.674 1.263,-2.033 0.588,-3.033 C 12.861,3.298 6.658,0 0,0"
         style="fill:#d754b9;fill-opacity:1;fill-rule:nonzero;stroke:none"
         id="path118"
         inkscape:connector-curvature="0" /></g><g
       id="g120"
       transform="translate(239.0151,143.1999)"><path
         d="m 0,0 c -4.596,0 -8.737,2.902 -10.303,7.222 -0.359,0.99 0.154,2.084 1.144,2.443 0.989,0.356 2.084,-0.152 2.443,-1.144 C -5.695,5.706 -2.997,3.815 0,3.815 c 3.938,0 7.142,3.204 7.142,7.141 0,1.054 0.854,1.907 1.907,1.907 1.054,0 1.908,-0.853 1.908,-1.907 C 10.957,4.915 6.042,0 0,0"
         style="fill:#d754b9;fill-opacity:1;fill-rule:nonzero;stroke:none"
         id="path122"
         inkscape:connector-curvature="0" /></g><g
       id="g124"
       transform="translate(215.4604,283.7947)"><path
         d="m 0,0 c -14.786,0 -26.815,12.029 -26.815,26.815 0,14.787 12.029,26.816 26.815,26.816 1.207,0 2.185,-0.979 2.185,-2.185 0,-1.207 -0.978,-2.184 -2.185,-2.184 -12.376,0 -22.446,-10.07 -22.446,-22.447 C -22.446,14.439 -12.376,4.37 0,4.37 1.207,4.37 2.185,3.392 2.185,2.185 2.185,0.979 1.207,0 0,0"
         style="fill:#d754b9;fill-opacity:1;fill-rule:nonzero;stroke:none"
         id="path126"
         inkscape:connector-curvature="0" /></g><g
       id="g128"
       transform="translate(222.4946,205.3288)"><path
         d="m 0,0 c -0.559,0 -1.118,0.213 -1.545,0.641 -0.853,0.852 -0.853,2.236 10e-4,3.088 4.399,4.401 6.823,10.25 6.823,16.473 0,6.222 -2.424,12.072 -6.823,16.473 -4.401,4.4 -10.251,6.823 -16.473,6.823 -6.223,0 -12.073,-2.423 -16.473,-6.823 -0.853,-0.854 -2.237,-0.854 -3.09,0 -0.853,0.853 -0.853,2.236 0,3.089 5.226,5.226 12.173,8.103 19.563,8.103 7.389,0 14.337,-2.877 19.562,-8.103 C 6.771,34.538 9.648,27.592 9.648,20.202 9.648,12.812 6.771,5.865 1.545,0.641 1.119,0.213 0.559,0 0,0"
         style="fill:#d754b9;fill-opacity:1;fill-rule:nonzero;stroke:none"
         id="path130"
         inkscape:connector-curvature="0" /></g><g
       id="g132"
       transform="translate(235.2979,247.3952)"><path
         d="m 0,0 c -1.207,0 -2.185,0.979 -2.185,2.186 0,4.732 -3.85,8.584 -8.584,8.584 -4.732,0 -8.584,-3.852 -8.584,-8.584 0,-1.207 -0.978,-2.186 -2.184,-2.186 -1.207,0 -2.185,0.979 -2.185,2.186 0,7.141 5.811,12.953 12.953,12.953 7.143,0 12.954,-5.812 12.954,-12.953 C 2.185,0.979 1.207,0 0,0"
         style="fill:#d754b9;fill-opacity:1;fill-rule:nonzero;stroke:none"
         id="path134"
         inkscape:connector-curvature="0" /></g><g
       id="g136"
       transform="translate(237.436,195.1853)"><path
         d="m 0,0 c -1.207,0 -2.185,0.979 -2.185,2.186 0,4.732 -3.851,8.584 -8.584,8.584 -4.733,0 -8.584,-3.852 -8.584,-8.584 0,-1.207 -0.978,-2.186 -2.185,-2.186 -1.206,0 -2.184,0.979 -2.184,2.186 0,7.141 5.811,12.953 12.953,12.953 7.143,0 12.954,-5.812 12.954,-12.953 C 2.185,0.979 1.207,0 0,0"
         style="fill:#d754b9;fill-opacity:1;fill-rule:nonzero;stroke:none"
         id="path138"
         inkscape:connector-curvature="0" /></g><g
       id="g140"
       transform="translate(219.5869,309.1072)"><path
         d="m 0,0 c -7.143,0 -12.954,5.811 -12.954,12.953 0,1.207 0.978,2.185 2.185,2.185 1.207,0 2.185,-0.978 2.185,-2.185 0,-4.733 3.851,-8.584 8.584,-8.584 4.733,0 8.584,3.851 8.584,8.584 0,1.207 0.978,2.185 2.185,2.185 1.207,0 2.185,-0.978 2.185,-2.185 C 12.954,5.811 7.143,0 0,0"
         style="fill:#d754b9;fill-opacity:1;fill-rule:nonzero;stroke:none"
         id="path142"
         inkscape:connector-curvature="0" /></g><g
       id="g144"
       transform="translate(226.667,350.6921)"><path
         d="m 0,0 c -7.143,0 -12.954,5.812 -12.954,12.954 0,1.206 0.978,2.185 2.185,2.185 1.207,0 2.185,-0.979 2.185,-2.185 0,-4.733 3.851,-8.584 8.584,-8.584 4.733,0 8.584,3.851 8.584,8.584 0,1.206 0.979,2.185 2.185,2.185 1.207,0 2.185,-0.979 2.185,-2.185 C 12.954,5.812 7.143,0 0,0"
         style="fill:#d754b9;fill-opacity:1;fill-rule:nonzero;stroke:none"
         id="path146"
         inkscape:connector-curvature="0" /></g><g
       id="g148"
       transform="translate(229.1558,336.7478)"><path
         d="m 0,0 c -5.051,5.051 -5.051,13.269 0,18.319 0.853,0.853 2.236,0.853 3.09,0 0.853,-0.853 0.853,-2.237 0,-3.09 -3.347,-3.347 -3.347,-8.792 0,-12.139 3.347,-3.348 8.792,-3.348 12.139,0 0.854,0.852 2.237,0.852 3.09,0 0.853,-0.854 0.853,-2.237 0,-3.09 C 13.269,-5.051 5.051,-5.051 0,0"
         style="fill:#d754b9;fill-opacity:1;fill-rule:nonzero;stroke:none"
         id="path150"
         inkscape:connector-curvature="0" /></g><g
       id="g152"><g
         id="g154" /><g
         id="g166"><g
           clip-path="url(#clipPath158)"
           id="g164"
           style="opacity:0.16000402"><g
             transform="translate(249.6714,385.9089)"
             id="g162"><path
               d="M 0,0 C 0,0 -6.187,-157.407 0,-234.628 Z"
               style="fill:#d754b9;fill-opacity:1;fill-rule:nonzero;stroke:none"
               id="path160"
               inkscape:connector-curvature="0" /></g></g></g></g><g
       id="g168"
       transform="translate(249.6714,385.9089)"><path
         d="m 0,0 v -234.628 h 34.531 c 5.188,0 9.393,4.206 9.393,9.395 v 1.471 c 0,20.855 8.839,40.576 23.894,55.007 18.607,17.838 30.192,42.941 30.192,70.752 C 98.01,-43.874 54.128,-0.001 0,0"
         style="fill:#ffd300;fill-opacity:1;fill-rule:nonzero;stroke:none"
         id="path170"
         inkscape:connector-curvature="0" /></g><g
       id="g172"
       transform="translate(297.4346,268.5945)"><path
         d="M 0,0 C 0,0 -27.604,-45.521 -34.435,-114.693"
         style="fill:none;stroke:#fff83c;stroke-width:4;stroke-linecap:round;stroke-linejoin:round;stroke-miterlimit:10;stroke-dasharray:none;stroke-opacity:1"
         id="path174"
         inkscape:connector-curvature="0" /></g><g
       id="g176"
       transform="translate(282.1934,264.2908)"><path
         d="m 0,0 c -1.796,1.822 -3.292,4.433 -3.841,8.174 -1.053,7.164 0.961,10.399 1.875,11.458 0.822,0.952 1.676,1.291 2.2,1.291 1.063,0 1.928,-0.476 2.643,-1.455 C 4.799,16.838 5.002,11.433 3.372,6.324 2.558,3.772 1.421,1.655 0,0 m -23.503,9.505 c -0.259,5.37 0.556,9.591 2.178,11.293 0.554,0.582 1.184,0.853 1.984,0.853 0.853,0 1.574,-0.411 2.207,-1.257 1.79,-2.389 2.293,-7.583 1.122,-11.579 -0.832,-2.835 -2.463,-5.285 -4.461,-7.27 -1.786,2.445 -2.903,5.327 -3.03,7.96 M 9.274,-4.196 c -0.243,0.012 -3.347,0.202 -6.5,2.049 1.662,1.984 2.99,4.467 3.928,7.408 2.01,6.299 1.616,12.684 -1.002,16.269 -1.381,1.89 -3.27,2.889 -5.466,2.889 -1.705,0 -3.471,-0.912 -4.845,-2.502 -1.527,-1.767 -3.906,-5.968 -2.688,-14.251 0.663,-4.528 2.488,-7.726 4.691,-9.98 -2.454,-1.619 -5.446,-2.275 -8.862,-1.891 -2.476,0.277 -4.761,1.468 -6.66,3.158 2.433,2.37 4.437,5.346 5.472,8.879 1.492,5.088 0.77,11.39 -1.678,14.658 -1.302,1.738 -3.032,2.656 -5.005,2.656 -1.746,0 -3.307,-0.669 -4.515,-1.936 -2.995,-3.143 -3.36,-9.279 -3.139,-13.872 0.161,-3.331 1.564,-6.974 3.851,-10.038 -3.174,-2.256 -6.721,-3.499 -9.378,-3.499 v -3.496 c 3.272,0 7.752,1.511 11.702,4.383 2.466,-2.323 5.535,-3.984 8.961,-4.367 0.776,-0.087 1.536,-0.131 2.279,-0.131 3.752,10e-4 7.066,1.1 9.788,3.191 4.313,-2.817 8.829,-3.066 8.909,-3.069 0.987,-0.037 1.775,0.703 1.82,1.665 0.044,0.961 -0.701,1.779 -1.663,1.827"
         style="fill:#fff83c;fill-opacity:1;fill-rule:nonzero;stroke:none"
         id="path178"
         inkscape:connector-curvature="0" /></g><g
       id="g180"
       transform="translate(309.7559,357.7537)"><path
         d="m 0,0 c 12.531,-9.854 17.173,-24.858 10.368,-33.512 -6.805,-8.654 -22.48,-7.681 -35.012,2.173 C -37.175,-21.484 -41.816,-6.48 -35.012,2.173 -28.206,10.827 -12.531,9.854 0,0"
         style="fill:#ffe600;fill-opacity:1;fill-rule:nonzero;stroke:none"
         id="path182"
         inkscape:connector-curvature="0" /></g><g
       id="g184"
       transform="translate(307.8291,354.2781)"><path
         d="m 0,0 c 7.931,-6.236 11.368,-15.095 7.679,-19.786 -3.689,-4.692 -13.109,-3.44 -21.039,2.797 -7.93,6.236 -11.369,15.094 -7.679,19.786 C -17.351,7.488 -7.931,6.236 0,0"
         style="fill:#ffec47;fill-opacity:1;fill-rule:nonzero;stroke:none"
         id="path186"
         inkscape:connector-curvature="0" /></g><g
       id="g188"
       transform="translate(250.2383,402.7322)"><path
         d="m 0,0 v 0 c -3.093,0 -5.624,2.53 -5.624,5.624 v 29.569 c 0,3.094 2.531,5.624 5.624,5.624 3.094,0 5.624,-2.53 5.624,-5.624 V 5.624 C 5.624,2.53 3.094,0 0,0"
         style="fill:#ffd300;fill-opacity:1;fill-rule:nonzero;stroke:none"
         id="path190"
         inkscape:connector-curvature="0" /></g><g
       id="g192"
       transform="translate(358.5674,289.4373)"><path
         d="m 0,0 v 0 c 0,3.094 2.53,5.624 5.624,5.624 h 29.569 c 3.094,0 5.625,-2.53 5.625,-5.624 0,-3.093 -2.531,-5.624 -5.625,-5.624 H 5.624 C 2.53,-5.624 0,-3.093 0,0"
         style="fill:#ffd300;fill-opacity:1;fill-rule:nonzero;stroke:none"
         id="path194"
         inkscape:connector-curvature="0" /></g><g
       id="g196"
       transform="translate(95.4292,289.4373)"><path
         d="m 0,0 v 0 c 0,3.094 2.531,5.624 5.625,5.624 h 29.569 c 3.094,0 5.624,-2.53 5.624,-5.624 0,-3.093 -2.53,-5.624 -5.624,-5.624 H 5.625 C 2.531,-5.624 0,-3.093 0,0"
         style="fill:#ffd300;fill-opacity:1;fill-rule:nonzero;stroke:none"
         id="path198"
         inkscape:connector-curvature="0" /></g><g
       id="g200"
       transform="translate(326.0088,368.0398)"><path
         d="m 0,0 v 0 c -2.187,2.187 -2.187,5.767 0,7.953 l 20.909,20.909 c 2.188,2.188 5.767,2.188 7.954,0 2.188,-2.187 2.188,-5.766 0,-7.953 L 7.954,0 C 5.767,-2.188 2.188,-2.188 0,0"
         style="fill:#ffd300;fill-opacity:1;fill-rule:nonzero;stroke:none"
         id="path202"
         inkscape:connector-curvature="0" /></g><g
       id="g204"
       transform="translate(139.9429,181.9734)"><path
         d="m 0,0 v 0 c -2.188,2.187 -2.188,5.766 0,7.953 l 20.909,20.909 c 2.187,2.188 5.766,2.188 7.953,0 2.188,-2.187 2.188,-5.766 0,-7.954 L 7.954,0 C 5.766,-2.188 2.187,-2.188 0,0"
         style="fill:#ffd300;fill-opacity:1;fill-rule:nonzero;stroke:none"
         id="path206"
         inkscape:connector-curvature="0" /></g><g
       id="g208"
       transform="translate(326.0088,210.8357)"><path
         d="m 0,0 v 0 c 2.188,2.188 5.767,2.188 7.954,0 l 20.909,-20.909 c 2.188,-2.188 2.188,-5.767 0,-7.953 -2.187,-2.188 -5.766,-2.188 -7.954,0 L 0,-7.954 C -2.187,-5.767 -2.187,-2.188 0,0"
         style="fill:#ffd300;fill-opacity:1;fill-rule:nonzero;stroke:none"
         id="path210"
         inkscape:connector-curvature="0" /></g><g
       id="g212"
       transform="translate(139.9429,396.9021)"><path
         d="m 0,0 v 0 c 2.187,2.188 5.766,2.188 7.954,0 l 20.908,-20.909 c 2.188,-2.187 2.188,-5.767 0,-7.953 -2.187,-2.188 -5.766,-2.188 -7.953,0 L 0,-7.953 C -2.188,-5.767 -2.188,-2.188 0,0"
         style="fill:#ffd300;fill-opacity:1;fill-rule:nonzero;stroke:none"
         id="path214"
         inkscape:connector-curvature="0" /></g><g
       id="g216"
       transform="translate(132.1289,355.7068)"><path
         d="m 0,0 c 0,-20.979 -17.006,-37.984 -37.984,-37.984 -20.978,0 -37.985,17.005 -37.985,37.984 0,20.979 17.007,37.984 37.985,37.984 C -17.006,37.984 0,20.979 0,0"
         style="fill:#0055d8;fill-opacity:1;fill-rule:nonzero;stroke:none"
         id="path218"
         inkscape:connector-curvature="0" /></g><g
       id="g220"
       transform="translate(126.2656,355.7068)"><path
         d="m 0,0 c 0,-17.74 -14.381,-32.121 -32.121,-32.121 -17.74,0 -32.121,14.381 -32.121,32.121 0,17.74 14.381,32.121 32.121,32.121 C -14.381,32.121 0,17.74 0,0"
         style="fill:#0063e1;fill-opacity:1;fill-rule:nonzero;stroke:none"
         id="path222"
         inkscape:connector-curvature="0" /></g><g
       id="g224"
       transform="translate(106.8105,319.865)"><path
         d="m 0,0 c 0,0 4.254,-6.987 14.472,-2.798 0,0 -3.375,5.737 -6.49,11.47 C 1.284,9.864 0,0 0,0"
         style="fill:#0055d8;fill-opacity:1;fill-rule:nonzero;stroke:none"
         id="path226"
         inkscape:connector-curvature="0" /></g><g
       id="g228"
       transform="translate(268.3877,429.3347)"><path
         d="m 0,0 c 0,-22.914 18.575,-41.489 41.489,-41.489 22.913,0 41.489,18.575 41.489,41.489 0,22.914 -18.576,41.489 -41.489,41.489 C 18.575,41.489 0,22.914 0,0"
         style="fill:#0055d8;fill-opacity:1;fill-rule:nonzero;stroke:none"
         id="path230"
         inkscape:connector-curvature="0" /></g><g
       id="g232"
       transform="translate(274.792,429.3347)"><path
         d="m 0,0 c 0,-19.377 15.708,-35.085 35.085,-35.085 19.376,0 35.084,15.708 35.084,35.085 0,19.377 -15.708,35.084 -35.084,35.084 C 15.708,35.084 0,19.377 0,0"
         style="fill:#0063e1;fill-opacity:1;fill-rule:nonzero;stroke:none"
         id="path234"
         inkscape:connector-curvature="0" /></g><g
       id="g236"
       transform="translate(296.042,390.1863)"><path
         d="m 0,0 c 0,0 -4.646,-7.632 -15.808,-3.057 0,0 3.688,6.268 7.089,12.529 C -1.402,10.774 0,0 0,0"
         style="fill:#0055d8;fill-opacity:1;fill-rule:nonzero;stroke:none"
         id="path238"
         inkscape:connector-curvature="0" /></g><g
       id="g240"
       transform="translate(141.4243,235.6111)"><path
         d="m 0,0 c 0,-14.131 -11.455,-25.586 -25.586,-25.586 -14.131,0 -25.586,11.455 -25.586,25.586 0,14.131 11.455,25.586 25.586,25.586 C -11.455,25.586 0,14.131 0,0"
         style="fill:#0055d8;fill-opacity:1;fill-rule:nonzero;stroke:none"
         id="path242"
         inkscape:connector-curvature="0" /></g><g
       id="g244"
       transform="translate(137.4746,235.6111)"><path
         d="m 0,0 c 0,-11.949 -9.687,-21.637 -21.636,-21.637 -11.949,0 -21.636,9.688 -21.636,21.637 0,11.949 9.687,21.637 21.636,21.637 C -9.687,21.637 0,11.949 0,0"
         style="fill:#0063e1;fill-opacity:1;fill-rule:nonzero;stroke:none"
         id="path246"
         inkscape:connector-curvature="0" /></g><g
       id="g248"
       transform="translate(130.7568,238.8122)"><path
         d="m 0,0 c 0,4.497 -3.646,8.143 -8.144,8.143 -2.978,0 -5.575,-1.604 -6.995,-3.99 -1.42,2.386 -4.017,3.99 -6.995,3.99 -4.498,0 -8.143,-3.646 -8.143,-8.143 0,-2.113 0.811,-4.032 2.131,-5.479 h -10e-4 L -15.139,-20.152 -2.13,-5.479 H -2.131 C -0.812,-4.032 0,-2.113 0,0"
         style="fill:#ffd300;fill-opacity:1;fill-rule:nonzero;stroke:none"
         id="path250"
         inkscape:connector-curvature="0" /></g><g
       id="g252"
       transform="translate(124.3701,211.4685)"><path
         d="m 0,0 c 0,0 2.866,-4.706 9.748,-1.885 0,0 -2.273,3.865 -4.372,7.727 C 0.865,6.645 0,0 0,0"
         style="fill:#0055d8;fill-opacity:1;fill-rule:nonzero;stroke:none"
         id="path254"
         inkscape:connector-curvature="0" /></g><g
       id="g256"
       transform="translate(376.4297,351.1765)"><path
         d="m 0,0 c 0,-10.199 8.268,-18.467 18.468,-18.467 10.199,0 18.467,8.268 18.467,18.467 0,10.199 -8.268,18.468 -18.467,18.468 C 8.268,18.468 0,10.199 0,0"
         style="fill:#0055d8;fill-opacity:1;fill-rule:nonzero;stroke:none"
         id="path258"
         inkscape:connector-curvature="0" /></g><g
       id="g260"
       transform="translate(379.2803,351.1765)"><path
         d="m 0,0 c 0,-8.625 6.992,-15.616 15.617,-15.616 8.624,0 15.616,6.991 15.616,15.616 0,8.625 -6.992,15.617 -15.616,15.617 C 6.992,15.617 0,8.625 0,0"
         style="fill:#0063e1;fill-opacity:1;fill-rule:nonzero;stroke:none"
         id="path262"
         inkscape:connector-curvature="0" /></g><g
       id="g264"
       transform="translate(404.7139,361.0496)"><path
         d="m 0,0 h -11.733 l -5.946,-8.402 h 6.147 l -8.102,-12.237 19.556,14.785 h -4.487 z"
         style="fill:#ffd300;fill-opacity:1;fill-rule:nonzero;stroke:none"
         id="path266"
         inkscape:connector-curvature="0" /></g><g
       id="g268"
       transform="translate(388.7393,333.7507)"><path
         d="m 0,0 c 0,0 -2.068,-3.396 -7.036,-1.36 0,0 1.64,2.79 3.155,5.577 C -0.625,4.796 0,0 0,0"
         style="fill:#0055d8;fill-opacity:1;fill-rule:nonzero;stroke:none"
         id="path270"
         inkscape:connector-curvature="0" /></g><g
       id="g272"
       transform="translate(353.9609,223.4138)"><path
         d="m 0,0 c 0,-27.372 22.189,-49.562 49.562,-49.562 27.372,0 49.561,22.19 49.561,49.562 0,27.372 -22.189,49.562 -49.561,49.562 C 22.189,49.562 0,27.372 0,0"
         style="fill:#0055d8;fill-opacity:1;fill-rule:nonzero;stroke:none"
         id="path274"
         inkscape:connector-curvature="0" /></g><g
       id="g276"
       transform="translate(361.6113,223.4138)"><path
         d="m 0,0 c 0,-23.146 18.765,-41.911 41.911,-41.911 23.147,0 41.911,18.765 41.911,41.911 0,23.146 -18.764,41.911 -41.911,41.911 C 18.765,41.911 0,23.146 0,0"
         style="fill:#0063e1;fill-opacity:1;fill-rule:nonzero;stroke:none"
         id="path278"
         inkscape:connector-curvature="0" /></g><g
       id="g280"
       transform="translate(386.9961,176.6482)"><path
         d="m 0,0 c 0,0 -5.551,-9.116 -18.883,-3.651 0,0 4.404,7.487 8.468,14.966 C -1.676,12.871 0,0 0,0"
         style="fill:#0055d8;fill-opacity:1;fill-rule:nonzero;stroke:none"
         id="path282"
         inkscape:connector-curvature="0" /></g></g></g><text
   transform="scale(1.0277353,-0.97301322)"
   style="font-variant:normal;font-weight:bold;font-stretch:normal;font-size:4.30281115px;font-family:Quicksand;-inkscape-font-specification:Quicksand-Bold;writing-mode:lr-tb;fill:#ffd300;fill-opacity:1;fill-rule:nonzero;stroke:none;stroke-width:0.18385331"
   id="text286"
   x="41.723209"
   y="-68.031784"><tspan
     x="41.723209 43.121632 46.086277 48.723888"
     y="-68.031784"
     sodipodi:role="line"
     id="tspan284"
     style="stroke-width:0.18385331">IDEA</tspan></text>

<g
   id="g288"
   transform="matrix(0.18895255,0,0,0.17889171,-10.612794,-9.2236155)"><g
     id="g290"
     clip-path="url(#clipPath294)"><g
       id="g296"
       transform="translate(383.2549,211.6091)"><path
         d="m 0,0 -4.777,-16.419 16.42,4.777 z"
         style="fill:#fff7b6;fill-opacity:1;fill-rule:nonzero;stroke:none"
         id="path298"
         inkscape:connector-curvature="0" /></g><g
       id="g300"
       transform="translate(383.2549,211.6091)"><path
         d="M 0,0 26.976,26.977 38.618,15.334 11.643,-11.642 Z"
         style="fill:#ffcd00;fill-opacity:1;fill-rule:nonzero;stroke:none"
         id="path302"
         inkscape:connector-curvature="0" /></g><g
       id="g304"
       transform="translate(387.0723,207.7917)"><path
         d="M 0,0 26.976,26.977 30.983,22.969 4.008,-4.007 Z"
         style="fill:#ffea00;fill-opacity:1;fill-rule:nonzero;stroke:none"
         id="path306"
         inkscape:connector-curvature="0" /></g><g
       id="g308"
       transform="translate(380.833,203.2859)"><path
         d="M 0,0 -2.355,-8.096 8.334,-4.985 Z"
         style="fill:#000f34;fill-opacity:1;fill-rule:nonzero;stroke:none"
         id="path310"
         inkscape:connector-curvature="0" /></g><g
       id="g312"
       transform="translate(418.5547,246.9089)"><path
         d="m 0,0 -3.012,-3.012 11.642,-11.642 3.013,3.012 c 3.214,3.215 3.213,8.427 0,11.642 C 8.428,3.215 3.215,3.215 0,0"
         style="fill:#ffa3f6;fill-opacity:1;fill-rule:nonzero;stroke:none"
         id="path314"
         inkscape:connector-curvature="0" /></g><g
       id="g316"
       transform="translate(416.5166,244.8708)"><path
         d="m 0,0 -6.286,-6.285 11.642,-11.643 6.286,6.286 z"
         style="fill:#cbecff;fill-opacity:1;fill-rule:nonzero;stroke:none"
         id="path318"
         inkscape:connector-curvature="0" /></g><g
       id="g320"
       transform="translate(94.1445,346.6667)"><path
         d="m 0,0 c -4.993,0 -9.04,4.048 -9.04,9.04 0,4.992 4.047,9.04 9.04,9.04 4.993,0 9.04,-4.048 9.04,-9.04 C 9.04,4.048 4.993,0 0,0 m 21.694,4.637 v 8.806 h -6.578 c -0.324,1.115 -0.76,2.18 -1.309,3.177 l 4.647,4.646 -6.228,6.228 -4.646,-4.646 c -0.997,0.548 -2.062,0.984 -3.177,1.308 v 6.577 h -8.806 v -6.577 c -1.115,-0.324 -2.18,-0.76 -3.177,-1.308 l -4.646,4.646 -6.228,-6.228 4.647,-4.646 c -0.549,-0.997 -0.985,-2.062 -1.309,-3.177 h -6.578 V 4.637 h 6.578 c 0.324,-1.115 0.76,-2.18 1.309,-3.177 l -4.647,-4.647 6.228,-6.227 4.646,4.646 c 0.997,-0.548 2.062,-0.984 3.177,-1.308 v -6.578 h 8.806 v 6.578 c 1.115,0.324 2.18,0.76 3.177,1.308 l 4.646,-4.646 6.228,6.227 -4.647,4.647 c 0.549,0.997 0.985,2.062 1.309,3.177 z"
         style="fill:#ffd300;fill-opacity:1;fill-rule:nonzero;stroke:none"
         id="path322"
         inkscape:connector-curvature="0" /></g></g></g></g></svg>