<?xml version="1.0" encoding="UTF-8" standalone="no"?>
<!-- Created with Inkscape (http://www.inkscape.org/) -->

<svg
   xmlns:dc="http://purl.org/dc/elements/1.1/"
   xmlns:cc="http://creativecommons.org/ns#"
   xmlns:rdf="http://www.w3.org/1999/02/22-rdf-syntax-ns#"
   xmlns:svg="http://www.w3.org/2000/svg"
   xmlns="http://www.w3.org/2000/svg"
   xmlns:sodipodi="http://sodipodi.sourceforge.net/DTD/sodipodi-0.dtd"
   xmlns:inkscape="http://www.inkscape.org/namespaces/inkscape"
   version="1.1"
   id="svg2"
   xml:space="preserve"
   width="666.66669"
   height="666.66669"
   viewBox="0 0 666.66669 666.66669"
   sodipodi:docname="students.svg"
   inkscape:version="0.92.4 (f8dce91, 2019-08-02)"><metadata
     id="metadata8"><rdf:RDF><cc:Work
         rdf:about=""><dc:format>image/svg+xml</dc:format><dc:type
           rdf:resource="http://purl.org/dc/dcmitype/StillImage" /><dc:title></dc:title></cc:Work></rdf:RDF></metadata><defs
     id="defs6"><clipPath
       clipPathUnits="userSpaceOnUse"
       id="clipPath20"><path
         d="M 0,500 H 500 V 0 H 0 Z"
         id="path18"
         inkscape:connector-curvature="0" /></clipPath><clipPath
       clipPathUnits="userSpaceOnUse"
       id="clipPath28"><path
         d="M 22.4619,444.843 H 466.513 V 144.869 H 22.4619 Z"
         id="path26"
         inkscape:connector-curvature="0" /></clipPath><clipPath
       clipPathUnits="userSpaceOnUse"
       id="clipPath32"><path
         d="M 99.2995,427.916 H 392.889 V 144.869 H 99.2995 Z"
         id="path30"
         inkscape:connector-curvature="0" /></clipPath><clipPath
       clipPathUnits="userSpaceOnUse"
       id="clipPath36"><path
         d="m 148.366,383.438 h 0.021 v -0.021 h -0.021 z"
         id="path34"
         inkscape:connector-curvature="0" /></clipPath><clipPath
       clipPathUnits="userSpaceOnUse"
       id="clipPath40"><path
         d="m 148.387,384.587 h 1.092 v -1.149 h -1.092 z"
         id="path38"
         inkscape:connector-curvature="0" /></clipPath><clipPath
       clipPathUnits="userSpaceOnUse"
       id="clipPath44"><path
         d="m 400.328,401.589 h 66.185 v -31.937 h -66.185 z"
         id="path42"
         inkscape:connector-curvature="0" /></clipPath><clipPath
       clipPathUnits="userSpaceOnUse"
       id="clipPath48"><path
         d="M 22.4619,282.763 H 88.6476 V 250.826 H 22.4619 Z"
         id="path46"
         inkscape:connector-curvature="0" /></clipPath><clipPath
       clipPathUnits="userSpaceOnUse"
       id="clipPath52"><path
         d="m 53.939,433.374 h 47.837 V 405.01 H 53.939 Z"
         id="path50"
         inkscape:connector-curvature="0" /></clipPath><clipPath
       clipPathUnits="userSpaceOnUse"
       id="clipPath56"><path
         d="m 400.328,258.072 h 47.837 v -28.365 h -47.837 z"
         id="path54"
         inkscape:connector-curvature="0" /></clipPath><clipPath
       clipPathUnits="userSpaceOnUse"
       id="clipPath60"><path
         d="m 164.078,438.323 h 32.736 v -19.118 h -32.736 z"
         id="path58"
         inkscape:connector-curvature="0" /></clipPath><clipPath
       clipPathUnits="userSpaceOnUse"
       id="clipPath64"><path
         d="m 298.203,441.74 h 14.834 v -13.322 h -14.834 z"
         id="path62"
         inkscape:connector-curvature="0" /></clipPath><clipPath
       clipPathUnits="userSpaceOnUse"
       id="clipPath68"><path
         d="m 202.628,444.843 h 7.225 v -6.206 h -7.225 z"
         id="path66"
         inkscape:connector-curvature="0" /></clipPath><clipPath
       clipPathUnits="userSpaceOnUse"
       id="clipPath72"><path
         d="m 348.297,188.136 h 28.298 v -25.82 h -28.298 z"
         id="path70"
         inkscape:connector-curvature="0" /></clipPath><clipPath
       clipPathUnits="userSpaceOnUse"
       id="clipPath76"><path
         d="m 338.312,158.369 h 6.67 v -6.945 h -6.67 z"
         id="path74"
         inkscape:connector-curvature="0" /></clipPath><clipPath
       clipPathUnits="userSpaceOnUse"
       id="clipPath80"><path
         d="m 93.6865,320.622 h 11.2265 v -8.25 H 93.6865 Z"
         id="path78"
         inkscape:connector-curvature="0" /></clipPath><clipPath
       clipPathUnits="userSpaceOnUse"
       id="clipPath248"><path
         d="M 142.488,111.644 H 243.84 V 62.6521 H 142.488 Z"
         id="path246"
         inkscape:connector-curvature="0" /></clipPath><clipPath
       clipPathUnits="userSpaceOnUse"
       id="clipPath296"><path
         d="m 159.766,348.917 h 12.858 v -27.531 h -12.858 z"
         id="path294"
         inkscape:connector-curvature="0" /></clipPath><clipPath
       clipPathUnits="userSpaceOnUse"
       id="clipPath404"><path
         d="M 166.334,313.658 H 202.89 V 306.69 H 166.334 Z"
         id="path402"
         inkscape:connector-curvature="0" /></clipPath><clipPath
       clipPathUnits="userSpaceOnUse"
       id="clipPath420"><path
         d="m 164.564,348.778 h 59.26 V 231.643 h -59.26 z"
         id="path418"
         inkscape:connector-curvature="0" /></clipPath><clipPath
       clipPathUnits="userSpaceOnUse"
       id="clipPath532"><path
         d="m 214.119,111.071 h 3.068 v -9.736 h -3.068 z"
         id="path530"
         inkscape:connector-curvature="0" /></clipPath><clipPath
       clipPathUnits="userSpaceOnUse"
       id="clipPath548"><path
         d="m 200.233,110.403 h 2.448 v -8.506 h -2.448 z"
         id="path546"
         inkscape:connector-curvature="0" /></clipPath><clipPath
       clipPathUnits="userSpaceOnUse"
       id="clipPath572"><path
         d="m 149.977,102.823 h 47.495 V 82.9176 h -47.495 z"
         id="path570"
         inkscape:connector-curvature="0" /></clipPath><clipPath
       clipPathUnits="userSpaceOnUse"
       id="clipPath588"><path
         d="M 257.426,121.618 H 382.758 V 61.0345 H 257.426 Z"
         id="path586"
         inkscape:connector-curvature="0" /></clipPath><clipPath
       clipPathUnits="userSpaceOnUse"
       id="clipPath800"><path
         d="M 281.222,104.862 H 313.79 V 64.931 h -32.568 z"
         id="path798"
         inkscape:connector-curvature="0" /></clipPath><clipPath
       clipPathUnits="userSpaceOnUse"
       id="clipPath824"><path
         d="m 311.754,122.017 h 53.125 V 93.4161 h -53.125 z"
         id="path822"
         inkscape:connector-curvature="0" /></clipPath><clipPath
       clipPathUnits="userSpaceOnUse"
       id="clipPath868"><path
         d="m 268.532,379.982 h 89.175 V 250.827 h -89.175 z"
         id="path866"
         inkscape:connector-curvature="0" /></clipPath><clipPath
       clipPathUnits="userSpaceOnUse"
       id="clipPath976"><path
         d="M 0,500 H 500 V 0 H 0 Z"
         id="path974"
         inkscape:connector-curvature="0" /></clipPath></defs><sodipodi:namedview
     pagecolor="#ffffff"
     bordercolor="#666666"
     borderopacity="1"
     objecttolerance="10"
     gridtolerance="10"
     guidetolerance="10"
     inkscape:pageopacity="0"
     inkscape:pageshadow="2"
     inkscape:window-width="1360"
     inkscape:window-height="731"
     id="namedview4"
     showgrid="false"
     inkscape:zoom="1.416"
     inkscape:cx="332.94243"
     inkscape:cy="433.82772"
     inkscape:window-x="0"
     inkscape:window-y="132"
     inkscape:window-maximized="1"
     inkscape:current-layer="g10" /><g
     id="g10"
     inkscape:groupmode="layer"
     inkscape:label="414343-PDTRVD-403"
     transform="matrix(1.3333333,0,0,-1.3333333,0,666.66667)"><g
       id="g14"><g
         id="g16"
         clip-path="url(#clipPath20)"><g
           id="g22"><g
             id="g24" /><g
             id="g240"><g
               clip-path="url(#clipPath28)"
               id="g238"
               style="opacity:0.19999701"><g
                 id="g92"><g
                   id="g82" /><g
                   id="g90"><g
                     clip-path="url(#clipPath32)"
                     id="g88"
                     style="opacity:0.39999402"><g
                       transform="translate(373.4873,357.8711)"
                       id="g86"><path
                         d="m 0,0 c 39.477,-67.451 16.795,-154.128 -50.65,-193.601 -67.445,-39.472 -154.124,-16.8 -193.601,50.651 -18.968,32.409 -23.582,69.257 -15.773,103.183 0,0 0.006,0.004 0.008,0.014 l -10e-4,0.016 c 0.037,0.138 0.185,0.686 0.362,1.543 0.775,3.728 1.155,11.178 -3.768,16.027 -6.224,6.14 -9.486,5.394 -10.568,9.47 -1.855,6.986 9.939,9.736 12.717,0.223 2.724,-9.319 8.909,-3.329 9.164,-3.079 l 0.003,0.01 c 11.517,26.816 31.398,50.319 58.51,66.187 C -126.152,90.117 -39.473,67.445 0,0"
                         style="fill:#252732;fill-opacity:1;fill-rule:nonzero;stroke:none"
                         id="path84"
                         inkscape:connector-curvature="0" /></g></g></g></g><g
                 id="g104"><g
                   id="g94" /><g
                   id="g102"><g
                     clip-path="url(#clipPath36)"
                     id="g100"
                     style="opacity:0.39999402"><g
                       transform="translate(148.3657,383.4165)"
                       id="g98"><path
                         d="M 0,0 C 0,0.007 0.007,0.015 0.021,0.022 L 0.014,0.007 C 0.007,0 0,0 0,0"
                         style="fill:#252732;fill-opacity:1;fill-rule:nonzero;stroke:none"
                         id="path96"
                         inkscape:connector-curvature="0" /></g></g></g></g><g
                 id="g116"><g
                   id="g106" /><g
                   id="g114"><g
                     clip-path="url(#clipPath40)"
                     id="g112"
                     style="opacity:0.39999402"><g
                       transform="translate(149.479,384.5874)"
                       id="g110"><path
                         d="M 0,0 C -0.585,-0.65 -0.991,-1.048 -1.092,-1.149 -0.73,-0.766 -0.369,-0.383 0,0"
                         style="fill:#252732;fill-opacity:1;fill-rule:nonzero;stroke:none"
                         id="path108"
                         inkscape:connector-curvature="0" /></g></g></g></g><g
                 id="g128"><g
                   id="g118" /><g
                   id="g126"><g
                     clip-path="url(#clipPath44)"
                     id="g124"
                     style="opacity:0.39999402"><g
                       transform="translate(465.7461,369.6514)"
                       id="g122"><path
                         d="m 0,0 h -65.418 c 0,0 2.871,18.453 10.965,17.734 2.237,-0.198 3.763,-2.47 4.76,-4.905 0.615,-1.503 2.765,-1.396 3.211,0.163 2.139,7.501 6.517,18.945 13.302,18.945 7.017,0 7.249,-13.095 6.741,-21.069 -0.076,-1.202 1.481,-1.736 2.156,-0.741 1.851,2.724 4.554,5.341 7.839,4.581 2.805,-0.647 4.049,-3.556 4.562,-6.619 0.154,-0.92 1.429,-1.039 1.757,-0.166 1.709,4.542 4.741,11.148 7.959,11.286 C 2.752,19.419 0,0 0,0"
                         style="fill:#252732;fill-opacity:1;fill-rule:nonzero;stroke:none"
                         id="path120"
                         inkscape:connector-curvature="0" /></g></g></g></g><g
                 id="g140"><g
                   id="g130" /><g
                   id="g138"><g
                     clip-path="url(#clipPath48)"
                     id="g136"
                     style="opacity:0.39999402"><g
                       transform="translate(87.8799,250.8262)"
                       id="g134"><path
                         d="m 0,0 h -65.418 c 0,0 2.872,18.453 10.965,17.734 2.237,-0.198 3.762,-2.47 4.761,-4.905 0.614,-1.503 2.764,-1.396 3.21,0.163 2.14,7.5 6.518,18.945 13.302,18.945 7.017,0 7.249,-13.095 6.741,-21.069 -0.075,-1.202 1.481,-1.736 2.156,-0.741 1.852,2.724 4.554,5.341 7.839,4.581 2.806,-0.647 4.05,-3.557 4.562,-6.619 0.154,-0.92 1.429,-1.04 1.757,-0.167 1.709,4.543 4.741,11.149 7.959,11.287 C 2.752,19.419 0,0 0,0"
                         style="fill:#252732;fill-opacity:1;fill-rule:nonzero;stroke:none"
                         id="path132"
                         inkscape:connector-curvature="0" /></g></g></g></g><g
                 id="g152"><g
                   id="g142" /><g
                   id="g150"><g
                     clip-path="url(#clipPath52)"
                     id="g148"
                     style="opacity:0.39999402"><g
                       transform="translate(53.939,405.0098)"
                       id="g146"><path
                         d="m 0,0 c 0,0 2.552,16.389 9.738,15.751 1.989,-0.177 3.342,-2.193 4.228,-4.357 0.547,-1.333 2.456,-1.24 2.851,0.146 1.902,6.66 5.79,16.825 11.816,16.825 6.233,0 6.439,-11.631 5.987,-18.714 -0.068,-1.067 1.315,-1.54 1.916,-0.656 1.644,2.42 4.043,4.743 6.961,4.069 C 49.18,11.753 47.65,0 47.65,0 Z"
                         style="fill:#252732;fill-opacity:1;fill-rule:nonzero;stroke:none"
                         id="path144"
                         inkscape:connector-curvature="0" /></g></g></g></g><g
                 id="g164"><g
                   id="g154" /><g
                   id="g162"><g
                     clip-path="url(#clipPath56)"
                     id="g160"
                     style="opacity:0.39999402"><g
                       transform="translate(400.3281,229.707)"
                       id="g158"><path
                         d="m 0,0 c 0,0 2.552,16.39 9.738,15.751 1.989,-0.177 3.341,-2.192 4.228,-4.356 0.547,-1.334 2.456,-1.241 2.851,0.145 1.901,6.66 5.79,16.825 11.816,16.825 6.233,0 6.439,-11.631 5.987,-18.714 -0.068,-1.066 1.315,-1.54 1.915,-0.656 1.645,2.42 4.044,4.742 6.961,4.069 C 49.18,11.753 47.649,0 47.649,0 Z"
                         style="fill:#252732;fill-opacity:1;fill-rule:nonzero;stroke:none"
                         id="path156"
                         inkscape:connector-curvature="0" /></g></g></g></g><g
                 id="g176"><g
                   id="g166" /><g
                   id="g174"><g
                     clip-path="url(#clipPath60)"
                     id="g172"
                     style="opacity:0.39999402"><g
                       transform="translate(181.6992,436.6313)"
                       id="g170"><path
                         d="m 0,0 c 0,0 -20.893,-6.617 -17.179,-15.006 3.713,-8.389 12.076,7.69 24.41,8.118 C 19.565,-6.46 17.626,6.163 0,0"
                         style="fill:#252732;fill-opacity:1;fill-rule:nonzero;stroke:none"
                         id="path168"
                         inkscape:connector-curvature="0" /></g></g></g></g><g
                 id="g188"><g
                   id="g178" /><g
                   id="g186"><g
                     clip-path="url(#clipPath64)"
                     id="g184"
                     style="opacity:0.39999402"><g
                       transform="translate(312.4521,439.189)"
                       id="g182"><path
                         d="M 0,0 C -0.843,1.524 -2.477,2.439 -4.216,2.529 -7.664,2.708 -14.204,1.959 -14.249,-6.274 -14.304,-16.372 4.054,-7.329 0,0"
                         style="fill:#252732;fill-opacity:1;fill-rule:nonzero;stroke:none"
                         id="path180"
                         inkscape:connector-curvature="0" /></g></g></g></g><g
                 id="g200"><g
                   id="g190" /><g
                   id="g198"><g
                     clip-path="url(#clipPath68)"
                     id="g196"
                     style="opacity:0.39999402"><g
                       transform="translate(209.6445,443.4355)"
                       id="g194"><path
                         d="M 0,0 C -0.35,0.755 -1.097,1.248 -1.922,1.35 -3.56,1.553 -6.702,1.421 -7.005,-2.501 -7.378,-7.311 1.68,-3.631 0,0"
                         style="fill:#252732;fill-opacity:1;fill-rule:nonzero;stroke:none"
                         id="path192"
                         inkscape:connector-curvature="0" /></g></g></g></g><g
                 id="g212"><g
                   id="g202" /><g
                   id="g210"><g
                     clip-path="url(#clipPath72)"
                     id="g208"
                     style="opacity:0.39999402"><g
                       transform="translate(363.4854,167.0889)"
                       id="g206"><path
                         d="M 0,0 C 0,0 17.925,12.608 11.854,19.487 5.784,26.366 2.658,8.514 -8.972,4.387 -20.603,0.26 -14.947,-11.191 0,0"
                         style="fill:#252732;fill-opacity:1;fill-rule:nonzero;stroke:none"
                         id="path204"
                         inkscape:connector-curvature="0" /></g></g></g></g><g
                 id="g224"><g
                   id="g214" /><g
                   id="g222"><g
                     clip-path="url(#clipPath76)"
                     id="g220"
                     style="opacity:0.39999402"><g
                       transform="translate(338.8916,152.1748)"
                       id="g218"><path
                         d="m 0,0 c 0.562,-0.614 1.422,-0.858 2.24,-0.707 1.622,0.3 4.578,1.373 3.686,5.204 C 4.83,9.195 -2.696,2.956 0,0"
                         style="fill:#252732;fill-opacity:1;fill-rule:nonzero;stroke:none"
                         id="path216"
                         inkscape:connector-curvature="0" /></g></g></g></g><g
                 id="g236"><g
                   id="g226" /><g
                   id="g234"><g
                     clip-path="url(#clipPath80)"
                     id="g232"
                     style="opacity:0.39999402"><g
                       transform="translate(104.9116,316.2041)"
                       id="g230"><path
                         d="M 0,0 C 0.029,1.199 -0.624,2.312 -1.626,2.97 -3.614,4.275 -7.762,6.106 -10.652,1.228 -14.197,-4.755 -0.14,-5.767 0,0"
                         style="fill:#252732;fill-opacity:1;fill-rule:nonzero;stroke:none"
                         id="path228"
                         inkscape:connector-curvature="0" /></g></g></g></g></g></g></g><g
           id="g242"><g
             id="g244" /><g
             id="g256"><g
               clip-path="url(#clipPath248)"
               id="g254"
               style="opacity:0.10000598"><g
                 transform="translate(243.8403,87.1484)"
                 id="g252"><path
                   d="m 0,0 c 0,-13.529 -22.688,-24.496 -50.676,-24.496 -27.988,0 -50.676,10.967 -50.676,24.496 0,13.528 22.688,24.495 50.676,24.495 C -22.688,24.495 0,13.528 0,0"
                   style="fill:#252732;fill-opacity:1;fill-rule:nonzero;stroke:none"
                   id="path250"
                   inkscape:connector-curvature="0" /></g></g></g></g><g
           id="g258"
           transform="translate(211.9849,359.4912)"><path
             d="m 0,0 h -18.821 v -100.737 h 6.289 c 20.805,0 37.828,17.022 37.828,37.827 v 37.614 C 25.296,-11.383 13.913,0 0,0"
             style="fill:#252732;fill-opacity:1;fill-rule:nonzero;stroke:none"
             id="path260"
             inkscape:connector-curvature="0" /></g><g
           id="g262"
           transform="translate(171.6807,321.4761)"><path
             d="m 0,0 c 0,0 -13.298,-30.622 -19.98,-33.52 -6.68,-2.898 -10.701,0.437 -10.701,0.437 -0.29,0.319 -1.771,1.379 -2.041,1.808 -4.507,7.167 -4.632,26.381 -4.275,30.307 0.311,3.405 -1.17,12.547 -1.25,15.965 -0.017,0.755 -0.105,3.367 -0.105,3.367 4.952,2.028 7.85,0.053 8.743,0.075 0.11,0.002 0.165,0.002 0.165,0.002 0,0 -0.005,-0.065 -0.015,-0.187 -0.002,-0.075 -0.01,-0.172 -0.015,-0.292 v -0.007 c -0.007,-0.162 -0.018,-0.359 -0.025,-0.594 v -0.002 c 0,-0.038 0,-0.075 -0.002,-0.115 0,-0.062 -0.003,-0.132 -0.003,-0.2 v -0.067 c -0.05,-2.537 0.105,-7.985 1.951,-13.158 1.574,-4.405 2.639,-9.012 3.22,-11.848 v -0.003 c 0.347,-1.704 0.519,-2.769 0.519,-2.769 0.798,1.384 2.252,2.564 3.507,3.395 1.252,0.828 6.338,11.759 6.338,11.759 C -8.833,4.652 0,0 0,0"
             style="fill:#f5b183;fill-opacity:1;fill-rule:nonzero;stroke:none"
             id="path264"
             inkscape:connector-curvature="0" /></g><g
           id="g266"
           transform="translate(146.709,302.3599)"><path
             d="m 0,0 c -0.014,5.226 1.157,8.314 1.157,8.314 0,0 -0.172,1.066 -0.519,2.771 C -2.08,4.535 -1.027,1.423 0,0"
             style="fill:#ef9168;fill-opacity:1;fill-rule:nonzero;stroke:none"
             id="path268"
             inkscape:connector-curvature="0" /></g><g
           id="g270"
           transform="translate(130.6172,353.9604)"><path
             d="m 0,0 c 0.324,-1.481 0.138,-7.865 0.972,-10.641 0.831,-2.776 1.618,-4.12 1.618,-4.12 l 0.539,-2.902 0.088,-0.472 c 0,0 6.428,1.125 7.616,1.995 0.098,0.069 0.161,0.138 0.18,0.205 0.008,0.027 0.009,0.054 0.004,0.079 0,0 0,0.003 -0.002,0.009 v 0.002 c -0.006,0.042 -0.027,0.207 0.019,0.45 v 0.006 c 0.046,0.242 0.152,0.559 0.393,0.914 v 0.002 h 0.002 c 0.283,0.415 0.753,0.883 1.525,1.333 2.22,1.296 3.839,2.313 3.933,4.72 0.092,2.404 0.092,3.979 0.416,4.904 0.324,0.924 -1.249,4.464 -1.665,4.823 -0.418,0.358 -1.814,-0.336 -1.485,-2.602 0.328,-2.269 0.096,-4.211 -0.366,-4.165 -0.463,0.045 -0.741,1.294 -1.065,2.868 -0.324,1.574 -0.184,3.285 -0.046,4.349 0.14,1.065 1.203,7.357 0.926,9.44 -0.278,2.08 -0.278,2.498 -1.156,2.59 C 11.567,13.879 10.898,11.16 10.802,9.436 10.726,8.083 10.377,3.826 9.94,3.784 9.3,3.719 9.67,11.057 9.67,12.538 c 0,1.481 -0.104,3.954 -1.667,3.47 -1.32,-0.41 -0.971,-7.126 -1.109,-8.421 0,0 -0.063,-2.868 -0.403,-3.485 -0.339,-0.617 -0.584,0.431 -0.678,0.895 -0.092,0.461 -0.153,4.349 0,5.83 0.155,1.479 0.293,3.238 -0.586,3.47 C 4.349,14.527 3.608,13.601 3.516,10.177 3.424,6.753 3.208,4.163 3.246,3.1 3.284,2.035 2.358,2.267 2.127,3.33 1.897,4.395 1.803,8.836 1.201,9.254 0.6,9.669 -0.556,9.346 -0.649,7.449 -0.741,5.552 -0.326,1.481 0,0"
             style="fill:#f5b183;fill-opacity:1;fill-rule:nonzero;stroke:none"
             id="path272"
             inkscape:connector-curvature="0" /></g><g
           id="g274"
           transform="translate(142.3926,350.2876)"><path
             d="m 0,0 c 0,0 -4.455,-1.485 -3.736,-6.85 0,0 -1.417,1.1 -0.463,3.832 C -3.145,0 0,0 0,0"
             style="fill:#ef9168;fill-opacity:1;fill-rule:nonzero;stroke:none"
             id="path276"
             inkscape:connector-curvature="0" /></g><g
           id="g278"
           transform="translate(142.3926,355.3169)"><path
             d="m 0,0 c 0,0 -1.964,1.405 -4.901,1.373 -2.938,-0.032 -5.876,-2.938 -5.876,-2.938 0,0 5.045,3.193 10.777,1.565"
             style="fill:#ef9168;fill-opacity:1;fill-rule:nonzero;stroke:none"
             id="path280"
             inkscape:connector-curvature="0" /></g><g
           id="g282"
           transform="translate(142.2217,339.7305)"><path
             d="M 0,0 C -0.002,-0.075 -0.01,-0.172 -0.015,-0.292 V -0.3 C -0.022,-0.461 -0.033,-0.659 -0.04,-0.893 v -0.003 c 0,-0.037 0,-0.075 -0.002,-0.114 0,-0.063 -0.003,-0.133 -0.003,-0.2 V -1.277 C -1.876,-1.784 -2.864,-1.405 -2.864,-1.405 -1.681,-1.292 -0.674,-0.606 0,0"
             style="fill:#ef9168;fill-opacity:1;fill-rule:nonzero;stroke:none"
             id="path284"
             inkscape:connector-curvature="0" /></g><g
           id="g286"
           transform="translate(172.585,321.9492)"><path
             d="m 0,0 c -6.569,-1.097 -10.52,-0.413 -12.819,0.531 -2.238,0.916 -2.913,2.077 -2.913,2.077 4.038,10.545 12.615,25.485 12.615,25.485 0.242,-0.298 0.469,-0.678 0.675,-1.125 C 0.545,20.548 0,0 0,0"
             style="fill:#a3c524;fill-opacity:1;fill-rule:nonzero;stroke:none"
             id="path288"
             inkscape:connector-curvature="0" /></g><g
           id="g290"><g
             id="g292" /><g
             id="g304"><g
               clip-path="url(#clipPath296)"
               id="g302"
               style="opacity:0.19999701"><g
                 transform="translate(172.585,321.9492)"
                 id="g300"><path
                   d="M 0,0 C -6.569,-1.097 -10.52,-0.413 -12.819,0.531 L -2.442,26.968 C 0.545,20.548 0,0 0,0"
                   style="fill:#252732;fill-opacity:1;fill-rule:nonzero;stroke:none"
                   id="path298"
                   inkscape:connector-curvature="0" /></g></g></g></g><g
           id="g306"
           transform="translate(218.1743,172.0078)"><path
             d="m 0,0 c 0,0 4.814,-10.333 3.094,-22.93 -1.72,-12.596 -7.149,-42.875 -7.149,-42.875 0,0 -7.532,-3.631 -10.968,-1.341 -2.12,6.998 -2.226,37.827 -5.59,60.935 l -3.206,48.784 c 0,0 -0.222,-0.213 -1.942,-0.125 0.08,-6.278 -0.36,-11.426 -1.952,-16.594 0,0 -6.184,-23.59 -14.429,-36.646 0,0 4.598,-1.645 9.513,-12.917 2.129,-4.883 3.618,-10.02 4.5,-15.274 l 6.495,-30.974 c -2.731,-3.013 -9.225,-1.696 -13.476,4.52 0,0 -20.545,35.636 -28.332,44.11 -7.787,8.474 11.394,75.58 11.081,86.803 L -36.7,64.347 c 0.476,0.703 1.099,1.385 1.887,2.045 11.223,9.39 37.905,9.494 37.905,9.494 0,0 7.214,-10.227 7.443,-29.775 C 10.764,26.565 2.595,22.292 0,0"
             style="fill:#252732;fill-opacity:1;fill-rule:nonzero;stroke:none"
             id="path308"
             inkscape:connector-curvature="0" /></g><g
           id="g310"
           transform="translate(189.7466,215.1074)"><path
             d="M 0,0 -0.993,0.119 C -0.995,0.104 -1.17,-1.341 -1.604,-3.819 l 0.985,-0.172 C -0.18,-1.483 -0.002,-0.015 0,0"
             style="fill:#595f6c;fill-opacity:1;fill-rule:nonzero;stroke:none"
             id="path312"
             inkscape:connector-curvature="0" /></g><g
           id="g314"
           transform="translate(188.5947,120.4971)"><path
             d="m 0,0 c 0.285,-1.262 0.568,-2.562 0.849,-3.898 l 0.978,0.205 C 1.545,-2.351 1.261,-1.047 0.976,0.221 Z"
             style="fill:#595f6c;fill-opacity:1;fill-rule:nonzero;stroke:none"
             id="path316"
             inkscape:connector-curvature="0" /></g><g
           id="g318"
           transform="translate(186.061,197.4004)"><path
             d="M 0,0 -0.966,0.26 C -1.299,-0.978 -1.659,-2.26 -2.049,-3.582 L -1.09,-3.865 C -0.697,-2.535 -0.335,-1.245 0,0"
             style="fill:#595f6c;fill-opacity:1;fill-rule:nonzero;stroke:none"
             id="path320"
             inkscape:connector-curvature="0" /></g><g
           id="g322"
           transform="translate(187.522,203.2422)"><path
             d="M 0,0 -0.975,0.225 C -1.256,-0.997 -1.57,-2.293 -1.919,-3.653 l 0.968,-0.248 C -0.6,-2.533 -0.284,-1.229 0,0"
             style="fill:#595f6c;fill-opacity:1;fill-rule:nonzero;stroke:none"
             id="path324"
             inkscape:connector-curvature="0" /></g><g
           id="g326"
           transform="translate(188.7661,209.1377)"><path
             d="m 0,0 -0.982,0.187 c -0.222,-1.162 -0.487,-2.472 -0.8,-3.911 l 0.978,-0.213 C -0.489,-2.488 -0.223,-1.17 0,0"
             style="fill:#595f6c;fill-opacity:1;fill-rule:nonzero;stroke:none"
             id="path328"
             inkscape:connector-curvature="0" /></g><g
           id="g330"
           transform="translate(185.6562,132.0967)"><path
             d="m 0,0 c 0.351,-1.232 0.702,-2.515 1.052,-3.847 l 0.967,0.254 c -0.351,1.34 -0.704,2.628 -1.057,3.866 z"
             style="fill:#595f6c;fill-opacity:1;fill-rule:nonzero;stroke:none"
             id="path332"
             inkscape:connector-curvature="0" /></g><g
           id="g334"
           transform="translate(189.1221,122.6719)"><path
             d="M 0,0 C -0.313,1.341 -0.629,2.638 -0.946,3.893 L -1.916,3.648 C -1.6,2.399 -1.286,1.106 -0.974,-0.229 Z"
             style="fill:#595f6c;fill-opacity:1;fill-rule:nonzero;stroke:none"
             id="path336"
             inkscape:connector-curvature="0" /></g><g
           id="g338"
           transform="translate(191.6772,104.8311)"><path
             d="M 0,0 0.985,0.168 C 0.755,1.513 0.522,2.827 0.287,4.111 L -0.697,3.932 C -0.462,2.651 -0.23,1.341 0,0"
             style="fill:#595f6c;fill-opacity:1;fill-rule:nonzero;stroke:none"
             id="path340"
             inkscape:connector-curvature="0" /></g><g
           id="g342"
           transform="translate(183.9121,137.8135)"><path
             d="m 0,0 c 0.395,-1.208 0.79,-2.476 1.187,-3.804 l 0.958,0.285 C 1.746,-2.181 1.348,-0.905 0.95,0.311 Z"
             style="fill:#595f6c;fill-opacity:1;fill-rule:nonzero;stroke:none"
             id="path344"
             inkscape:connector-curvature="0" /></g><g
           id="g346"
           transform="translate(190.6147,110.7246)"><path
             d="M 0,0 0.982,0.186 C 0.728,1.53 0.471,2.841 0.212,4.117 L -0.768,3.918 C -0.51,2.646 -0.254,1.34 0,0"
             style="fill:#595f6c;fill-opacity:1;fill-rule:nonzero;stroke:none"
             id="path348"
             inkscape:connector-curvature="0" /></g><g
           id="g350"
           transform="translate(175.5479,169.2295)"><path
             d="M 0,0 -0.896,0.445 C -1.481,-0.736 -2.09,-1.918 -2.724,-3.097 l 0.881,-0.472 C -1.205,-2.381 -0.591,-1.189 0,0"
             style="fill:#595f6c;fill-opacity:1;fill-rule:nonzero;stroke:none"
             id="path352"
             inkscape:connector-curvature="0" /></g><g
           id="g354"
           transform="translate(177.7153,154.7168)"><path
             d="m 0,0 -0.856,-0.518 c 0.634,-1.049 1.273,-2.217 1.899,-3.47 l 0.894,0.447 C 1.299,-2.265 0.647,-1.073 0,0"
             style="fill:#595f6c;fill-opacity:1;fill-rule:nonzero;stroke:none"
             id="path356"
             inkscape:connector-curvature="0" /></g><g
           id="g358"
           transform="translate(173.3477,158.8848)"><path
             d="m 0,0 c 0.786,-0.777 1.61,-1.795 2.449,-3.025 l 0.826,0.562 C 2.4,-1.179 1.535,-0.111 0.703,0.711 Z"
             style="fill:#595f6c;fill-opacity:1;fill-rule:nonzero;stroke:none"
             id="path360"
             inkscape:connector-curvature="0" /></g><g
           id="g362"
           transform="translate(180.5254,149.3623)"><path
             d="m 0,0 -0.907,-0.42 c 0.529,-1.143 1.06,-2.371 1.578,-3.646 l 0.927,0.375 C 1.074,-2.399 0.536,-1.158 0,0"
             style="fill:#595f6c;fill-opacity:1;fill-rule:nonzero;stroke:none"
             id="path364"
             inkscape:connector-curvature="0" /></g><g
           id="g366"
           transform="translate(182.8589,143.8018)"><path
             d="m 0,0 -0.934,-0.357 c 0.455,-1.188 0.91,-2.448 1.355,-3.743 l 0.946,0.325 C 0.918,-2.469 0.458,-1.199 0,0"
             style="fill:#595f6c;fill-opacity:1;fill-rule:nonzero;stroke:none"
             id="path368"
             inkscape:connector-curvature="0" /></g><g
           id="g370"
           transform="translate(172.7432,163.9023)"><path
             d="m 0,0 -0.874,0.486 c -0.18,-0.322 -0.361,-0.644 -0.545,-0.965 -0.223,-0.391 -0.34,-0.834 -0.34,-1.284 0,-0.731 0.306,-1.45 0.842,-1.971 l 0.698,0.716 c -0.343,0.334 -0.54,0.792 -0.54,1.255 0,0.28 0.07,0.545 0.208,0.787 C -0.365,-0.65 -0.182,-0.326 0,0"
             style="fill:#595f6c;fill-opacity:1;fill-rule:nonzero;stroke:none"
             id="path372"
             inkscape:connector-curvature="0" /></g><g
           id="g374"
           transform="translate(184.3936,191.6133)"><path
             d="m 0,0 -0.956,0.295 c -0.381,-1.238 -0.788,-2.507 -1.221,-3.801 l 0.948,-0.316 C -0.793,-2.521 -0.384,-1.246 0,0"
             style="fill:#595f6c;fill-opacity:1;fill-rule:nonzero;stroke:none"
             id="path376"
             inkscape:connector-curvature="0" /></g><g
           id="g378"
           transform="translate(180.4219,180.2451)"><path
             d="m 0,0 -0.931,0.365 c -0.48,-1.219 -0.982,-2.452 -1.509,-3.69 l 0.919,-0.393 C -0.989,-2.47 -0.483,-1.229 0,0"
             style="fill:#595f6c;fill-opacity:1;fill-rule:nonzero;stroke:none"
             id="path380"
             inkscape:connector-curvature="0" /></g><g
           id="g382"
           transform="translate(182.5156,185.8916)"><path
             d="m 0,0 -0.944,0.33 c -0.43,-1.232 -0.884,-2.483 -1.363,-3.75 l 0.936,-0.353 C -0.889,-2.499 -0.433,-1.24 0,0"
             style="fill:#595f6c;fill-opacity:1;fill-rule:nonzero;stroke:none"
             id="path384"
             inkscape:connector-curvature="0" /></g><g
           id="g386"
           transform="translate(178.1035,174.6855)"><path
             d="M 0,0 -0.915,0.404 C -1.447,-0.799 -2.001,-2.007 -2.579,-3.22 l 0.902,-0.429 C -1.094,-2.429 -0.536,-1.211 0,0"
             style="fill:#595f6c;fill-opacity:1;fill-rule:nonzero;stroke:none"
             id="path388"
             inkscape:connector-curvature="0" /></g><g
           id="g390"
           transform="translate(209.1265,318.4814)"><path
             d="m 0,0 c 0,0 2.022,-29.774 4.771,-39.24 2.749,-9.466 8.703,-30.079 9.926,-36.033 -28.249,-16.415 -59.26,-10.545 -59.26,-10.545 l 0.367,7.462 2.952,60.052 v 0.007 c -0.05,1.424 -0.394,4.092 -0.819,7.058 -0.232,1.597 -0.484,3.28 -0.729,4.904 -0.588,3.907 -1.125,7.457 -1.143,8.58 -0.169,10.384 2.442,22.49 9.008,30.126 6.566,7.634 36.874,13.092 36.874,13.092 0,0 7.329,-1.375 10.879,-7.673 3.55,-6.298 3.667,-7.743 4.528,-17.8 0.794,-9.31 0.74,-13.921 0.74,-13.921 0,0 -6.557,3.504 -13.701,-1.697 C 2.937,3.312 1.455,1.887 0,0"
             style="fill:#a3c524;fill-opacity:1;fill-rule:nonzero;stroke:none"
             id="path392"
             inkscape:connector-curvature="0" /></g><g
           id="g394"
           transform="translate(177.9194,353.752)"><path
             d="m 0,0 c 0,0 -12.925,-21.34 -11.922,-39.359 0,0 -3.521,4.625 -2.872,14.732 C -14.125,-14.189 -10.455,-2.623 0,0"
             style="fill:#252732;fill-opacity:1;fill-rule:nonzero;stroke:none"
             id="path396"
             inkscape:connector-curvature="0" /></g><g
           id="g398"><g
             id="g400" /><g
             id="g412"><g
               clip-path="url(#clipPath404)"
               id="g410"
               style="opacity:0.19999701"><g
                 transform="translate(202.8901,313.6582)"
                 id="g408"><path
                   d="m 0,0 c 0,0 -3.284,-5.978 -10.918,-6.805 -7.634,-0.829 -8.474,1.844 -15.345,0.316 -3.152,-0.7 -6.655,-0.439 -9.564,0.073 -0.232,1.597 -0.484,3.28 -0.729,4.904 0.767,-0.914 1.837,-1.72 3.269,-1.846 3.513,-0.307 5.954,2.062 9.468,1.296 C -20.308,-2.824 -8.094,-5.419 0,0"
                   style="fill:#252732;fill-opacity:1;fill-rule:nonzero;stroke:none"
                   id="path406"
                   inkscape:connector-curvature="0" /></g></g></g></g><g
           id="g414"><g
             id="g416" /><g
             id="g428"><g
               clip-path="url(#clipPath420)"
               id="g426"
               style="opacity:0.19999701"><g
                 transform="translate(223.8237,243.208)"
                 id="g424"><path
                   d="m 0,0 c -28.249,-16.415 -59.26,-10.545 -59.26,-10.545 l 0.367,7.462 c 7.098,-0.3 34.7,-0.533 38.951,13.612 4.885,16.254 -0.458,27.857 0.611,40.224 1.068,12.368 -6.822,45.573 4.732,54.817 0,0 0.383,-17.345 4.295,-25.924 -1.457,-1.061 -2.939,-2.485 -4.393,-4.373 0,0 2.022,-29.773 4.771,-39.239 C -7.178,26.568 -1.223,5.955 0,0"
                   style="fill:#252732;fill-opacity:1;fill-rule:nonzero;stroke:none"
                   id="path422"
                   inkscape:connector-curvature="0" /></g></g></g></g><g
           id="g430"
           transform="translate(203.0581,379.165)"><path
             d="m 0,0 v -15.955 c -2.215,-7.672 -18.577,-10.443 -18.577,-10.443 v 15.986 z"
             style="fill:#f5b183;fill-opacity:1;fill-rule:nonzero;stroke:none"
             id="path432"
             inkscape:connector-curvature="0" /></g><g
           id="g434"
           transform="translate(203.0581,379.165)"><path
             d="m 0,0 v -15.955 c -2.215,-7.672 -18.577,-10.443 -18.577,-10.443 0,0 6.285,2.542 9.29,5.673 3.002,3.128 3.944,10.228 0,8.016 -3.246,-1.823 -7.785,-0.646 -9.29,-0.172 v 2.469 z"
             style="fill:#ef9168;fill-opacity:1;fill-rule:nonzero;stroke:none"
             id="path436"
             inkscape:connector-curvature="0" /></g><g
           id="g438"
           transform="translate(167.9385,401.79)"><path
             d="m 0,0 c 0,0 -2.438,-21.517 -0.3,-41.213 2.137,-19.697 -0.999,-26.568 -0.999,-26.568 0,0 18.057,11.447 18.764,22.75 l -1.126,14.658 c 0,0 -9.326,14.8 -8.906,21.529 C 7.853,-2.115 0,0 0,0"
             style="fill:#481b1e;fill-opacity:1;fill-rule:nonzero;stroke:none"
             id="path440"
             inkscape:connector-curvature="0" /></g><g
           id="g442"
           transform="translate(182.8696,411.4214)"><path
             d="m 0,0 c 0,0 -9.44,-7.29 -10.2,-14.906 l -4.959,1.349 c 0,0 -1.565,18.061 9.848,20.581 0,0 2.965,5.487 12.863,5.487 9.898,0 18.248,-7.358 21.912,-20.183 3.664,-12.826 1.489,-37.561 4.008,-41.913 l -5.267,2.061 c 0,0 -12.366,-16.393 -16.881,-22.349 0,0 -8.79,5.314 -0.689,17.31 5.324,7.883 8.637,18.781 8.637,18.781 z"
             style="fill:#481b1e;fill-opacity:1;fill-rule:nonzero;stroke:none"
             id="path444"
             inkscape:connector-curvature="0" /></g><g
           id="g446"
           transform="translate(172.6733,401.8022)"><path
             d="m 0,0 c 0,0 -0.153,-7.596 1.527,-16.147 1.679,-8.55 4.428,-14.844 11.91,-17.592 7.481,-2.748 18.017,7.935 19.085,18.165 1.069,10.23 0,15.421 -2.595,18.323 C 27.331,5.649 1.985,16.49 0,0"
             style="fill:#f5b183;fill-opacity:1;fill-rule:nonzero;stroke:none"
             id="path448"
             inkscape:connector-curvature="0" /></g><g
           id="g450"
           transform="translate(193.769,383.5098)"><path
             d="m 0,0 -13.127,-0.893 c 0,0 0.148,-6.152 6.98,-5.688 C 0.417,-6.135 0,0 0,0"
             style="fill:#ffffff;fill-opacity:1;fill-rule:nonzero;stroke:none"
             id="path452"
             inkscape:connector-curvature="0" /></g><g
           id="g454"
           transform="translate(199.2529,399.5581)"><path
             d="m 0,0 c 0,0 -2.57,3.924 -9.364,1.366 l 0.191,-1.183 c 0,0 4.844,2.71 9.173,-0.183"
             style="fill:#481b1e;fill-opacity:1;fill-rule:nonzero;stroke:none"
             id="path456"
             inkscape:connector-curvature="0" /></g><g
           id="g458"
           transform="translate(174.5391,396.5156)"><path
             d="M 0,0 C 0,0 1.343,4.241 8.202,3.644 L 8.331,2.514 C 8.331,2.514 3.213,3.75 0,0"
             style="fill:#481b1e;fill-opacity:1;fill-rule:nonzero;stroke:none"
             id="path460"
             inkscape:connector-curvature="0" /></g><g
           id="g462"
           transform="translate(188.5796,388.4185)"><path
             d="M 0,0 C 0,0 -0.204,2.04 -3.55,1.812 -6.537,1.61 -6.351,-0.432 -6.351,-0.432 Z"
             style="fill:#ef9168;fill-opacity:1;fill-rule:nonzero;stroke:none"
             id="path464"
             inkscape:connector-curvature="0" /></g><g
           id="g466"
           transform="translate(181.3706,410.5845)"><path
             d="m 0,0 c 0,0 10.132,-9.807 24.041,-13.494 0,0 0.242,5.628 -3.193,10.819 C 17.412,2.517 2.438,3.28 0,2.211 -2.437,1.143 0,0 0,0"
             style="fill:#481b1e;fill-opacity:1;fill-rule:nonzero;stroke:none"
             id="path468"
             inkscape:connector-curvature="0" /></g><g
           id="g470"
           transform="translate(181.8345,410.7329)"><path
             d="m 0,0 c 0,0 -3.061,-9.273 -9.165,-14.217 l -3.203,6.05 c 0,0 1.069,12.212 12.368,8.167"
             style="fill:#481b1e;fill-opacity:1;fill-rule:nonzero;stroke:none"
             id="path472"
             inkscape:connector-curvature="0" /></g><g
           id="g474"
           transform="translate(184.5044,374.4277)"><path
             d="M 0,0 C 0,0 3.85,-1.842 8.729,0.289 8.729,0.289 4.441,-3.873 0,0"
             style="fill:#ef9168;fill-opacity:1;fill-rule:nonzero;stroke:none"
             id="path476"
             inkscape:connector-curvature="0" /></g><g
           id="g478"
           transform="translate(191.5005,394.3589)"><path
             d="M 0,0 C 0,0 1.049,3.441 4.294,3.436 8.306,3.428 8.505,0.744 8.505,0.744 8.505,0.744 4.562,5.497 0,0"
             style="fill:#252732;fill-opacity:1;fill-rule:nonzero;stroke:none"
             id="path480"
             inkscape:connector-curvature="0" /></g><g
           id="g482"
           transform="translate(183.6548,394.0537)"><path
             d="m 0,0 c 0,0 -0.982,2.865 -4.338,1.966 -2.139,-0.573 -2.959,-3.158 -2.959,-3.158 0,0 3.169,4.542 7.297,1.192"
             style="fill:#252732;fill-opacity:1;fill-rule:nonzero;stroke:none"
             id="path484"
             inkscape:connector-curvature="0" /></g><g
           id="g486"
           transform="translate(216.3418,361.8364)"><path
             d="m 0,0 c 0,0 -10.536,-2.939 -14.353,-16.223 -3.817,-13.284 7.139,-27.179 7.139,-27.179 2.557,-5.487 3.513,-10.262 1.112,-13.546 0,0 -10.083,9.424 -14.206,19.196 -4.122,9.772 -3.969,33.515 15.04,39.813 0,0 4.352,2.252 5.268,-2.061"
             style="fill:#252732;fill-opacity:1;fill-rule:nonzero;stroke:none"
             id="path488"
             inkscape:connector-curvature="0" /></g><g
           id="g490"
           transform="translate(137.7114,302.3315)"><path
             d="M 0,0 33.743,-48.597 65.921,-26.254 32.179,22.343 Z"
             style="fill:#252732;fill-opacity:1;fill-rule:nonzero;stroke:none"
             id="path492"
             inkscape:connector-curvature="0" /></g><g
           id="g494"
           transform="translate(169.8906,324.6748)"><path
             d="m 0,0 -32.179,-22.343 33.742,-48.596 0.059,2.168 1.845,68.03 -2.335,0.5 -0.003,-0.002 z"
             style="fill:#252732;fill-opacity:1;fill-rule:nonzero;stroke:none"
             id="path496"
             inkscape:connector-curvature="0" /></g><g
           id="g498"
           transform="translate(171.0225,324.4336)"><path
             d="m 0,0 -30.867,-21.371 c 0.464,-0.668 0.259,-0.373 1.023,-1.472 L 2.378,-35.161 2.335,-0.5 Z"
             style="fill:#ffffff;fill-opacity:1;fill-rule:nonzero;stroke:none"
             id="path500"
             inkscape:connector-curvature="0" /></g><g
           id="g502"
           transform="translate(141.1782,301.5903)"><path
             d="M 0,0 32.268,-46.473 64.446,-24.129 32.179,22.343 Z"
             style="fill:#252732;fill-opacity:1;fill-rule:nonzero;stroke:none"
             id="path504"
             inkscape:connector-curvature="0" /></g><g
           id="g506"
           transform="translate(228.022,280.6455)"><path
             d="m 0,0 c -1.952,-0.488 -5.371,-0.701 -9.629,-0.832 -1.456,-0.043 -3.012,-0.077 -4.638,-0.112 -1.552,-0.032 -3.437,-0.153 -5.542,-0.341 -10.441,-0.934 -26.311,-3.504 -34.014,-4.745 -4.065,-9.011 -11.185,-10.403 -11.185,-10.403 -2.485,0.057 -2.213,1.775 -2.213,1.775 -2.233,0.573 -1.946,2.977 -1.946,2.977 -3.15,0.859 -2.52,4.467 -2.52,4.467 -1.145,0.229 -2.634,3.778 -0.458,5.267 2.176,1.489 4.924,2.863 4.924,2.863 0,0 -0.114,3.264 -2.404,4.981 -2.291,1.718 -2.339,4.696 -0.459,4.18 2.92,-0.801 3.55,-1.947 7.673,-5.267 4.122,-3.321 6.756,-1.832 6.756,-1.832 0,0 20.89,7.328 23.384,8.245 1.924,0.705 9.171,2.908 15.433,3.881 1.861,0.289 3.636,0.47 5.157,0.47 0,0 -0.002,0 -0.002,0.002 -0.089,0.195 -5.932,12.723 -7.082,20.409 -0.002,0.003 -0.002,0.005 0,0.007 -0.087,1.145 -0.131,1.798 -0.131,1.798 5.942,7.711 12.32,7.657 15.689,6.892 0.642,-0.144 1.173,-0.316 1.572,-0.465 0.087,-0.042 0.174,-0.085 0.26,-0.129 0,0 4.474,-17.449 5.612,-27.713 C 5.272,7.041 6.413,1.603 0,0"
             style="fill:#f5b183;fill-opacity:1;fill-rule:nonzero;stroke:none"
             id="path508"
             inkscape:connector-curvature="0" /></g><g
           id="g510"
           transform="translate(208.2129,279.3608)"><path
             d="m 0,0 c -10.441,-0.935 -26.311,-3.504 -34.014,-4.746 0,0 -1.081,1.935 -2.148,2.932 0.117,-0.06 1.968,-1.008 2.82,-1.83 0,0 18.998,3.396 25.271,3.436 2.233,0.013 5.19,0.1 8.071,0.208"
             style="fill:#ef9168;fill-opacity:1;fill-rule:nonzero;stroke:none"
             id="path512"
             inkscape:connector-curvature="0" /></g><g
           id="g514"
           transform="translate(223.8237,289.2046)"><path
             d="m 0,0 c 0,0 -1.947,4.026 -7.482,7.015 0,0 -0.003,0 -0.003,0.002 -0.089,0.195 -5.932,12.723 -7.081,20.409 -0.003,0.003 -0.003,0.005 0,0.007 -0.087,1.145 -0.131,1.798 -0.131,1.798 5.941,7.711 12.32,7.657 15.689,6.892 0,0 -11.619,-2.355 -11.468,-9.684 0.153,-7.329 5.733,-18.934 5.733,-18.934 0,0 4.376,-2.031 4.743,-7.505"
             style="fill:#ef9168;fill-opacity:1;fill-rule:nonzero;stroke:none"
             id="path516"
             inkscape:connector-curvature="0" /></g><g
           id="g518"
           transform="translate(219.2642,89.2344)"><path
             d="m 0,0 c -0.483,-5.392 -2.817,-10.22 -6.439,-11.748 -3.621,-1.53 -8.732,-0.645 -11.045,1.69 -2.313,2.332 -3.199,7.564 -2.875,10.944 0.229,2.409 1.153,3.061 1.521,5.451 0.031,0.231 0.048,0.36 0.048,0.36 0.108,0.91 0.14,2.059 0.039,3.605 -0.059,0.869 -0.124,1.65 -0.194,2.355 v 0.005 c -0.415,4.249 0.739,7.403 1.894,8.507 0,0 0.366,-2.208 0.468,-2.674 0,0 1.132,2.188 5.96,2.067 4.679,-0.116 5.432,-2.405 5.476,-2.547 l 0.002,-0.007 c 0,0 0.425,3.049 0.548,3.829 0,0 2.223,-1.389 2.465,-4.349 0.241,-2.962 -0.403,-4.331 -0.161,-4.934 0.016,-0.041 0.043,-0.109 0.077,-0.2 0.197,-0.512 0.664,-1.794 1.127,-3.47 l 0.003,-0.005 c 0,-0.002 0.002,-0.007 0.002,-0.012 0.05,-0.188 0.101,-0.379 0.152,-0.574 0,-0.003 0.002,-0.005 0.002,-0.01 C -0.302,5.861 0.249,2.776 0,0"
             style="fill:#a3c524;fill-opacity:1;fill-rule:nonzero;stroke:none"
             id="path520"
             inkscape:connector-curvature="0" /></g><g
           id="g522"
           transform="translate(219.2642,89.2344)"><path
             d="m 0,0 c -0.483,-5.392 -2.817,-10.22 -6.439,-11.748 -3.621,-1.53 -8.732,-0.645 -11.045,1.69 -2.313,2.332 -3.199,7.564 -2.875,10.944 0.229,2.409 1.153,3.061 1.521,5.451 -0.184,-1.412 -0.812,-6.637 -0.396,-8.993 0.483,-2.736 2.001,-7.503 5.082,-7.865 l 1.477,1.085 2.202,-0.059 1.419,-1.358 c 0,0 5.915,0.712 7.605,8.359 C -0.15,3.385 -0.635,6.95 -0.93,8.283 -0.302,5.861 0.249,2.776 0,0"
             style="fill:#252732;fill-opacity:1;fill-rule:nonzero;stroke:none"
             id="path524"
             inkscape:connector-curvature="0" /></g><g
           id="g526"><g
             id="g528" /><g
             id="g540"><g
               clip-path="url(#clipPath532)"
               id="g538"
               style="opacity:0.19999701"><g
                 transform="translate(216.9707,101.7881)"
                 id="g536"><path
                   d="m 0,0 c 0.017,-0.041 0.043,-0.108 0.077,-0.2 -0.652,-0.91 -1.567,0.855 -1.598,1.852 -0.08,2.656 -1.331,3.802 -1.331,3.802 0,0 0.426,3.049 0.549,3.829 0,0 2.223,-1.388 2.465,-4.348 C 0.403,1.973 -0.242,0.604 0,0"
                   style="fill:#252732;fill-opacity:1;fill-rule:nonzero;stroke:none"
                   id="path534"
                   inkscape:connector-curvature="0" /></g></g></g></g><g
           id="g542"><g
             id="g544" /><g
             id="g556"><g
               clip-path="url(#clipPath548)"
               id="g554"
               style="opacity:0.19999701"><g
                 transform="translate(202.6807,107.7295)"
                 id="g552"><path
                   d="m 0,0 c 0,0 -2.233,-2.448 -2.361,-5.833 -0.415,4.249 0.739,7.403 1.893,8.507 0,0 0.366,-2.208 0.468,-2.674"
                   style="fill:#252732;fill-opacity:1;fill-rule:nonzero;stroke:none"
                   id="path550"
                   inkscape:connector-curvature="0" /></g></g></g></g><g
           id="g558"
           transform="translate(196.5078,102.6885)"><path
             d="m 0,0 c -2.105,-0.698 -4.924,-0.526 -6.537,-0.261 -2.108,0.348 -4.056,1.607 -4.974,3.583 l -0.005,0.009 c -0.3,0.65 -0.762,1.212 -1.364,1.601 -0.68,0.438 -1.425,0.902 -2.273,1.377 0,0 -3.07,0.538 -4.618,-2.007 -1.551,-2.545 -9.03,-6.608 -12.021,-6.92 -2.197,-0.23 -8.778,-3.001 -12.123,-4.459 -0.59,-0.259 -1.104,-0.642 -1.515,-1.111 -10e-4,-10e-4 -10e-4,-10e-4 -0.002,-0.004 -0.573,-0.656 -0.943,-1.482 -1.039,-2.379 -0.029,-0.287 -0.05,-0.59 -0.057,-0.903 -0.049,-2.002 0.465,-4.384 2.762,-5.777 4.511,-2.729 10.991,-2.971 14.115,-2.001 3.123,0.967 8.371,3.064 11.99,2.642 3.622,-0.423 14.195,-1.768 17.739,3.609 0,0 0.922,1.198 0.885,3.751 C 0.957,-8.666 0.897,-8.011 0.765,-7.282 0.258,-4.477 0.067,-1.474 0,0"
             style="fill:#a3c524;fill-opacity:1;fill-rule:nonzero;stroke:none"
             id="path560"
             inkscape:connector-curvature="0" /></g><g
           id="g562"
           transform="translate(196.5854,89.6875)"><path
             d="m 0,0 c -3.543,-5.377 -14.116,-4.032 -17.738,-3.609 -3.62,0.421 -8.868,-1.675 -11.991,-2.642 -3.124,-0.97 -9.604,-0.728 -14.114,2.001 -2.298,1.393 -2.812,3.775 -2.762,5.777 1.794,-7.031 10.265,-6.357 14.751,-5.756 4.489,0.6 9.816,3.193 13.541,2.825 3.725,-0.37 6.847,-0.713 12.253,0.279 3.362,0.619 5.676,3.093 6.946,4.876 C 0.923,1.198 0,0 0,0"
             style="fill:#252732;fill-opacity:1;fill-rule:nonzero;stroke:none"
             id="path564"
             inkscape:connector-curvature="0" /></g><g
           id="g566"><g
             id="g568" /><g
             id="g580"><g
               clip-path="url(#clipPath572)"
               id="g578"
               style="opacity:0.19999701"><g
                 transform="translate(196.5078,102.6885)"
                 id="g576"><path
                   d="m 0,0 c -2.105,-0.698 -4.924,-0.526 -6.537,-0.261 -0.495,0.081 -0.981,0.215 -1.447,0.396 0.457,-1.939 0.877,-4.996 -0.264,-7.161 -1.793,-3.404 -8.088,-1.236 -12.143,-2.571 -4.054,-1.336 -15.293,-5.192 -19.647,-3.824 -4.354,1.365 -6.673,2.09 -5.394,5.229 -0.573,-0.656 -0.943,-1.482 -1.039,-2.379 -0.029,-0.287 -0.05,-0.59 -0.057,-0.903 -0.049,-2.002 0.465,-4.384 2.762,-5.777 4.511,-2.729 10.991,-2.971 14.115,-2.001 3.123,0.967 8.371,3.064 11.99,2.642 3.622,-0.423 14.195,-1.768 17.739,3.609 0,0 0.922,1.198 0.885,3.751 C 0.957,-8.666 0.897,-8.011 0.765,-7.282 0.258,-4.477 0.067,-1.474 0,0"
                   style="fill:#252732;fill-opacity:1;fill-rule:nonzero;stroke:none"
                   id="path574"
                   inkscape:connector-curvature="0" /></g></g></g></g><g
           id="g582"><g
             id="g584" /><g
             id="g596"><g
               clip-path="url(#clipPath588)"
               id="g594"
               style="opacity:0.10000598"><g
                 transform="translate(382.7578,91.3262)"
                 id="g592"><path
                   d="m 0,0 c 0,-16.729 -28.056,-30.292 -62.666,-30.292 -34.609,0 -62.666,13.563 -62.666,30.292 0,16.729 28.057,30.292 62.666,30.292 C -28.056,30.292 0,16.729 0,0"
                   style="fill:#252732;fill-opacity:1;fill-rule:nonzero;stroke:none"
                   id="path590"
                   inkscape:connector-curvature="0" /></g></g></g></g><g
           id="g598"
           transform="translate(300.0127,386.3682)"><path
             d="m 0,0 h 19.564 v -104.718 h -6.537 c -21.628,0 -39.322,17.695 -39.322,39.322 v 39.1 C -26.295,-11.833 -14.462,0 0,0"
             style="fill:#252732;fill-opacity:1;fill-rule:nonzero;stroke:none"
             id="path600"
             inkscape:connector-curvature="0" /></g><g
           id="g602"
           transform="translate(289.3203,258.2349)"><path
             d="m 0,0 c 0,0 -0.035,-6.623 0.657,-9.721 0.694,-3.098 -1.558,-16.437 0,-25.098 1.56,-8.661 4.331,-12.472 4.331,-17.496 0,-5.023 -2.252,-19.747 -1.385,-23.731 0.866,-3.985 -0.138,-8.662 -1.109,-11.26 -0.971,-2.599 -7.553,-43.307 -7.206,-49.369 0.346,-6.064 2.598,-7.103 1.732,-10.048 -0.866,-2.944 -3.145,-2.772 -1.746,-5.716 1.4,-2.945 -1.42,-3.984 -0.443,-5.717 0.977,-1.732 15.355,-3.465 18.992,-1.213 3.638,2.252 1.386,5.717 2.425,6.756 1.039,1.04 1.213,4.678 0,6.064 -1.213,1.385 -0.214,3.637 0.846,6.236 1.059,2.598 -1.06,5.369 0,7.795 1.059,2.425 4.697,27.543 5.563,29.101 0.866,1.56 4.584,6.401 5.197,18.882 0.425,8.652 6.583,21.307 6.583,21.307 0,0 -5.457,-28.842 -5.976,-37.763 -0.521,-8.922 1.212,-12.472 0.692,-14.031 -0.519,-1.56 -0.432,-5.804 -0.259,-7.969 0.172,-2.165 0.259,-4.417 0.086,-4.937 -0.173,-0.52 -2.425,-2.165 -2.166,-5.11 0.26,-2.945 3.033,-4.418 3.985,-6.842 0.953,-2.425 14.724,-0.953 16.11,2.771 1.386,3.725 -0.087,4.678 0.953,5.977 1.039,1.299 -0.866,2.684 -0.953,5.023 -0.087,2.339 1.386,5.37 1.386,7.535 0,2.166 0.692,7.449 1.559,10.827 0.866,3.378 2.079,15.504 4.158,21.999 2.078,6.497 2.857,10.915 6.496,20.008 3.638,9.095 7.717,52.216 4.897,67.163 C 65.405,1.423 7.312,8.314 0,0"
             style="fill:#252732;fill-opacity:1;fill-rule:nonzero;stroke:none"
             id="path604"
             inkscape:connector-curvature="0" /></g><g
           id="g606"
           transform="translate(297.8467,212.8613)"><path
             d="M 0,0 1.023,0.245 C 0.858,0.932 0.689,1.621 0.521,2.313 L 0.215,3.569 -0.808,3.321 -0.501,2.064 C -0.332,1.373 -0.164,0.685 0,0"
             style="fill:#595f6c;fill-opacity:1;fill-rule:nonzero;stroke:none"
             id="path608"
             inkscape:connector-curvature="0" /></g><g
           id="g610"
           transform="translate(290.375,121.6816)"><path
             d="m 0,0 c -0.01,0.59 -0.016,1.209 -0.016,1.86 0,0.494 0.003,1.008 0.011,1.541 L -1.057,3.416 C -1.064,2.878 -1.068,2.359 -1.068,1.86 c 0,-0.658 0.006,-1.282 0.016,-1.878 z"
             style="fill:#595f6c;fill-opacity:1;fill-rule:nonzero;stroke:none"
             id="path612"
             inkscape:connector-curvature="0" /></g><g
           id="g614"
           transform="translate(300.0713,207.4111)"><path
             d="M 0,0 C -0.173,1.024 -0.391,2.13 -0.666,3.38 L -1.693,3.152 c 0.271,-1.231 0.486,-2.32 0.656,-3.327 z"
             style="fill:#595f6c;fill-opacity:1;fill-rule:nonzero;stroke:none"
             id="path616"
             inkscape:connector-curvature="0" /></g><g
           id="g618"
           transform="translate(289.5264,115.8721)"><path
             d="M 0,0 1.051,0.041 C 1.035,0.44 1.017,0.855 0.998,1.29 0.969,1.962 0.937,2.68 0.91,3.454 L -0.141,3.417 C -0.113,2.64 -0.082,1.919 -0.053,1.244 -0.034,0.812 -0.017,0.397 0,0"
             style="fill:#595f6c;fill-opacity:1;fill-rule:nonzero;stroke:none"
             id="path620"
             inkscape:connector-curvature="0" /></g><g
           id="g622"
           transform="translate(287.7471,106.0615)"><path
             d="m 0,0 c -0.184,-0.355 -0.361,-0.718 -0.527,-1.077 l 0.956,-0.44 c 0.158,0.345 0.328,0.692 0.505,1.033 0.383,0.739 0.694,1.425 0.95,2.096 L 0.901,1.987 C 0.659,1.354 0.364,0.704 0,0"
             style="fill:#595f6c;fill-opacity:1;fill-rule:nonzero;stroke:none"
             id="path624"
             inkscape:connector-curvature="0" /></g><g
           id="g626"
           transform="translate(286.7744,100.6367)"><path
             d="M 0,0 C 0.155,0.591 0.332,1.181 0.534,1.761 L -0.459,2.107 C -0.674,1.49 -0.861,0.865 -1.025,0.236 -0.685,0.15 -0.343,0.07 0,0"
             style="fill:#595f6c;fill-opacity:1;fill-rule:nonzero;stroke:none"
             id="path628"
             inkscape:connector-curvature="0" /></g><g
           id="g630"
           transform="translate(296.0254,244.5088)"><path
             d="M 0,0 V 0.53 H -1.052 V 0 c 0,-0.958 -10e-4,-1.924 -0.004,-2.888 L -0.004,-2.89 C -0.001,-1.926 0,-0.96 0,0"
             style="fill:#595f6c;fill-opacity:1;fill-rule:nonzero;stroke:none"
             id="path632"
             inkscape:connector-curvature="0" /></g><g
           id="g634"
           transform="translate(295.9248,230.0547)"><path
             d="m 0,0 c -0.002,0.148 -0.003,0.297 -0.003,0.445 0,0.208 0.002,0.416 0.006,0.624 0.014,0.751 0.025,1.532 0.036,2.336 L -1.013,3.419 C -1.023,2.617 -1.035,1.838 -1.049,1.089 -1.053,0.874 -1.055,0.659 -1.055,0.445 c 0,-0.152 10e-4,-0.304 0.003,-0.458 z"
             style="fill:#595f6c;fill-opacity:1;fill-rule:nonzero;stroke:none"
             id="path636"
             inkscape:connector-curvature="0" /></g><g
           id="g638"
           transform="translate(294.9385,235.8389)"><path
             d="m 0,0 1.052,-0.01 c 0.01,1.116 0.017,2.262 0.023,3.421 L 0.023,3.416 C 0.018,2.259 0.01,1.114 0,0"
             style="fill:#595f6c;fill-opacity:1;fill-rule:nonzero;stroke:none"
             id="path640"
             inkscape:connector-curvature="0" /></g><g
           id="g642"
           transform="translate(294.9268,256.6108)"><path
             d="m 0,0 c 0.008,-1.043 0.015,-2.192 0.021,-3.419 l 1.052,0.005 C 1.066,-2.186 1.06,-1.036 1.052,0.007 Z"
             style="fill:#595f6c;fill-opacity:1;fill-rule:nonzero;stroke:none"
             id="path644"
             inkscape:connector-curvature="0" /></g><g
           id="g646"
           transform="translate(296.4141,224.3672)"><path
             d="M 0,0 C -0.177,1.179 -0.303,2.276 -0.385,3.356 L -1.434,3.277 C -1.35,2.171 -1.221,1.048 -1.04,-0.157 Z"
             style="fill:#595f6c;fill-opacity:1;fill-rule:nonzero;stroke:none"
             id="path648"
             inkscape:connector-curvature="0" /></g><g
           id="g650"
           transform="translate(294.96,250.8232)"><path
             d="m 0,0 c 0.005,-1.103 0.008,-2.249 0.011,-3.419 l 1.051,0.002 C 1.06,-2.246 1.057,-1.1 1.052,0.005 Z"
             style="fill:#595f6c;fill-opacity:1;fill-rule:nonzero;stroke:none"
             id="path652"
             inkscape:connector-curvature="0" /></g><g
           id="g654"
           transform="translate(297.5166,218.7285)"><path
             d="M 0,0 C -0.281,1.227 -0.513,2.314 -0.705,3.325 L -1.738,3.128 c 0.195,-1.024 0.428,-2.124 0.713,-3.363 z"
             style="fill:#595f6c;fill-opacity:1;fill-rule:nonzero;stroke:none"
             id="path656"
             inkscape:connector-curvature="0" /></g><g
           id="g658"
           transform="translate(289.2842,110.2324)"><path
             d="m 0,0 1.031,-0.206 c 0.21,1.048 0.307,2.127 0.314,3.498 L 0.293,3.298 C 0.286,1.996 0.195,0.979 0,0"
             style="fill:#595f6c;fill-opacity:1;fill-rule:nonzero;stroke:none"
             id="path660"
             inkscape:connector-curvature="0" /></g><g
           id="g662"
           transform="translate(299.9268,187.6631)"><path
             d="m 0,0 -1.052,-0.002 c 0.002,-1.141 0.012,-2.285 0.025,-3.423 l 1.051,0.011 C 0.012,-2.278 0.002,-1.139 0,0"
             style="fill:#595f6c;fill-opacity:1;fill-rule:nonzero;stroke:none"
             id="path664"
             inkscape:connector-curvature="0" /></g><g
           id="g666"
           transform="translate(298.9248,181.8711)"><path
             d="M 0,0 C 0.01,-0.968 0.018,-1.93 0.018,-2.88 L 0.017,-3.412 1.068,-3.415 1.069,-2.88 c 0,0.953 -0.007,1.919 -0.017,2.891 z"
             style="fill:#595f6c;fill-opacity:1;fill-rule:nonzero;stroke:none"
             id="path668"
             inkscape:connector-curvature="0" /></g><g
           id="g670"
           transform="translate(298.7725,172.71)"><path
             d="M 0,0 1.05,-0.069 C 1.119,0.983 1.166,2.108 1.193,3.369 L 0.142,3.392 C 0.115,2.146 0.068,1.037 0,0"
             style="fill:#595f6c;fill-opacity:1;fill-rule:nonzero;stroke:none"
             id="path672"
             inkscape:connector-curvature="0" /></g><g
           id="g674"
           transform="translate(298.0195,167.0625)"><path
             d="m 0,0 1.026,-0.231 c 0.236,1.044 0.42,2.166 0.565,3.426 L 0.546,3.315 C 0.406,2.092 0.228,1.007 0,0"
             style="fill:#595f6c;fill-opacity:1;fill-rule:nonzero;stroke:none"
             id="path676"
             inkscape:connector-curvature="0" /></g><g
           id="g678"
           transform="translate(298.8877,190.0352)"><path
             d="M 0,0 1.052,-0.014 C 1.068,1.217 1.1,2.329 1.148,3.387 L 0.098,3.435 C 0.048,2.366 0.017,1.242 0,0"
             style="fill:#595f6c;fill-opacity:1;fill-rule:nonzero;stroke:none"
             id="path680"
             inkscape:connector-curvature="0" /></g><g
           id="g682"
           transform="translate(299.3652,204.9199)"><path
             d="m 0,0 c 0.136,-1.187 0.205,-2.284 0.211,-3.353 l 1.052,0.007 C 1.256,-2.239 1.185,-1.105 1.045,0.119 Z"
             style="fill:#595f6c;fill-opacity:1;fill-rule:nonzero;stroke:none"
             id="path684"
             inkscape:connector-curvature="0" /></g><g
           id="g686"
           transform="translate(299.3936,198.4121)"><path
             d="m 0,0 c -0.103,-0.807 -0.19,-1.669 -0.262,-2.563 l 1.049,-0.083 c 0.069,0.877 0.156,1.723 0.257,2.514 0.037,0.293 0.068,0.587 0.095,0.88 L 0.091,0.842 C 0.065,0.561 0.035,0.28 0,0"
             style="fill:#595f6c;fill-opacity:1;fill-rule:nonzero;stroke:none"
             id="path688"
             inkscape:connector-curvature="0" /></g><g
           id="g690"
           transform="translate(289.3975,128.082)"><path
             d="m 0,0 -0.022,-0.607 1.051,-0.037 0.022,0.603 C 1.086,0.849 1.146,1.783 1.232,2.74 L 0.185,2.834 C 0.098,1.86 0.035,0.906 0,0"
             style="fill:#595f6c;fill-opacity:1;fill-rule:nonzero;stroke:none"
             id="path692"
             inkscape:connector-curvature="0" /></g><g
           id="g694"
           transform="translate(291.9736,144.7197)"><path
             d="m 0,0 1.024,-0.242 c 0.248,1.05 0.524,2.163 0.817,3.309 L 0.822,3.328 C 0.526,2.177 0.25,1.057 0,0"
             style="fill:#595f6c;fill-opacity:1;fill-rule:nonzero;stroke:none"
             id="path696"
             inkscape:connector-curvature="0" /></g><g
           id="g698"
           transform="translate(296.5449,161.4941)"><path
             d="M 0,0 1.012,-0.287 C 1.391,1.051 1.681,2.102 1.924,3.021 L 0.906,3.289 C 0.666,2.377 0.378,1.332 0,0"
             style="fill:#595f6c;fill-opacity:1;fill-rule:nonzero;stroke:none"
             id="path700"
             inkscape:connector-curvature="0" /></g><g
           id="g702"
           transform="translate(289.8369,133.2881)"><path
             d="m 0,0 1.044,-0.13 c 0.134,1.077 0.3,2.208 0.491,3.362 L 0.498,3.405 C 0.304,2.236 0.137,1.091 0,0"
             style="fill:#595f6c;fill-opacity:1;fill-rule:nonzero;stroke:none"
             id="path704"
             inkscape:connector-curvature="0" /></g><g
           id="g706"
           transform="translate(290.7539,139.0361)"><path
             d="M 0,0 1.033,-0.196 C 1.237,0.875 1.468,1.998 1.719,3.142 L 0.691,3.367 C 0.438,2.214 0.206,1.082 0,0"
             style="fill:#595f6c;fill-opacity:1;fill-rule:nonzero;stroke:none"
             id="path708"
             inkscape:connector-curvature="0" /></g><g
           id="g710"
           transform="translate(293.3984,150.3447)"><path
             d="M 0,0 1.016,-0.272 C 1.293,0.764 1.589,1.84 1.919,3.021 L 0.906,3.304 C 0.574,2.12 0.278,1.039 0,0"
             style="fill:#595f6c;fill-opacity:1;fill-rule:nonzero;stroke:none"
             id="path712"
             inkscape:connector-curvature="0" /></g><g
           id="g714"
           transform="translate(295.6855,158.4961)"><path
             d="m 0,0 c -0.239,-0.832 -0.485,-1.689 -0.735,-2.566 l 1.01,-0.288 c 0.25,0.875 0.497,1.732 0.737,2.563 L 1.219,0.432 0.208,0.723 Z"
             style="fill:#595f6c;fill-opacity:1;fill-rule:nonzero;stroke:none"
             id="path716"
             inkscape:connector-curvature="0" /></g><g
           id="g718"
           transform="translate(323.374,154.2471)"><path
             d="M 0,0 -1.052,0.015 C -1.067,-1.106 -1.08,-2.253 -1.092,-3.407 L -0.04,-3.419 C -0.028,-2.266 -0.016,-1.12 0,0"
             style="fill:#595f6c;fill-opacity:1;fill-rule:nonzero;stroke:none"
             id="path720"
             inkscape:connector-curvature="0" /></g><g
           id="g722"
           transform="translate(323.627,159.9844)"><path
             d="m 0,0 -1.047,0.099 c -0.115,-1.22 -0.188,-2.38 -0.218,-3.448 l 1.051,-0.028 C -0.185,-2.333 -0.113,-1.197 0,0"
             style="fill:#595f6c;fill-opacity:1;fill-rule:nonzero;stroke:none"
             id="path724"
             inkscape:connector-curvature="0" /></g><g
           id="g726"
           transform="translate(327.9424,196.6699)"><path
             d="M 0,0 1.052,0.007 C 1.045,1.117 1.011,2.275 0.948,3.448 L -0.102,3.394 C -0.041,2.236 -0.007,1.095 0,0"
             style="fill:#595f6c;fill-opacity:1;fill-rule:nonzero;stroke:none"
             id="path728"
             inkscape:connector-curvature="0" /></g><g
           id="g730"
           transform="translate(323.2178,142.6641)"><path
             d="m 0,0 -1.051,0.024 c -0.029,-1.273 -0.063,-2.388 -0.104,-3.41 l 1.051,-0.042 C -0.063,-2.4 -0.029,-1.278 0,0"
             style="fill:#595f6c;fill-opacity:1;fill-rule:nonzero;stroke:none"
             id="path732"
             inkscape:connector-curvature="0" /></g><g
           id="g734"
           transform="translate(324.3779,165.6855)"><path
             d="m 0,0 -1.039,0.167 c -0.197,-1.225 -0.358,-2.337 -0.494,-3.4 L -0.49,-3.366 C -0.355,-2.314 -0.196,-1.214 0,0"
             style="fill:#595f6c;fill-opacity:1;fill-rule:nonzero;stroke:none"
             id="path736"
             inkscape:connector-curvature="0" /></g><g
           id="g738"
           transform="translate(327.6836,202.4102)"><path
             d="M 0,0 1.048,0.086 C 0.958,1.204 0.843,2.355 0.707,3.508 L -0.338,3.385 C -0.203,2.245 -0.09,1.106 0,0"
             style="fill:#595f6c;fill-opacity:1;fill-rule:nonzero;stroke:none"
             id="path740"
             inkscape:connector-curvature="0" /></g><g
           id="g742"
           transform="translate(327.1104,214.0146)"><path
             d="m 0,0 c -0.412,2.08 -0.735,3.361 -0.739,3.374 l -1.02,-0.259 c 0.004,-0.012 0.321,-1.269 0.727,-3.319 z"
             style="fill:#595f6c;fill-opacity:1;fill-rule:nonzero;stroke:none"
             id="path744"
             inkscape:connector-curvature="0" /></g><g
           id="g746"
           transform="translate(327.042,208.1318)"><path
             d="M 0,0 1.041,0.147 C 0.883,1.269 0.702,2.411 0.504,3.543 L -0.531,3.361 C -0.336,2.241 -0.157,1.11 0,0"
             style="fill:#595f6c;fill-opacity:1;fill-rule:nonzero;stroke:none"
             id="path748"
             inkscape:connector-curvature="0" /></g><g
           id="g750"
           transform="translate(323.3086,148.459)"><path
             d="m 0,0 -1.052,0.012 c -0.012,-1.147 -0.027,-2.291 -0.045,-3.418 l 1.052,-0.017 C -0.027,-2.295 -0.013,-1.148 0,0"
             style="fill:#595f6c;fill-opacity:1;fill-rule:nonzero;stroke:none"
             id="path752"
             inkscape:connector-curvature="0" /></g><g
           id="g754"
           transform="translate(326.915,185.2529)"><path
             d="M 0,0 1.038,-0.169 C 1.229,1.013 1.4,2.154 1.546,3.226 L 0.503,3.366 C 0.359,2.304 0.19,1.172 0,0"
             style="fill:#595f6c;fill-opacity:1;fill-rule:nonzero;stroke:none"
             id="path756"
             inkscape:connector-curvature="0" /></g><g
           id="g758"
           transform="translate(325.0654,175.2217)"><path
             d="m 0,0 -0.26,-1.331 1.032,-0.202 0.26,1.331 c 0.132,0.673 0.264,1.348 0.395,2.026 l -1.032,0.2 C 0.264,1.348 0.131,0.672 0,0"
             style="fill:#595f6c;fill-opacity:1;fill-rule:nonzero;stroke:none"
             id="path760"
             inkscape:connector-curvature="0" /></g><g
           id="g762"
           transform="translate(325.9062,179.5684)"><path
             d="M 0,0 1.033,-0.195 C 1.268,1.046 1.47,2.147 1.65,3.175 L 0.614,3.357 C 0.435,2.335 0.233,1.236 0,0"
             style="fill:#595f6c;fill-opacity:1;fill-rule:nonzero;stroke:none"
             id="path764"
             inkscape:connector-curvature="0" /></g><g
           id="g766"
           transform="translate(327.6982,190.9473)"><path
             d="m 0,0 1.047,-0.103 c 0.107,1.1 0.181,2.259 0.219,3.446 L 0.214,3.376 C 0.177,2.213 0.104,1.076 0,0"
             style="fill:#595f6c;fill-opacity:1;fill-rule:nonzero;stroke:none"
             id="path768"
             inkscape:connector-curvature="0" /></g><g
           id="g770"
           transform="translate(321.2314,122.0801)"><path
             d="m 0,0 c -0.021,0.456 -0.032,0.919 -0.032,1.377 0,0.664 0.023,1.329 0.068,1.978 l -1.05,0.074 c -0.047,-0.674 -0.07,-1.364 -0.07,-2.052 0,-0.475 0.011,-0.954 0.033,-1.426 z"
             style="fill:#595f6c;fill-opacity:1;fill-rule:nonzero;stroke:none"
             id="path772"
             inkscape:connector-curvature="0" /></g><g
           id="g774"
           transform="translate(322.1562,130.5156)"><path
             d="M 0,0 C 0.048,0.158 0.094,0.329 0.139,0.51 L -0.884,0.758 C -0.923,0.598 -0.964,0.446 -1.007,0.306 -1.279,-0.592 -1.502,-1.573 -1.667,-2.61 l 1.039,-0.165 C -0.471,-1.786 -0.26,-0.853 0,0"
             style="fill:#595f6c;fill-opacity:1;fill-rule:nonzero;stroke:none"
             id="path776"
             inkscape:connector-curvature="0" /></g><g
           id="g778"
           transform="translate(322.9961,136.8604)"><path
             d="m 0,0 -1.05,0.062 c -0.078,-1.298 -0.176,-2.435 -0.289,-3.375 l 1.044,-0.126 C -0.177,-2.465 -0.08,-1.34 0,0"
             style="fill:#595f6c;fill-opacity:1;fill-rule:nonzero;stroke:none"
             id="path780"
             inkscape:connector-curvature="0" /></g><g
           id="g782"
           transform="translate(323.7354,168.1943)"><path
             d="M 0,0 1.036,-0.183 C 1.212,0.812 1.414,1.908 1.654,3.173 L 0.621,3.369 C 0.38,2.101 0.177,0.998 0,0"
             style="fill:#595f6c;fill-opacity:1;fill-rule:nonzero;stroke:none"
             id="path784"
             inkscape:connector-curvature="0" /></g><g
           id="g786"
           transform="translate(314.5762,67.7734)"><path
             d="m 0,0 c -0.213,-0.227 -0.476,-0.455 -0.786,-0.679 -2.077,-1.514 -6.237,-2.877 -11.512,-1.746 -6.064,1.299 -10.655,3.55 -13.427,9.7 -2.771,6.151 -3.066,6.224 -4.912,8.959 -1.793,2.656 -3.149,6.247 -2.59,10.824 0.019,0.13 0.035,0.262 0.056,0.399 0.692,4.762 -0.421,7.488 3.513,9.632 0,0 0.31,-0.679 -0.132,-1.777 0,0 -0.567,-1.274 1.036,-2.749 0.858,-0.789 1.647,-1.135 2.52,-1.328 1.059,-0.236 2.237,-0.247 3.801,-0.531 0,0 0.084,1.639 6.756,1.491 6.671,-0.149 6.371,-2.987 7.102,-4.738 1.909,-4.575 4.331,-13.686 7.363,-17.323 C 0.231,8.403 0.946,6.416 1.126,4.622 V 4.619 C 1.32,2.647 0.862,0.906 0,0"
             style="fill:#017bae;fill-opacity:1;fill-rule:nonzero;stroke:none"
             id="path788"
             inkscape:connector-curvature="0" /></g><g
           id="g790"
           transform="translate(314.5752,67.7725)"><path
             d="m 0,0 c -1.645,-1.733 -6.236,-3.724 -12.298,-2.424 -6.062,1.299 -10.653,3.549 -13.426,9.699 -2.77,6.151 -3.066,6.226 -4.911,8.959 -1.793,2.657 -3.152,6.25 -2.591,10.824 0.338,-2.142 1.385,-7.443 3.779,-9.563 3.032,-2.684 7.361,-12.903 11.606,-15.676 2.211,-1.444 4.804,-2.001 6.78,-2.203 1.811,-0.184 3.563,0.696 4.479,2.268 l 3.313,0.585 C -2.066,1.627 -0.392,1.919 0.419,3.144 0.676,3.532 0.919,4.017 1.125,4.62 1.32,2.647 0.863,0.907 0,0"
             style="fill:#252732;fill-opacity:1;fill-rule:nonzero;stroke:none"
             id="path792"
             inkscape:connector-curvature="0" /></g><g
           id="g794"><g
             id="g796" /><g
             id="g808"><g
               clip-path="url(#clipPath800)"
               id="g806"
               style="opacity:0.19999701"><g
                 transform="translate(313.79,67.0947)"
                 id="g804"><path
                   d="m 0,0 c -2.077,-1.515 -6.237,-2.877 -11.512,-1.746 -6.064,1.299 -10.655,3.55 -13.426,9.7 -2.772,6.15 -3.067,6.224 -4.913,8.959 -1.793,2.655 -3.149,6.247 -2.589,10.823 0.018,0.131 0.034,0.263 0.055,0.4 0.692,4.761 -0.421,7.488 3.513,9.632 0,0 0.31,-0.679 -0.132,-1.778 0,0 -0.567,-1.273 1.036,-2.748 0.858,-0.789 1.647,-1.136 2.52,-1.328 -0.802,-1.714 -2.007,-5.683 1.146,-10.018 4.207,-5.785 4.844,-12.622 8.995,-15.514 4.153,-2.893 3.89,-5.391 11.515,-5.259 C -2.28,1.149 -1.031,0.715 0,0"
                   style="fill:#252732;fill-opacity:1;fill-rule:nonzero;stroke:none"
                   id="path802"
                   inkscape:connector-curvature="0" /></g></g></g></g><g
           id="g810"
           transform="translate(365.0732,103.6289)"><path
             d="m 0,0 c -0.019,-0.273 -0.065,-0.805 -0.194,-1.488 v -0.003 c -0.061,-0.326 -0.137,-0.686 -0.24,-1.07 -0.762,-2.85 -2.813,-6.96 -8.317,-7.571 -7.794,-0.864 -20.699,5.457 -24.078,5.283 -3.376,-0.173 -16.109,-0.781 -19.314,2.427 -1.838,1.838 -1.194,4.134 -0.282,6.363 0.679,1.652 1.507,3.272 1.581,4.634 0.173,3.205 3.294,9.814 3.294,9.814 l 2.033,-1.282 c 0,0 -0.941,-1.882 4.373,-2.639 4.546,-0.65 5.157,-0.326 7.754,0.649 0.984,0.365 1.76,0.783 2.41,1.223 1.067,0.721 1.782,1.507 2.482,2.235 1.125,1.175 2.857,-2.377 5.024,-5.148 2.167,-2.772 12.385,-8.229 16.199,-9.7 C -3.468,2.254 0.084,1.386 0,0"
             style="fill:#017bae;fill-opacity:1;fill-rule:nonzero;stroke:none"
             id="path812"
             inkscape:connector-curvature="0" /></g><g
           id="g814"
           transform="translate(364.6387,101.0684)"><path
             d="m 0,0 c -0.762,-2.851 -2.812,-6.961 -8.315,-7.571 -7.795,-0.867 -20.702,5.456 -24.08,5.282 -3.377,-0.172 -16.109,-0.779 -19.313,2.427 -1.84,1.84 -1.195,4.133 -0.281,6.363 0.738,-1.572 2.512,-4.5 5.652,-5.064 4.328,-0.78 12.644,0.171 16.801,-1.559 4.157,-1.733 19.057,-5.457 23.3,-5.197 4.243,0.259 6.233,5.324 6.233,5.324 z"
             style="fill:#252732;fill-opacity:1;fill-rule:nonzero;stroke:none"
             id="path816"
             inkscape:connector-curvature="0" /></g><g
           id="g818"><g
             id="g820" /><g
             id="g832"><g
               clip-path="url(#clipPath824)"
               id="g830"
               style="opacity:0.19999701"><g
                 transform="translate(364.8789,102.1377)"
                 id="g828"><path
                   d="m 0,0 c -0.061,-0.326 -0.137,-0.686 -0.239,-1.069 -0.763,-2.851 -2.814,-6.961 -8.318,-7.572 -7.794,-0.864 -20.699,5.457 -24.078,5.284 -3.376,-0.174 -16.108,-0.782 -19.313,2.426 -1.839,1.838 -1.195,4.134 -0.282,6.364 0.678,1.651 1.506,3.271 1.581,4.633 0.172,3.205 3.294,9.814 3.294,9.814 l 2.033,-1.281 c 0,0 -0.942,-1.883 4.373,-2.64 4.546,-0.649 5.156,-0.326 7.754,0.649 0.983,0.366 1.759,0.784 2.409,1.223 0,0 0.36,-1.922 -4.636,-5.603 -4.996,-3.682 -2.498,-7.232 0,-8.415 C -32.924,2.63 -28.849,3.287 -20.828,0 -12.809,-3.286 -2.706,-5.653 0,0"
                   style="fill:#252732;fill-opacity:1;fill-rule:nonzero;stroke:none"
                   id="path826"
                   inkscape:connector-curvature="0" /></g></g></g></g><g
           id="g834"
           transform="translate(336.6797,353.9785)"><path
             d="m 0,0 c 0,0 4.042,-39.091 10.512,-44.718 6.467,-5.627 12.165,-3.313 12.165,-3.313 0.437,0.255 2.477,0.919 2.932,1.304 7.605,6.441 14.574,27.961 15.568,32.494 0.86,3.932 5.771,13.665 7.076,17.472 0.288,0.842 1.314,3.742 1.314,3.742 -4.837,4.036 -8.792,2.848 -9.786,3.191 -0.122,0.041 -0.183,0.061 -0.183,0.061 0,0 -0.018,-0.074 -0.05,-0.215 C 39.524,9.933 39.498,9.821 39.461,9.685 L 39.458,9.677 C 39.409,9.492 39.351,9.267 39.275,9.001 L 39.274,8.999 C 39.262,8.957 39.248,8.915 39.236,8.869 39.215,8.799 39.192,8.72 39.169,8.644 L 39.145,8.568 C 38.299,5.704 36.189,-0.355 32.279,-5.505 28.948,-9.89 26.115,-14.682 24.455,-17.658 l -10e-4,-0.003 c -0.994,-1.789 -1.566,-2.923 -1.566,-2.923 -2.324,3.6 -2.324,4.254 -3.157,7.23 -0.476,1.702 -2.507,13.275 -2.507,13.275 C 11.566,2.083 0,0 0,0"
             style="fill:#f5b183;fill-opacity:1;fill-rule:nonzero;stroke:none"
             id="path836"
             inkscape:connector-curvature="0" /></g><g
           id="g838"
           transform="translate(357.9121,323.6514)"><path
             d="m 0,0 c 1.872,5.86 1.656,9.742 1.656,9.742 0,0 0.572,1.135 1.568,2.925 C 3.945,4.351 1.658,1.232 0,0"
             style="fill:#ef9168;fill-opacity:1;fill-rule:nonzero;stroke:none"
             id="path840"
             inkscape:connector-curvature="0" /></g><g
           id="g842"
           transform="translate(394.3076,375.8428)"><path
             d="m 0,0 c -0.89,-1.547 -2.95,-8.778 -4.871,-11.597 -1.92,-2.82 -3.281,-4.048 -3.281,-4.048 l -1.636,-3.066 -0.267,-0.498 c 0,0 -6.814,3.546 -7.838,4.945 -0.085,0.112 -0.131,0.212 -0.129,0.294 10e-4,0.033 0.008,0.064 0.024,0.09 0,0 0.001,0.004 0.005,0.009 l 10e-4,0.003 c 0.021,0.045 0.103,0.222 0.138,0.512 l 0.002,0.006 c 0.035,0.287 0.03,0.682 -0.116,1.165 l 0.001,0.003 h -0.002 c -0.171,0.568 -0.531,1.259 -1.238,2.039 -2.031,2.243 -3.487,3.959 -2.737,6.694 0.751,2.731 1.31,4.498 1.276,5.652 -0.035,1.151 2.988,4.566 3.582,4.82 0.597,0.254 1.917,-1.021 0.742,-3.447 -1.174,-2.43 -1.604,-4.693 -1.069,-4.805 0.536,-0.113 1.292,1.19 2.215,2.84 0.923,1.653 1.374,3.622 1.596,4.865 0.222,1.245 1.265,8.685 2.317,10.923 1.051,2.236 1.199,2.705 2.217,2.497 1.019,-0.21 0.803,-3.499 0.298,-5.468 -0.394,-1.545 -1.516,-6.447 -1.041,-6.649 0.696,-0.301 2.888,8.066 3.415,9.728 0.526,1.662 1.521,4.401 3.103,3.302 1.336,-0.93 -1.441,-8.342 -1.747,-9.845 0,0 -0.948,-3.241 -0.787,-4.054 0.161,-0.813 0.808,0.276 1.079,0.763 0.268,0.486 1.718,4.827 2.072,6.543 0.351,1.716 0.822,3.738 1.891,3.686 1.066,-0.054 1.569,-1.356 0.456,-5.231 C -1.442,8.796 -2.12,5.812 -2.541,4.632 -2.963,3.45 -1.842,3.382 -1.203,4.493 -0.566,5.606 1.117,10.557 1.94,10.812 2.764,11.065 3.944,10.291 3.376,8.129 2.806,5.968 0.892,1.546 0,0"
             style="fill:#f5b183;fill-opacity:1;fill-rule:nonzero;stroke:none"
             id="path844"
             inkscape:connector-curvature="0" /></g><g
           id="g846"
           transform="translate(379.7871,375.9053)"><path
             d="m 0,0 c 0,0 4.472,-3.25 1.759,-9.015 0,0 1.981,0.731 1.882,4.136 C 3.53,-1.118 0,0 0,0"
             style="fill:#ef9168;fill-opacity:1;fill-rule:nonzero;stroke:none"
             id="path848"
             inkscape:connector-curvature="0" /></g><g
           id="g850"
           transform="translate(381.5742,381.5493)"><path
             d="m 0,0 c 0,0 2.703,0.879 5.989,-0.201 3.285,-1.079 5.55,-5.384 5.55,-5.384 0,0 -4.527,5.376 -11.539,5.585"
             style="fill:#ef9168;fill-opacity:1;fill-rule:nonzero;stroke:none"
             id="path852"
             inkscape:connector-curvature="0" /></g><g
           id="g854"
           transform="translate(376.2275,363.9961)"><path
             d="M 0,0 C -0.023,-0.084 -0.05,-0.196 -0.087,-0.333 L -0.09,-0.341 C -0.139,-0.526 -0.197,-0.75 -0.272,-1.016 L -0.273,-1.019 C -0.286,-1.061 -0.3,-1.103 -0.312,-1.148 -0.333,-1.219 -0.355,-1.298 -0.379,-1.374 L -0.403,-1.449 C 1.472,-2.668 2.715,-2.593 2.715,-2.593 1.428,-2.047 0.541,-0.919 0,0"
             style="fill:#ef9168;fill-opacity:1;fill-rule:nonzero;stroke:none"
             id="path856"
             inkscape:connector-curvature="0" /></g><g
           id="g858"
           transform="translate(357.708,351.2007)"><path
             d="m 0,0 c -0.16,-7.302 0,-12.926 0,-12.926 l -7.354,-0.497 c -0.029,-6.007 -0.724,-12.252 -0.431,-20.74 0.311,-9.066 4.342,-28.858 6.477,-43.157 1.122,-7.507 1.719,-13.501 0.982,-15.632 -2.143,-6.191 -8.729,-3.343 -17.935,-3.59 -11.883,-0.32 -49.814,-3.832 -49.814,-3.832 0,0 -1.612,11.469 -0.184,28.373 1.429,16.904 0.715,35.474 1.667,43.6 0.952,8.126 -1.21,7.707 -1.21,7.707 -7.396,11.787 -21.375,15.58 -21.375,15.58 0,0 7.976,14.865 11.31,18.942 3.333,4.076 4.133,6.776 9.608,11.739 0.898,0.815 3.46,1.988 6.545,3.215 l 0.003,0.002 c 2.352,0.936 5.012,1.9 7.464,2.757 5.27,1.843 10.875,2.542 16.439,2.041 l 12.964,-1.172 0.002,-0.002 c 0.24,-0.136 15.65,-8.831 18.485,-11.176 C -3.5,18.868 0.157,7.302 0,0"
             style="fill:#017bae;fill-opacity:1;fill-rule:nonzero;stroke:none"
             id="path860"
             inkscape:connector-curvature="0" /></g><g
           id="g862"><g
             id="g864" /><g
             id="g876"><g
               clip-path="url(#clipPath868)"
               id="g874"
               style="opacity:0.19999701"><g
                 transform="translate(357.3818,258.2485)"
                 id="g872"><path
                   d="m 0,0 c -2.143,-6.19 -8.729,-3.343 -17.935,-3.59 -11.882,-0.32 -49.814,-3.831 -49.814,-3.831 0,0 -1.611,11.468 -0.184,28.372 1.429,16.904 0.715,35.474 1.667,43.6 0.953,8.126 -1.21,7.707 -1.21,7.707 -7.396,11.787 -21.375,15.58 -21.375,15.58 0,0 7.976,14.866 11.31,18.942 3.333,4.076 4.133,6.776 9.608,11.74 0.898,0.814 3.46,1.987 6.545,3.214 -0.212,-0.246 -13.87,-16.009 -13.713,-24.042 0.16,-8.095 6.031,-16.408 10.952,-16.378 0,0 5.079,-1.271 12.063,9.554 0,0 -6.416,-20.317 -6.226,-28.888 0.194,-8.571 -3.538,-32.934 10.115,-42.458 13.648,-9.523 23.679,-11.823 34.655,-10.237 6.446,0.931 11.923,0.633 12.561,6.347 C 0.141,8.125 0.737,2.131 0,0"
                   style="fill:#252732;fill-opacity:1;fill-rule:nonzero;stroke:none"
                   id="path870"
                   inkscape:connector-curvature="0" /></g></g></g></g><g
           id="g878"
           transform="translate(298.3779,380.9038)"><path
             d="M 0,0 C 0,0 9.271,-14.847 8.182,-28.613 6.31,-52.298 -7.476,-60.48 -7.476,-60.48 c 0,0 -6.742,-8.229 -0.407,-13.894 0,0 17.102,9.552 23.341,28.314 6.239,18.762 -0.545,45.439 -5.274,49.634 C 10.184,3.574 4.415,7.863 0,0"
             style="fill:#252732;fill-opacity:1;fill-rule:nonzero;stroke:none"
             id="path880"
             inkscape:connector-curvature="0" /></g><g
           id="g882"
           transform="translate(332.8643,383.6108)"><path
             d="m 0,0 c 0,0 16.424,-14.337 17.015,-59.605 0,0 5.881,1.462 4.805,12.312 -1.111,11.211 -1.269,30.042 -10.642,40.452 0,0 -2.15,5.117 -11.178,6.841"
             style="fill:#252732;fill-opacity:1;fill-rule:nonzero;stroke:none"
             id="path884"
             inkscape:connector-curvature="0" /></g><g
           id="g886"
           transform="translate(344.5156,430.0488)"><path
             d="m 0,0 c 0.274,-1.445 0.288,-2.405 0.288,-2.405 -3.85,-11.149 -21.569,-31.558 -28.405,-37.264 -6.838,-5.71 -10.69,6.363 -9.84,9.527 1.895,7.043 -1.871,8.314 -3.767,17.416 -0.99,4.757 -0.297,12.438 5.024,18.233 0,0 0,0.002 0.003,0.004 0.116,0.179 3.856,5.924 11.177,7.738 7.436,1.845 13.271,7.559 19.321,3.59 C -0.856,13.337 2.448,7.014 0,0"
             style="fill:#481b1e;fill-opacity:1;fill-rule:nonzero;stroke:none"
             id="path888"
             inkscape:connector-curvature="0" /></g><g
           id="g890"
           transform="translate(344.8037,427.644)"><path
             d="m 0,0 c 0,0 -0.305,-3.209 0,-6.937 0.229,-2.789 0.228,-4.313 -0.833,-6.739 -2.078,-4.756 -5.158,-3.764 -5.158,-3.764 0,0 -2.223,16.487 5.991,17.44"
             style="fill:#481b1e;fill-opacity:1;fill-rule:nonzero;stroke:none"
             id="path892"
             inkscape:connector-curvature="0" /></g><g
           id="g894"
           transform="translate(303.418,404.5864)"><path
             d="m 0,0 c 2.336,-7.527 6.488,-6.229 6.488,-6.229 1.298,-12.459 -1.816,-16.612 -1.816,-16.612 6.792,-8.15 14.919,-9.414 19.726,-9.313 1.319,0.029 2.388,0.159 3.112,0.278 0.573,0.094 0.955,0.629 0.88,1.206 -1.009,7.709 3.39,15.192 3.39,15.192 C 7.236,-12.01 8.306,5.71 8.306,5.71 L 6.488,7.008 C 2.336,9.604 -2.337,7.527 0,0"
             style="fill:#f5b183;fill-opacity:1;fill-rule:nonzero;stroke:none"
             id="path896"
             inkscape:connector-curvature="0" /></g><g
           id="g898"
           transform="translate(315.5127,396.54)"><path
             d="m 0,0 c 6.001,-6.761 15.028,-8.534 20.448,-7.281 0.13,0.031 0.26,0.063 0.384,0.096 h 0.003 c 0.812,0.219 1.534,0.507 2.139,0.857 0.194,0.114 0.376,0.234 0.545,0.358 0.916,0.68 1.742,1.76 2.437,2.977 1.902,3.341 1.916,6.886 1.617,10.683 l -0.734,8.429 0.002,0.059 0.255,4.763 0.377,7.028 c 0.064,1.219 -0.494,2.397 -1.5,3.089 -0.006,0.004 -0.012,0.007 -0.017,0.011 -12.952,8.986 -28.388,0.857 -28.388,0.857 0,0 -6.616,-21.731 2.432,-31.926"
             style="fill:#f5b183;fill-opacity:1;fill-rule:nonzero;stroke:none"
             id="path900"
             inkscape:connector-curvature="0" /></g><g
           id="g902"
           transform="translate(335.9609,389.2593)"><path
             d="M 0,0 C 0,0 0.135,-0.008 0.384,0.096 H 0.387 C 0.48,0.135 0.592,0.192 0.719,0.273 Z"
             style="fill:#ef9168;fill-opacity:1;fill-rule:nonzero;stroke:none"
             id="path904"
             inkscape:connector-curvature="0" /></g><g
           id="g906"
           transform="translate(324.3008,402.6821)"><path
             d="m 0,0 h 15.191 c 0,0 0.311,-7.099 -7.595,-7.099 C 0,-7.099 0,0 0,0"
             style="fill:#ffffff;fill-opacity:1;fill-rule:nonzero;stroke:none"
             id="path908"
             inkscape:connector-curvature="0" /></g><g
           id="g910"
           transform="translate(327.4229,421.0068)"><path
             d="m 0,0 -0.073,-2.098 c 0,0 -2.745,0.942 -5.472,-0.209 -2.726,-1.151 -2.915,-1.7 -2.915,-1.7 l -0.686,1.217 c 0,0 2.629,4.267 9.146,2.79"
             style="fill:#481b1e;fill-opacity:1;fill-rule:nonzero;stroke:none"
             id="path912"
             inkscape:connector-curvature="0" /></g><g
           id="g914"
           transform="translate(318.2764,430.605)"><path
             d="m 0,0 c 0,0 -0.973,-5.579 -5.496,-7.655 0,0 -0.328,-9.073 1.056,-13.738 h -2.964 l -1.658,15.187 c 0,0 5.291,9.391 9.062,6.206"
             style="fill:#481b1e;fill-opacity:1;fill-rule:nonzero;stroke:none"
             id="path916"
             inkscape:connector-curvature="0" /></g><g
           id="g918"
           transform="translate(313.8359,398.8452)"><path
             d="m 0,0 c 0,0 0.215,-10.445 9.665,-15.11 1.602,-0.79 2.946,-2.04 3.72,-3.65 0.825,-1.717 1.334,-4.204 0.595,-7.653 1.348,0.029 2.436,0.165 3.16,0.286 0.547,0.091 0.912,0.601 0.839,1.15 -1.035,7.725 3.383,15.241 3.383,15.241 C 21.362,-9.736 8.08,-12.75 0,0"
             style="fill:#ef9168;fill-opacity:1;fill-rule:nonzero;stroke:none"
             id="path920"
             inkscape:connector-curvature="0" /></g><g
           id="g922"
           transform="translate(305.9697,408.8257)"><path
             d="m 0,0 c 0,0 4.916,0.211 3.245,-6.662 0,0 0.346,4.975 -3.245,6.662"
             style="fill:#ef9168;fill-opacity:1;fill-rule:nonzero;stroke:none"
             id="path924"
             inkscape:connector-curvature="0" /></g><g
           id="g926"
           transform="translate(309.0713,404.2305)"><path
             d="m 0,0 c 0,0 -0.738,2.216 -2.512,1.265 0,0 0.363,1.211 2.222,0.908 z"
             style="fill:#ef9168;fill-opacity:1;fill-rule:nonzero;stroke:none"
             id="path928"
             inkscape:connector-curvature="0" /></g><g
           id="g930"
           transform="translate(330.2168,408.2202)"><path
             d="M 0,0 C 0,0 0.062,1.983 3.31,1.983 6.208,1.983 6.994,0 6.994,0 Z"
             style="fill:#ef9168;fill-opacity:1;fill-rule:nonzero;stroke:none"
             id="path932"
             inkscape:connector-curvature="0" /></g><g
           id="g934"
           transform="translate(341.8926,417.7266)"><path
             d="m 0,0 -0.579,-1.443 c 0,0 -1.192,1.798 -3.667,2.238 -1.893,0.337 -2.866,-0.098 -2.866,-0.098 l -0.039,1.97 c 0,0 4.458,1.663 7.151,-2.667"
             style="fill:#481b1e;fill-opacity:1;fill-rule:nonzero;stroke:none"
             id="path936"
             inkscape:connector-curvature="0" /></g><g
           id="g938"
           transform="translate(335.9609,394.9043)"><path
             d="m 0,0 c 0,0 -0.455,-0.581 -3.819,-0.744 -3.364,-0.163 -5.439,0.702 -5.439,0.702 0,0 5.259,-5.071 9.258,0.042"
             style="fill:#ef9168;fill-opacity:1;fill-rule:nonzero;stroke:none"
             id="path940"
             inkscape:connector-curvature="0" /></g><g
           id="g942"
           transform="translate(327.4229,414.8916)"><path
             d="m 0,0 c 0,0 -1.379,2.907 -4.057,2.108 -2.678,-0.799 -3.274,-3.179 -3.274,-3.179 0,0 3.711,4.464 7.331,1.071"
             style="fill:#252732;fill-opacity:1;fill-rule:nonzero;stroke:none"
             id="path944"
             inkscape:connector-curvature="0" /></g><g
           id="g946"
           transform="translate(334.7412,414.854)"><path
             d="M 0,0 C 0,0 1.141,2.405 3.356,1.744 5.572,1.083 6.064,-0.886 6.064,-0.886 6.064,-0.886 2.995,2.807 0,0"
             style="fill:#252732;fill-opacity:1;fill-rule:nonzero;stroke:none"
             id="path948"
             inkscape:connector-curvature="0" /></g><g
           id="g950"
           transform="translate(288.9404,262.5815)"><path
             d="M 0,0 H -0.003 C -0.455,0.007 -0.898,0.15 -1.329,0.4 -1.25,0.386 -1.174,0.372 -1.101,0.357 0.159,0.133 0.716,-0.012 0,0"
             style="fill:#f5b183;fill-opacity:1;fill-rule:nonzero;stroke:none"
             id="path952"
             inkscape:connector-curvature="0" /></g><g
           id="g954"
           transform="translate(323.4521,265.8384)"><path
             d="m 0,0 c 0,-1.24 -1.429,-1.588 -1.429,-1.588 -0.975,-0.486 -3.015,0.317 -4.206,1.35 -0.745,0.645 -3.359,1.852 -5.21,2.662 1.941,-1.129 3.86,-3.019 5.288,-4.329 1.905,-1.747 3.653,-2.985 3.653,-2.985 -0.952,-2.35 -4.341,-0.536 -6.252,0.831 -1.56,1.116 -5.527,3.659 -5.65,3.738 0.1,-0.098 2.445,-2.427 5.552,-4.569 3.174,-2.191 4.326,-2.531 4.326,-2.531 -0.357,-1.905 -2.619,-2.381 -5.833,-1.071 -3.215,1.309 -8.69,5.456 -8.69,5.456 0.476,-1.09 4.719,-5.589 5.671,-6.185 0.952,-0.595 0.715,-2.783 -2.857,-1.712 -3.571,1.072 -7.518,6.676 -7.518,6.676 0,0 -0.533,-0.021 -1.398,-0.026 -2.228,-0.007 -6.676,0.107 -9.959,1.026 h -0.003 c -0.247,0.069 -0.488,0.143 -0.721,0.221 -0.128,0.043 -0.254,0.089 -0.376,0.136 -0.166,0.065 -0.326,0.131 -0.481,0.2 -3.828,1.721 -4.938,5.319 -4.938,5.319 l -1.373,2.562 -0.012,0.019 c -0.246,0.371 -4.303,6.495 -12.729,16.33 -9.947,11.614 -13.141,19.558 -13.856,23.908 -0.557,3.397 7.747,19.08 13.795,28.287 0.002,0.004 0.005,0.009 0.005,0.011 1.69,2.574 3.204,4.641 4.295,5.791 0,0 8.385,-1.933 13.51,-7.074 l 0.003,-0.002 c 2.052,-2.055 3.583,-4.624 3.847,-7.783 0,0 -7.837,-15.828 -15.456,-18.806 0,0 7.314,-9.645 9.49,-22.025 l 5.961,-12.454 c 1.086,-1 2.979,-2.191 5.774,-2.098 4.761,0.157 12.142,-0.795 14.761,-1.588 2.62,-0.793 7.857,-3.731 9.047,-4.999 C -2.778,1.429 0,0 0,0"
             style="fill:#f5b183;fill-opacity:1;fill-rule:nonzero;stroke:none"
             id="path956"
             inkscape:connector-curvature="0" /></g><g
           id="g958"
           transform="translate(287.3594,263.1387)"><path
             d="M 0,0 C -3.828,1.721 -4.938,5.319 -4.938,5.319 L -6.312,7.88 -6.323,7.899 c -0.246,0.372 -4.303,6.496 -12.729,16.33 -9.947,11.614 -13.141,19.559 -13.856,23.909 -0.557,3.397 7.747,19.08 13.795,28.286 -0.348,-0.697 -11.671,-23.534 -11.202,-28.222 0.476,-4.762 8.571,-17.618 12.38,-21.904 C -14.126,22.013 -6.388,11.499 -5.197,8.483 -4.224,6.014 -2.303,1.562 0,0"
             style="fill:#ef9168;fill-opacity:1;fill-rule:nonzero;stroke:none"
             id="path960"
             inkscape:connector-curvature="0" /></g><g
           id="g962"
           transform="translate(289.9062,330.5063)"><path
             d="m 0,0 c 0,0 -7.837,-15.828 -15.456,-18.806 0,0 -5.085,1.133 -8.24,0 0,0 2.857,2.795 7.917,1.783 0,0 8.946,6.667 11.327,12.618 2.381,5.952 0.602,12.19 0.602,12.19 L -3.847,7.783 C -1.795,5.728 -0.264,3.159 0,0"
             style="fill:#ef9168;fill-opacity:1;fill-rule:nonzero;stroke:none"
             id="path964"
             inkscape:connector-curvature="0" /></g><g
           id="g966"
           transform="translate(300.2969,261.5815)"><path
             d="M 0,0 C 0,0 -0.533,-0.021 -1.397,-0.026 -1.555,0.872 -2.45,1.4 -2.45,1.4 -1.172,1.372 0,0 0,0"
             style="fill:#ef9168;fill-opacity:1;fill-rule:nonzero;stroke:none"
             id="path968"
             inkscape:connector-curvature="0" /></g></g></g></g></svg>